<svg version="1.1" id="Ebene_1" xmlns="http://www.w3.org/2000/svg" x="0" y="0" viewBox="0 0 1024 1024" xml:space="preserve"><style>.st23{fill:#fff}.st24{fill:#28497c}</style><path id="rect909_9_" transform="rotate(-17.617 494.22 213.554)" class="st24" d="M481.1 161h26.3v105.1h-26.3z"/><path class="st24" d="M746 290.3H616.7c-4.5-26.9-49.7-48.1-104.7-48.1s-100.2 21.1-104.7 48.1H277.9c-73.8.1-133.6 59.9-133.7 133.7v261c.1 73.8 59.9 133.5 133.7 133.7h10.4c-5.1 21.3-17.2 44.7-43.8 68.9L161.7 962l110.2-16.9c124.8-19.8 202-95 229.7-126.5h244.5c73.8-.1 133.6-59.9 133.7-133.7V424c-.1-73.8-60-133.6-133.8-133.7zM695.9 610H328.1c-58 0-105.1-47-105.1-105.1s47-105.1 105.1-105.1h367.8c58 0 105.1 47 105.1 105.1S753.9 610 695.9 610z"/><ellipse id="path911_9_" transform="rotate(-17.617 471.495 136.397)" class="st24" cx="471.5" cy="136.4" rx="68.3" ry="52.5"/><g id="g836_14_" transform="translate(.425)"><circle id="path851_14_" class="st23" cx="621.6" cy="684.6" r="21"/><circle id="path851-6_8_" class="st23" cx="674.1" cy="684.6" r="21"/><circle id="path851-7_8_" class="st23" cx="569" cy="684.6" r="21"/></g><circle id="path860_12_" class="st24" cx="554.4" cy="474.9" r="52.5"/><circle id="path860-6_12_" class="st24" cx="709.6" cy="474.9" r="52.5"/><ellipse id="path877-7_9_" class="st24" cx="144.2" cy="541.7" rx="52.5" ry="105.1"/><ellipse id="path877-7-5_9_" class="st24" cx="879.8" cy="541.7" rx="52.5" ry="105.1"/></svg>