<?xml version="1.0" encoding="utf-8"?>
<!-- Generator: Adobe Illustrator 25.2.0, SVG Export Plug-In . SVG Version: 6.00 Build 0)  -->
<svg version="1.1" id="Ebene_1" xmlns="http://www.w3.org/2000/svg" xmlns:xlink="http://www.w3.org/1999/xlink" x="0px" y="0px"
	 viewBox="0 0 1024 1024" style="enable-background:new 0 0 1024 1024;" xml:space="preserve">
<style type="text/css">
	.st0{fill-rule:evenodd;clip-rule:evenodd;fill:#28497C;}
	.st1{fill-rule:evenodd;clip-rule:evenodd;fill:#D60000;}
	.st2{opacity:0.2;fill-rule:evenodd;clip-rule:evenodd;fill:#1D1D1B;}
	.st3{opacity:0.1;}
	.st4{clip-path:url(#SVGID_2_);fill-rule:evenodd;clip-rule:evenodd;fill:#1D1D1B;}
	.st5{opacity:0.2;}
	.st6{clip-path:url(#SVGID_6_);}
	.st7{fill-rule:evenodd;clip-rule:evenodd;fill:#1D1D1B;}
	.st8{fill-rule:evenodd;clip-rule:evenodd;fill:#FFFFFF;}
	.st9{clip-path:url(#SVGID_8_);fill-rule:evenodd;clip-rule:evenodd;fill:#ECECED;}
	.st10{clip-path:url(#SVGID_10_);fill-rule:evenodd;clip-rule:evenodd;fill:#ECECED;}
	.st11{opacity:0.1;fill-rule:evenodd;clip-rule:evenodd;fill:#1D1D1B;}
	.st12{clip-path:url(#SVGID_12_);fill-rule:evenodd;clip-rule:evenodd;fill:#1D1D1B;}
	.st13{clip-path:url(#SVGID_14_);fill-rule:evenodd;clip-rule:evenodd;fill:#1D1D1B;}
	.st14{fill-rule:evenodd;clip-rule:evenodd;fill:#ECECED;}
	.st15{clip-path:url(#SVGID_18_);fill-rule:evenodd;clip-rule:evenodd;fill:#D8D9DA;}
	.st16{clip-path:url(#SVGID_20_);}
	.st17{fill-rule:evenodd;clip-rule:evenodd;fill:#B0B2B3;}
	.st18{clip-path:url(#SVGID_22_);fill-rule:evenodd;clip-rule:evenodd;fill:#D8D9DA;}
	.st19{clip-path:url(#SVGID_24_);fill-rule:evenodd;clip-rule:evenodd;fill:#D8D9DA;}
	.st20{clip-path:url(#SVGID_26_);fill-rule:evenodd;clip-rule:evenodd;fill:#1A171B;}
	.st21{clip-path:url(#SVGID_28_);fill-rule:evenodd;clip-rule:evenodd;fill:#1A171B;}
	.st22{fill:#24437C;}
	.st23{fill:#FFFFFF;}
	.st24{fill:#28497C;}
	.st25{fill:#D60000;}
	.st26{opacity:0.2;fill:#1D1D1B;}
	.st27{fill:#1D1D1B;}
	.st28{opacity:0.2;fill:#FFFFFF;}
	.st29{fill:#3C444E;}
</style>
<g>
	<rect id="rect909_1_" x="498.9" y="142.4" class="st24" width="26.3" height="105.1"/>
	<path class="st25" d="M714.6,389.1L714.6,389.1l-405.2,0v0c-63.9,0-115.8,51.8-115.8,115.8s51.8,115.8,115.8,115.8c0,0,0,0,0,0
		h405.2c0,0,0,0,0,0c63.9,0,115.8-51.8,115.8-115.8S778.6,389.1,714.6,389.1z"/>
	<path class="st26" d="M714.6,389.1L714.6,389.1l-405.2,0v0c-63.9,0-115.8,51.8-115.8,115.8s51.8,115.8,115.8,115.8c0,0,0,0,0,0
		h405.2c0,0,0,0,0,0c63.9,0,115.8-51.8,115.8-115.8S778.6,389.1,714.6,389.1z"/>
	<path class="st25" d="M704.3,414.5L704.3,414.5l-359.7,0v0c-56.8,0-102.8,46-102.8,102.8S287.9,620,344.6,620c0,0,0,0,0,0h359.7
		c0,0,0,0,0,0c56.8,0,102.8-46,102.8-102.8S761.1,414.5,704.3,414.5z"/>
	<path class="st24" d="M746,290.3H277.9c-73.8,0.1-133.6,59.9-133.7,133.7v261c0.1,73.8,59.9,133.5,133.7,133.7h10.4
		c-5.1,21.3-17.2,44.7-43.8,68.9L161.7,962l110.2-16.9c124.8-19.8,202-95,229.7-126.5h244.5c73.8-0.1,133.6-59.9,133.7-133.7V424
		C879.7,350.2,819.8,290.4,746,290.3z M695.9,610C695.9,610,695.9,610,695.9,610H328.1c0,0,0,0,0,0c-58,0-105.1-47-105.1-105.1
		s47-105.1,105.1-105.1v0h367.8v0c58,0,105.1,47,105.1,105.1S753.9,610,695.9,610z"/>
	<g>
		<path class="st26" d="M808.4,332.3c14.2,19.9,22.6,44.1,22.6,70.1v240.2c-0.1,67.9-56.7,122.9-126.5,123l-443,0
			c-28-0.1-53.9-9-74.9-24c22.8,32,60.8,52.9,103.9,53l443,0c69.8-0.1,126.4-55.1,126.5-123V431.4
			C859.9,390.8,839.6,354.7,808.4,332.3z"/>
	</g>
	<ellipse id="path877_1_" class="st24" cx="512" cy="294.8" rx="105.1" ry="52.5"/>
	<ellipse id="path911_1_" class="st24" cx="513.7" cy="114.5" rx="68.3" ry="52.5"/>
	<g id="g836_2_" transform="translate(0.42499962)" class="st5">
		<circle id="path851_2_" class="st27" cx="519.6" cy="710.6" r="21"/>
		<circle id="path851-6_2_" class="st27" cx="572.1" cy="710.6" r="21"/>
		<circle id="path851-7_2_" class="st27" cx="467" cy="710.6" r="21"/>
	</g>
	<g id="g836_1_" transform="translate(0.42499962)">
		<circle id="path851_1_" class="st23" cx="511.6" cy="704.6" r="21"/>
		<circle id="path851-6_1_" class="st23" cx="564.1" cy="704.6" r="21"/>
		<circle id="path851-7_1_" class="st23" cx="459" cy="704.6" r="21"/>
	</g>
	<g>
		<circle id="path860_2_" class="st26" cx="367.4" cy="514.9" r="52.5"/>
		<circle id="path860_1_" class="st23" cx="354.4" cy="504.9" r="52.5"/>
		<path class="st26" d="M324.9,524.9c0,10.3,3,19.8,8.1,27.9c6.6,2.9,13.8,4.6,21.5,4.6c29,0,52.5-23.5,52.5-52.5
			c0-10.3-3-19.8-8.1-27.9c-6.6-2.9-13.8-4.6-21.5-4.6C348.4,472.4,324.9,495.9,324.9,524.9z"/>
		<circle class="st23" cx="346.7" cy="490.9" r="21.4"/>
	</g>
	<g>
		<circle id="path860-6_2_" class="st26" cx="682.6" cy="514.9" r="52.5"/>
		<circle id="path860-6_1_" class="st23" cx="669.6" cy="504.9" r="52.5"/>
		<path class="st26" d="M640.1,524.9c0,10.3,3,19.8,8.1,27.9c6.6,2.9,13.8,4.6,21.5,4.6c29,0,52.5-23.5,52.5-52.5
			c0-10.3-3-19.8-8.1-27.9c-6.6-2.9-13.8-4.6-21.5-4.6C663.6,472.4,640.1,495.9,640.1,524.9z"/>
		<circle class="st23" cx="663.3" cy="490.9" r="21.4"/>
	</g>
	<ellipse id="path877-7_1_" class="st24" cx="144.2" cy="541.7" rx="52.5" ry="105.1"/>
	<ellipse id="path877-7-5_1_" class="st24" cx="879.8" cy="541.7" rx="52.5" ry="105.1"/>
	<path class="st28" d="M794.4,468.2c4.3,11.4,6.6,23.8,6.6,36.7c0,58-47,105.1-105.1,105.1c0,0,0,0,0,0H328.1c0,0,0,0,0,0
		c-37.2,0-69.8-19.3-88.5-48.4c14.9,39.9,53.4,68.4,98.5,68.4c0,0,0,0,0,0h367.7c0,0,0,0,0,0c58,0,105.1-47,105.1-105.1
		C811,504.1,804.9,484.6,794.4,468.2z"/>
	<path class="st26" d="M918.1,496.9c0,0.7,0,1.4,0,2.1c0,62.4-23.8,113-53.2,113c-6.9,0-13.5-2.8-19.6-7.9
		c8.2,18.3,19.7,29.7,32.5,29.7c24.7,0,44.8-42.6,44.8-95.2C922.7,523.7,921.1,509.5,918.1,496.9z"/>
	
		<ellipse transform="matrix(0.2903 -0.9569 0.9569 0.2903 147.2761 1174.6821)" class="st28" cx="865.6" cy="488" rx="43.6" ry="22.9"/>
	<g>
		<path class="st26" d="M487.1,154.2c0.5,0,0.9,0,1.4,0c40.1,0,72.6-23.8,72.6-53.2c0-6.9-1.8-13.5-5.1-19.6
			c11.8,8.2,19.1,19.7,19.1,32.5c0,24.7-27.4,44.8-61.1,44.8C504.3,158.8,495.2,157.1,487.1,154.2z"/>
		
			<ellipse transform="matrix(0.7715 -0.6363 0.6363 0.7715 45.3004 329.558)" class="st28" cx="481.4" cy="101.7" rx="30.6" ry="20.9"/>
	</g>
	<g>
		<path class="st26" d="M470.4,334.9c0.7,0,1.4,0,2.1,0c61.4,0,111.1-23.8,111.1-53.2c0-6.9-2.8-13.5-7.8-19.6
			c18,8.2,29.2,19.7,29.2,32.5c0,24.7-41.9,44.8-93.5,44.8C496.8,339.5,482.9,337.9,470.4,334.9z"/>
		
			<ellipse transform="matrix(0.9544 -0.2985 0.2985 0.9544 -63.252 150.7187)" class="st28" cx="461.8" cy="282.4" rx="42.9" ry="22.9"/>
	</g>
	<path class="st26" d="M184.9,496.9c0,0.7,0,1.4,0,2.1c0,62.4-23.8,113-53.2,113c-6.9,0-13.5-2.8-19.6-7.9
		c8.2,18.3,19.7,29.7,32.5,29.7c24.7,0,44.8-42.6,44.8-95.2C189.5,523.7,187.8,509.5,184.9,496.9z"/>
	
		<ellipse transform="matrix(0.2903 -0.9569 0.9569 0.2903 -373.0478 473.0583)" class="st28" cx="132.4" cy="488" rx="43.6" ry="22.9"/>
</g>
</svg>
