<?xml version="1.0" encoding="utf-8"?>
<!-- Generator: Adobe Illustrator 25.2.0, SVG Export Plug-In . SVG Version: 6.00 Build 0)  -->
<svg version="1.1" id="Ebene_1" xmlns="http://www.w3.org/2000/svg" xmlns:xlink="http://www.w3.org/1999/xlink" x="0px" y="0px"
	 viewBox="0 0 1024 1024" style="enable-background:new 0 0 1024 1024;" xml:space="preserve">
<style type="text/css">
	.st0{fill-rule:evenodd;clip-rule:evenodd;fill:#28497C;}
	.st1{fill-rule:evenodd;clip-rule:evenodd;fill:#D60000;}
	.st2{opacity:0.2;fill-rule:evenodd;clip-rule:evenodd;fill:#1D1D1B;}
	.st3{opacity:0.1;}
	.st4{clip-path:url(#SVGID_2_);fill-rule:evenodd;clip-rule:evenodd;fill:#1D1D1B;}
	.st5{opacity:0.2;}
	.st6{clip-path:url(#SVGID_6_);}
	.st7{fill-rule:evenodd;clip-rule:evenodd;fill:#1D1D1B;}
	.st8{fill-rule:evenodd;clip-rule:evenodd;fill:#FFFFFF;}
	.st9{clip-path:url(#SVGID_8_);fill-rule:evenodd;clip-rule:evenodd;fill:#ECECED;}
	.st10{clip-path:url(#SVGID_10_);fill-rule:evenodd;clip-rule:evenodd;fill:#ECECED;}
	.st11{opacity:0.1;fill-rule:evenodd;clip-rule:evenodd;fill:#1D1D1B;}
	.st12{clip-path:url(#SVGID_12_);fill-rule:evenodd;clip-rule:evenodd;fill:#1D1D1B;}
	.st13{clip-path:url(#SVGID_14_);fill-rule:evenodd;clip-rule:evenodd;fill:#1D1D1B;}
	.st14{fill-rule:evenodd;clip-rule:evenodd;fill:#ECECED;}
	.st15{clip-path:url(#SVGID_18_);fill-rule:evenodd;clip-rule:evenodd;fill:#D8D9DA;}
	.st16{clip-path:url(#SVGID_20_);}
	.st17{fill-rule:evenodd;clip-rule:evenodd;fill:#B0B2B3;}
	.st18{clip-path:url(#SVGID_22_);fill-rule:evenodd;clip-rule:evenodd;fill:#D8D9DA;}
	.st19{clip-path:url(#SVGID_24_);fill-rule:evenodd;clip-rule:evenodd;fill:#D8D9DA;}
	.st20{clip-path:url(#SVGID_26_);fill-rule:evenodd;clip-rule:evenodd;fill:#1A171B;}
	.st21{clip-path:url(#SVGID_28_);fill-rule:evenodd;clip-rule:evenodd;fill:#1A171B;}
	.st22{fill:#24437C;}
	.st23{fill:#FFFFFF;}
	.st24{fill:#28497C;}
	.st25{fill:#D60000;}
	.st26{opacity:0.2;fill:#1D1D1B;}
	.st27{fill:#1D1D1B;}
	.st28{opacity:0.2;fill:#FFFFFF;}
	.st29{fill:#3C444E;}
</style>
<g>
	<rect id="rect909_8_" x="505.9" y="142.4" class="st24" width="26.3" height="105.1"/>
	<path class="st24" d="M753.1,290.3H623.8c-4.5-26.9-49.7-48.1-104.7-48.1c-55,0-100.2,21.1-104.7,48.1H285
		c-73.8,0.1-133.6,59.9-133.7,133.7v261c0.1,73.8,59.9,133.5,133.7,133.7h10.4c-5.1,21.3-17.2,44.7-43.8,68.9L168.8,962l110.2-16.9
		c124.8-19.8,202-95,229.7-126.5h244.5c73.8-0.1,133.6-59.9,133.7-133.7V424C886.7,350.2,826.9,290.4,753.1,290.3z M702.9,558.7
		C702.9,558.7,702.9,558.7,702.9,558.7H335.2c0,0,0,0,0,0c-58,0-105.1-42.3-105.1-94.4s47-94.4,105.1-94.4v0h367.8v0
		c58,0,105.1,42.3,105.1,94.4S761,558.7,702.9,558.7z"/>
	<ellipse id="path911_8_" class="st24" cx="520.8" cy="114.5" rx="68.3" ry="52.5"/>
	<g id="g836_11_" transform="translate(0.42499962)">
		<circle id="path851_11_" class="st23" cx="518.6" cy="704.6" r="21"/>
		<circle id="path851-6_11_" class="st23" cx="571.2" cy="704.6" r="21"/>
		<circle id="path851-7_11_" class="st23" cx="466.1" cy="704.6" r="21"/>
	</g>
	<circle id="path860_11_" class="st24" cx="361.5" cy="454.9" r="52.5"/>
	<circle id="path860-6_11_" class="st24" cx="676.7" cy="454.9" r="52.5"/>
	<ellipse id="path877-7_8_" class="st24" cx="151.3" cy="541.7" rx="52.5" ry="105.1"/>
	<ellipse id="path877-7-5_8_" class="st24" cx="886.8" cy="541.7" rx="52.5" ry="105.1"/>
	<g id="g836_12_" transform="translate(0.42499962)">
		<circle id="path851_12_" class="st23" cx="676.3" cy="694.6" r="21"/>
		<circle id="path851-6_12_" class="st23" cx="728.8" cy="674.6" r="21"/>
		<circle id="path851-7_12_" class="st23" cx="623.7" cy="700.6" r="21"/>
	</g>
	<g id="g836_13_" transform="translate(0.42499962)">
		<circle id="path851_13_" class="st23" cx="361" cy="694.6" r="21"/>
		<circle id="path851-6_13_" class="st23" cx="413.6" cy="700.6" r="21"/>
		<circle id="path851-7_13_" class="st23" cx="308.5" cy="674.6" r="21"/>
	</g>
	<path class="st24" d="M595.1,56.7c-6.1,0-12.1,0.6-17.8,1.6c33,6.1,57.4,29,57.4,56.2c0,27.2-24.5,50.1-57.4,56.2
		c5.7,1.1,11.6,1.6,17.8,1.6c41.5,0,75.2-25.9,75.2-57.8C670.3,82.6,636.6,56.7,595.1,56.7z"/>
	<path class="st24" d="M654.1,44.5c-7.4,0-14.6,0.7-21.5,2c39.9,7.4,69.6,35.1,69.6,68.1c0,33-29.6,60.6-69.6,68.1
		c6.9,1.3,14.1,2,21.5,2c50.3,0,91.1-31.4,91.1-70.1C745.2,75.8,704.4,44.5,654.1,44.5z"/>
	<path class="st24" d="M448.6,56.7c6.1,0,12.1,0.6,17.8,1.6c-33,6.1-57.4,29-57.4,56.2c0,27.2,24.5,50.1,57.4,56.2
		c-5.7,1.1-11.6,1.6-17.8,1.6c-41.5,0-75.2-25.9-75.2-57.8C373.4,82.6,407.1,56.7,448.6,56.7z"/>
	<path class="st24" d="M389.6,44.5c7.4,0,14.6,0.7,21.5,2c-39.9,7.4-69.6,35.1-69.6,68.1c0,33,29.6,60.6,69.6,68.1
		c-6.9,1.3-14.1,2-21.5,2c-50.3,0-91.1-31.4-91.1-70.1C298.6,75.8,339.3,44.5,389.6,44.5z"/>
</g>
</svg>
