<svg version="1.1" id="Ebene_1" xmlns="http://www.w3.org/2000/svg" x="0" y="0" viewBox="0 0 1024 1024" xml:space="preserve"><style>.st23{fill:#fff}.st24{fill:#28497c}</style><path id="rect909_8_" class="st24" d="M505.9 142.4h26.3v105.1h-26.3z"/><path class="st24" d="M753.1 290.3H623.8c-4.5-26.9-49.7-48.1-104.7-48.1s-100.2 21.1-104.7 48.1H285c-73.8.1-133.6 59.9-133.7 133.7v261c.1 73.8 59.9 133.5 133.7 133.7h10.4c-5.1 21.3-17.2 44.7-43.8 68.9L168.8 962 279 945.1c124.8-19.8 202-95 229.7-126.5h244.5c73.8-.1 133.6-59.9 133.7-133.7V424c-.2-73.8-60-133.6-133.8-133.7zm-50.2 268.4H335.2c-58 0-105.1-42.3-105.1-94.4s47-94.4 105.1-94.4H703c58 0 105.1 42.3 105.1 94.4s-47.1 94.4-105.2 94.4z"/><ellipse id="path911_8_" class="st24" cx="520.8" cy="114.5" rx="68.3" ry="52.5"/><g id="g836_11_" transform="translate(.425)"><circle id="path851_11_" class="st23" cx="518.6" cy="704.6" r="21"/><circle id="path851-6_11_" class="st23" cx="571.2" cy="704.6" r="21"/><circle id="path851-7_11_" class="st23" cx="466.1" cy="704.6" r="21"/></g><circle id="path860_11_" class="st24" cx="361.5" cy="454.9" r="52.5"/><circle id="path860-6_11_" class="st24" cx="676.7" cy="454.9" r="52.5"/><ellipse id="path877-7_8_" class="st24" cx="151.3" cy="541.7" rx="52.5" ry="105.1"/><ellipse id="path877-7-5_8_" class="st24" cx="886.8" cy="541.7" rx="52.5" ry="105.1"/><g id="g836_12_" transform="translate(.425)"><circle id="path851_12_" class="st23" cx="676.3" cy="694.6" r="21"/><circle id="path851-6_12_" class="st23" cx="728.8" cy="674.6" r="21"/><circle id="path851-7_12_" class="st23" cx="623.7" cy="700.6" r="21"/></g><g id="g836_13_" transform="translate(.425)"><circle id="path851_13_" class="st23" cx="361" cy="694.6" r="21"/><circle id="path851-6_13_" class="st23" cx="413.6" cy="700.6" r="21"/><circle id="path851-7_13_" class="st23" cx="308.5" cy="674.6" r="21"/></g><path class="st24" d="M595.1 56.7c-6.1 0-12.1.6-17.8 1.6 33 6.1 57.4 29 57.4 56.2 0 27.2-24.5 50.1-57.4 56.2 5.7 1.1 11.6 1.6 17.8 1.6 41.5 0 75.2-25.9 75.2-57.8s-33.7-57.8-75.2-57.8z"/><path class="st24" d="M654.1 44.5c-7.4 0-14.6.7-21.5 2 39.9 7.4 69.6 35.1 69.6 68.1 0 33-29.6 60.6-69.6 68.1 6.9 1.3 14.1 2 21.5 2 50.3 0 91.1-31.4 91.1-70.1 0-38.8-40.8-70.1-91.1-70.1zM448.6 56.7c6.1 0 12.1.6 17.8 1.6-33 6.1-57.4 29-57.4 56.2 0 27.2 24.5 50.1 57.4 56.2-5.7 1.1-11.6 1.6-17.8 1.6-41.5 0-75.2-25.9-75.2-57.8s33.7-57.8 75.2-57.8z"/><path class="st24" d="M389.6 44.5c7.4 0 14.6.7 21.5 2-39.9 7.4-69.6 35.1-69.6 68.1 0 33 29.6 60.6 69.6 68.1-6.9 1.3-14.1 2-21.5 2-50.3 0-91.1-31.4-91.1-70.1.1-38.8 40.8-70.1 91.1-70.1z"/></svg>