<?xml version="1.0" encoding="utf-8"?>
<!-- Generator: Adobe Illustrator 25.2.0, SVG Export Plug-In . SVG Version: 6.00 Build 0)  -->
<svg version="1.1" id="Ebene_1" xmlns="http://www.w3.org/2000/svg" xmlns:xlink="http://www.w3.org/1999/xlink" x="0px" y="0px"
	 viewBox="0 0 1024 1024" style="enable-background:new 0 0 1024 1024;" xml:space="preserve">
<style type="text/css">
	.st0{fill-rule:evenodd;clip-rule:evenodd;fill:#28497C;}
	.st1{fill-rule:evenodd;clip-rule:evenodd;fill:#D60000;}
	.st2{opacity:0.2;fill-rule:evenodd;clip-rule:evenodd;fill:#1D1D1B;}
	.st3{opacity:0.1;}
	.st4{clip-path:url(#SVGID_2_);fill-rule:evenodd;clip-rule:evenodd;fill:#1D1D1B;}
	.st5{opacity:0.2;}
	.st6{clip-path:url(#SVGID_6_);}
	.st7{fill-rule:evenodd;clip-rule:evenodd;fill:#1D1D1B;}
	.st8{fill-rule:evenodd;clip-rule:evenodd;fill:#FFFFFF;}
	.st9{clip-path:url(#SVGID_8_);fill-rule:evenodd;clip-rule:evenodd;fill:#ECECED;}
	.st10{clip-path:url(#SVGID_10_);fill-rule:evenodd;clip-rule:evenodd;fill:#ECECED;}
	.st11{opacity:0.1;fill-rule:evenodd;clip-rule:evenodd;fill:#1D1D1B;}
	.st12{clip-path:url(#SVGID_12_);fill-rule:evenodd;clip-rule:evenodd;fill:#1D1D1B;}
	.st13{clip-path:url(#SVGID_14_);fill-rule:evenodd;clip-rule:evenodd;fill:#1D1D1B;}
	.st14{fill-rule:evenodd;clip-rule:evenodd;fill:#ECECED;}
	.st15{clip-path:url(#SVGID_18_);fill-rule:evenodd;clip-rule:evenodd;fill:#D8D9DA;}
	.st16{clip-path:url(#SVGID_20_);}
	.st17{fill-rule:evenodd;clip-rule:evenodd;fill:#B0B2B3;}
	.st18{clip-path:url(#SVGID_22_);fill-rule:evenodd;clip-rule:evenodd;fill:#D8D9DA;}
	.st19{clip-path:url(#SVGID_24_);fill-rule:evenodd;clip-rule:evenodd;fill:#D8D9DA;}
	.st20{clip-path:url(#SVGID_26_);fill-rule:evenodd;clip-rule:evenodd;fill:#1A171B;}
	.st21{clip-path:url(#SVGID_28_);fill-rule:evenodd;clip-rule:evenodd;fill:#1A171B;}
	.st22{fill:#24437C;}
	.st23{fill:#FFFFFF;}
	.st24{fill:#28497C;}
	.st25{fill:#D60000;}
	.st26{opacity:0.2;fill:#1D1D1B;}
	.st27{fill:#1D1D1B;}
	.st28{opacity:0.2;fill:#FFFFFF;}
	.st29{fill:#3C444E;}
</style>
<g>
	<path class="st0" d="M774.3,707.3c-23.1-100.3-76-173.7-118-164c-42,9.7-57.3,98.9-34.2,199.2C645.2,842.7,797.4,807.6,774.3,707.3
		z"/>
	<path class="st0" d="M403.5,668.2c1.4-102.9-32.4-186.8-75.6-187.4c-43.1-0.6-79.2,82.4-80.6,185.3
		C245.9,769,402.1,771.1,403.5,668.2z"/>
	<g>
		<path class="st0" d="M329.3,413.6C294.9,544.4,352.4,673,457.8,700.7c105.4,27.7,218.8-55.8,253.2-186.6
			c34.4-130.8-23.1-259.4-128.5-287.1C477.1,199.2,363.7,282.8,329.3,413.6z M374.9,425.6c26.2-99.5,112.5-163.1,192.7-142
			c80.2,21.1,124,118.9,97.8,218.5C639.2,601.6,348.7,525.2,374.9,425.6z"/>
		<path class="st0" d="M553.3,467.1c-5,18.9-0.7,36.5,9.5,39.2c10.3,2.7,22.6-10.5,27.6-29.4c5-18.9,0.7-36.5-9.6-39.2
			C570.7,435,558.3,448.2,553.3,467.1z"/>
		<path class="st0" d="M493.3,451.3c-5,18.9-0.7,36.5,9.5,39.2c10.3,2.7,22.6-10.5,27.6-29.4c5-18.9,0.7-36.5-9.6-39.2
			C510.7,419.2,498.3,432.4,493.3,451.3z"/>
	</g>
</g>
</svg>
