<svg version="1.1" id="Ebene_1" xmlns="http://www.w3.org/2000/svg" x="0" y="0" viewBox="0 0 1024 1024" xml:space="preserve"><style>.st24{fill:#28497c}</style><path id="rect909_7_" class="st24" d="M498.1 142.4h26.3v105.1h-26.3z"/><path class="st24" d="M745.2 290.3H615.9c-4.5-26.9-49.7-48.1-104.7-48.1S411 263.3 406.5 290.3H277.1c-73.8.1-133.6 59.9-133.7 133.7v261c.1 73.8 59.9 133.5 133.7 133.7h10.4c-5.1 21.3-17.2 44.7-43.8 68.9L160.9 962l110.2-16.9c124.8-19.8 202-95 229.7-126.5h244.5c73.8-.1 133.6-59.9 133.7-133.7V424c-.1-73.8-60-133.6-133.8-133.7zM695.1 550H327.3c-58 0-105.1-47-105.1-105.1s47-105.1 105.1-105.1h367.8c58 0 105.1 47 105.1 105.1S753.1 550 695.1 550z"/><ellipse id="path911_7_" class="st24" cx="512.9" cy="114.5" rx="68.3" ry="52.5"/><g id="g836_10_" transform="translate(.425)"><circle id="path851_10_" cx="515.8" cy="664.6" r="72.2" fill="#fff"/></g><ellipse id="path877-7_7_" class="st24" cx="143.4" cy="541.7" rx="52.5" ry="105.1"/><ellipse id="path877-7-5_7_" class="st24" cx="879" cy="541.7" rx="52.5" ry="105.1"/><path class="st24" d="M423.5 352.9c-41.1 0-74.4 33.3-74.4 74.4 0 41.1 33.3 74.4 74.4 74.4 41.1 0 74.4-33.3 74.4-74.4 0-41.1-33.3-74.4-74.4-74.4zm10.9 28.3l-3 62.2h-15.6l-3.2-62.2h21.8zm-10.8 94h-.1c-7.3 0-12.2-5.3-12.2-12.5 0-7.3 5.1-12.5 12.3-12.5 7.3 0 12.1 5.2 12.2 12.5 0 7.2-4.8 12.5-12.2 12.5zm185.3-122.3c-41.1 0-74.4 33.3-74.4 74.4 0 41.1 33.3 74.4 74.4 74.4 41.1 0 74.4-33.3 74.4-74.4 0-41.1-33.3-74.4-74.4-74.4zm10.9 28.3l-3 62.2h-15.6l-3.2-62.2h21.8zm-10.9 94h-.1c-7.3 0-12.2-5.3-12.2-12.5 0-7.3 5.1-12.5 12.3-12.5 7.3 0 12.1 5.2 12.2 12.5.1 7.2-4.7 12.5-12.2 12.5zm45.2-430.7c-7.4 0-14.6.7-21.5 2 39.9 7.4 69.6 35.1 69.6 68.1 0 33-29.6 60.6-69.6 68.1 6.9 1.3 14.1 2 21.5 2 50.3 0 91.1-31.4 91.1-70.1 0-38.8-40.8-70.1-91.1-70.1zm-264.5 0c7.4 0 14.6.7 21.5 2-39.9 7.4-69.6 35.1-69.6 68.1 0 33 29.6 60.6 69.6 68.1-6.9 1.3-14.1 2-21.5 2-50.3 0-91.1-31.4-91.1-70.1.1-38.8 40.8-70.1 91.1-70.1z"/></svg>