<?xml version="1.0" encoding="utf-8"?>
<!-- Generator: Adobe Illustrator 25.2.0, SVG Export Plug-In . SVG Version: 6.00 Build 0)  -->
<svg version="1.1" id="Ebene_1" xmlns="http://www.w3.org/2000/svg" xmlns:xlink="http://www.w3.org/1999/xlink" x="0px" y="0px"
	 viewBox="0 0 1024 1024" style="enable-background:new 0 0 1024 1024;" xml:space="preserve">
<style type="text/css">
	.st0{fill-rule:evenodd;clip-rule:evenodd;fill:#28497C;}
	.st1{fill-rule:evenodd;clip-rule:evenodd;fill:#D60000;}
	.st2{opacity:0.2;fill-rule:evenodd;clip-rule:evenodd;fill:#1D1D1B;}
	.st3{opacity:0.1;}
	.st4{clip-path:url(#SVGID_2_);fill-rule:evenodd;clip-rule:evenodd;fill:#1D1D1B;}
	.st5{opacity:0.2;}
	.st6{clip-path:url(#SVGID_6_);}
	.st7{fill-rule:evenodd;clip-rule:evenodd;fill:#1D1D1B;}
	.st8{fill-rule:evenodd;clip-rule:evenodd;fill:#FFFFFF;}
	.st9{clip-path:url(#SVGID_8_);fill-rule:evenodd;clip-rule:evenodd;fill:#ECECED;}
	.st10{clip-path:url(#SVGID_10_);fill-rule:evenodd;clip-rule:evenodd;fill:#ECECED;}
	.st11{opacity:0.1;fill-rule:evenodd;clip-rule:evenodd;fill:#1D1D1B;}
	.st12{clip-path:url(#SVGID_12_);fill-rule:evenodd;clip-rule:evenodd;fill:#1D1D1B;}
	.st13{clip-path:url(#SVGID_14_);fill-rule:evenodd;clip-rule:evenodd;fill:#1D1D1B;}
	.st14{fill-rule:evenodd;clip-rule:evenodd;fill:#ECECED;}
	.st15{clip-path:url(#SVGID_18_);fill-rule:evenodd;clip-rule:evenodd;fill:#D8D9DA;}
	.st16{clip-path:url(#SVGID_20_);}
	.st17{fill-rule:evenodd;clip-rule:evenodd;fill:#B0B2B3;}
	.st18{clip-path:url(#SVGID_22_);fill-rule:evenodd;clip-rule:evenodd;fill:#D8D9DA;}
	.st19{clip-path:url(#SVGID_24_);fill-rule:evenodd;clip-rule:evenodd;fill:#D8D9DA;}
	.st20{clip-path:url(#SVGID_26_);fill-rule:evenodd;clip-rule:evenodd;fill:#1A171B;}
	.st21{clip-path:url(#SVGID_28_);fill-rule:evenodd;clip-rule:evenodd;fill:#1A171B;}
	.st22{fill:#24437C;}
	.st23{fill:#FFFFFF;}
	.st24{fill:#28497C;}
	.st25{fill:#D60000;}
	.st26{opacity:0.2;fill:#1D1D1B;}
	.st27{fill:#1D1D1B;}
	.st28{opacity:0.2;fill:#FFFFFF;}
	.st29{fill:#3C444E;}
</style>
<g>
	<path class="st0" d="M401.9,742.4c23.2-100.3,7.8-189.5-34.2-199.2c-42-9.7-94.9,63.7-118,164S378.8,842.7,401.9,742.4z"/>
	<path class="st0" d="M776.7,666.1c-1.4-102.9-37.5-185.9-80.6-185.3c-43.1,0.6-77,84.5-75.6,187.4
		C621.9,771.1,778.1,769,776.7,666.1z"/>
	<g>
		<path class="st0" d="M441.5,227C336.1,254.7,278.6,383.3,313,514.1c34.4,130.8,147.8,214.4,253.2,186.6
			C671.6,673,729.1,544.4,694.7,413.6C660.3,282.8,546.9,199.2,441.5,227z M358.6,502.1c-26.2-99.5,17.6-197.4,97.8-218.5
			c80.2-21.1,166.5,42.5,192.7,142C675.3,525.2,384.8,601.6,358.6,502.1z"/>
		<path class="st0" d="M515,467.1c5,18.9,0.7,36.5-9.5,39.2c-10.3,2.7-22.6-10.5-27.6-29.4c-5-18.9-0.7-36.5,9.6-39.2
			C497.7,435,510,448.2,515,467.1z"/>
		<path class="st0" d="M575.1,451.3c5,18.9,0.7,36.5-9.5,39.2c-10.3,2.7-22.6-10.5-27.6-29.4c-5-18.9-0.7-36.5,9.6-39.2
			C557.7,419.2,570.1,432.4,575.1,451.3z"/>
	</g>
</g>
</svg>
