<svg version="1.1" id="Ebene_1" xmlns="http://www.w3.org/2000/svg" x="0" y="0" viewBox="0 0 1024 1024" xml:space="preserve"><style>.st23{fill:#fff}.st24{fill:#28497c}.st25{fill:#d60000}.st26{opacity:.2}.st26,.st27{fill:#1d1d1b}.st28{opacity:.2;fill:#fff}</style><path id="rect909_1_" class="st24" d="M498.9 142.4h26.3v105.1h-26.3z"/><path class="st25" d="M714.6 389.1H309.4c-63.9 0-115.8 51.8-115.8 115.8s51.8 115.8 115.8 115.8h405.2c63.9 0 115.8-51.8 115.8-115.8s-51.8-115.8-115.8-115.8z"/><path class="st26" d="M714.6 389.1H309.4c-63.9 0-115.8 51.8-115.8 115.8s51.8 115.8 115.8 115.8h405.2c63.9 0 115.8-51.8 115.8-115.8s-51.8-115.8-115.8-115.8z"/><path class="st25" d="M704.3 414.5H344.6c-56.8 0-102.8 46-102.8 102.8S287.9 620 344.6 620h359.7c56.8 0 102.8-46 102.8-102.8s-46-102.7-102.8-102.7z"/><path class="st24" d="M746 290.3H277.9c-73.8.1-133.6 59.9-133.7 133.7v261c.1 73.8 59.9 133.5 133.7 133.7h10.4c-5.1 21.3-17.2 44.7-43.8 68.9L161.7 962l110.2-16.9c124.8-19.8 202-95 229.7-126.5h244.5c73.8-.1 133.6-59.9 133.7-133.7V424c-.1-73.8-60-133.6-133.8-133.7zM695.9 610H328.1c-58 0-105.1-47-105.1-105.1s47-105.1 105.1-105.1h367.8c58 0 105.1 47 105.1 105.1S753.9 610 695.9 610z"/><path class="st26" d="M808.4 332.3c14.2 19.9 22.6 44.1 22.6 70.1v240.2c-.1 67.9-56.7 122.9-126.5 123h-443c-28-.1-53.9-9-74.9-24 22.8 32 60.8 52.9 103.9 53h443c69.8-.1 126.4-55.1 126.5-123V431.4c-.1-40.6-20.4-76.7-51.6-99.1z"/><ellipse id="path877_1_" class="st24" cx="512" cy="294.8" rx="105.1" ry="52.5"/><ellipse id="path911_1_" class="st24" cx="513.7" cy="114.5" rx="68.3" ry="52.5"/><g id="g836_2_" transform="translate(.425)" opacity=".2"><circle id="path851_2_" class="st27" cx="519.6" cy="710.6" r="21"/><circle id="path851-6_2_" class="st27" cx="572.1" cy="710.6" r="21"/><circle id="path851-7_2_" class="st27" cx="467" cy="710.6" r="21"/></g><g id="g836_1_" transform="translate(.425)"><circle id="path851_1_" class="st23" cx="511.6" cy="704.6" r="21"/><circle id="path851-6_1_" class="st23" cx="564.1" cy="704.6" r="21"/><circle id="path851-7_1_" class="st23" cx="459" cy="704.6" r="21"/></g><circle id="path860_2_" class="st26" cx="367.4" cy="514.9" r="52.5"/><circle id="path860_1_" class="st23" cx="354.4" cy="504.9" r="52.5"/><path class="st26" d="M324.9 524.9c0 10.3 3 19.8 8.1 27.9 6.6 2.9 13.8 4.6 21.5 4.6 29 0 52.5-23.5 52.5-52.5 0-10.3-3-19.8-8.1-27.9-6.6-2.9-13.8-4.6-21.5-4.6-29 0-52.5 23.5-52.5 52.5z"/><circle class="st23" cx="346.7" cy="490.9" r="21.4"/><circle id="path860-6_2_" class="st26" cx="682.6" cy="514.9" r="52.5"/><circle id="path860-6_1_" class="st23" cx="669.6" cy="504.9" r="52.5"/><path class="st26" d="M640.1 524.9c0 10.3 3 19.8 8.1 27.9 6.6 2.9 13.8 4.6 21.5 4.6 29 0 52.5-23.5 52.5-52.5 0-10.3-3-19.8-8.1-27.9-6.6-2.9-13.8-4.6-21.5-4.6-29 0-52.5 23.5-52.5 52.5z"/><circle class="st23" cx="663.3" cy="490.9" r="21.4"/><ellipse id="path877-7_1_" class="st24" cx="144.2" cy="541.7" rx="52.5" ry="105.1"/><ellipse id="path877-7-5_1_" class="st24" cx="879.8" cy="541.7" rx="52.5" ry="105.1"/><path class="st28" d="M794.4 468.2c4.3 11.4 6.6 23.8 6.6 36.7 0 58-47 105.1-105.1 105.1H328.1c-37.2 0-69.8-19.3-88.5-48.4 14.9 39.9 53.4 68.4 98.5 68.4h367.7c58 0 105.1-47 105.1-105.1.1-20.8-6-40.3-16.5-56.7z"/><path class="st26" d="M918.1 496.9v2.1c0 62.4-23.8 113-53.2 113-6.9 0-13.5-2.8-19.6-7.9 8.2 18.3 19.7 29.7 32.5 29.7 24.7 0 44.8-42.6 44.8-95.2.1-14.9-1.5-29.1-4.5-41.7z"/><ellipse transform="rotate(-73.123 865.627 488.066)" class="st28" cx="865.6" cy="488" rx="43.6" ry="22.9"/><path class="st26" d="M487.1 154.2h1.4c40.1 0 72.6-23.8 72.6-53.2 0-6.9-1.8-13.5-5.1-19.6 11.8 8.2 19.1 19.7 19.1 32.5 0 24.7-27.4 44.8-61.1 44.8-9.7.1-18.8-1.6-26.9-4.5z"/><ellipse transform="rotate(-39.514 481.395 101.713)" class="st28" cx="481.4" cy="101.7" rx="30.6" ry="20.9"/><path class="st26" d="M470.4 334.9h2.1c61.4 0 111.1-23.8 111.1-53.2 0-6.9-2.8-13.5-7.8-19.6 18 8.2 29.2 19.7 29.2 32.5 0 24.7-41.9 44.8-93.5 44.8-14.7.1-28.6-1.5-41.1-4.5z"/><ellipse transform="rotate(-17.369 461.773 282.442)" class="st28" cx="461.8" cy="282.4" rx="42.9" ry="22.9"/><path class="st26" d="M184.9 496.9v2.1c0 62.4-23.8 113-53.2 113-6.9 0-13.5-2.8-19.6-7.9 8.2 18.3 19.7 29.7 32.5 29.7 24.7 0 44.8-42.6 44.8-95.2.1-14.9-1.6-29.1-4.5-41.7z"/><ellipse transform="rotate(-73.123 132.412 488.051)" class="st28" cx="132.4" cy="488" rx="43.6" ry="22.9"/></svg>