<svg version="1.1" id="Ebene_1" xmlns="http://www.w3.org/2000/svg" x="0" y="0" viewBox="0 0 1024 1024" xml:space="preserve"><style>.st24{fill:#28497c}</style><path id="rect909_11_" class="st24" d="M498.9 142.4h26.3v105.1h-26.3z"/><path class="st24" d="M746 290.3H616.7c-4.5-26.9-49.7-48.1-104.7-48.1s-100.2 21.1-104.7 48.1H277.9c-73.8.1-133.6 59.9-133.7 133.7v261c.1 73.8 59.9 133.5 133.7 133.7h10.4c-5.1 21.3-17.2 44.7-43.8 68.9L161.7 962l110.2-16.9c124.8-19.8 202-95 229.7-126.5h244.5c73.8-.1 133.6-59.9 133.7-133.7V424c-.1-73.8-60-133.6-133.8-133.7zM695.9 610H328.1c-58 0-105.1-47-105.1-105.1s47-105.1 105.1-105.1h367.8c58 0 105.1 47 105.1 105.1S753.9 610 695.9 610z"/><ellipse id="path877-7_11_" class="st24" cx="144.2" cy="541.7" rx="52.5" ry="105.1"/><ellipse id="path877-7-5_11_" class="st24" cx="879.8" cy="541.7" rx="52.5" ry="105.1"/><path class="st24" d="M512.2 60.4c-16.2-42.2-102-40.3-98 26.9 1.4 23 19.2 42.3 43.9 64.7 36.9 33.6 54.1 45 54.1 45s17.2-11.4 54.1-45c24.6-22.4 42.4-41.6 43.8-64.7 4.1-67.2-81.7-69.1-97.9-26.9z" id="favorite"/><path class="st24" d="M357.3 543.2l46.8 46.8 24.3-24.3-71.1-71.1-71.1 71.1 24.3 24.3zm312.3.4l46.8 46.8 24.3-24.3-71.1-71.1-71.1 71.1 24.3 24.3z"/><path fill="#fff" d="M513.7 682.6l-46.8-46.8-24.3 24.3 71.1 71.2 71.1-71.1-24.3-24.4z"/></svg>