<?xml version="1.0" encoding="utf-8"?>
<!-- Generator: Adobe Illustrator 25.2.0, SVG Export Plug-In . SVG Version: 6.00 Build 0)  -->
<svg version="1.1" id="Ebene_1" xmlns="http://www.w3.org/2000/svg" xmlns:xlink="http://www.w3.org/1999/xlink" x="0px" y="0px"
	 viewBox="0 0 1024 1024" style="enable-background:new 0 0 1024 1024;" xml:space="preserve">
<style type="text/css">
	.st0{fill-rule:evenodd;clip-rule:evenodd;fill:#28497C;}
	.st1{fill-rule:evenodd;clip-rule:evenodd;fill:#D60000;}
	.st2{opacity:0.2;fill-rule:evenodd;clip-rule:evenodd;fill:#1D1D1B;}
	.st3{opacity:0.1;}
	.st4{clip-path:url(#SVGID_2_);fill-rule:evenodd;clip-rule:evenodd;fill:#1D1D1B;}
	.st5{opacity:0.2;}
	.st6{clip-path:url(#SVGID_6_);}
	.st7{fill-rule:evenodd;clip-rule:evenodd;fill:#1D1D1B;}
	.st8{fill-rule:evenodd;clip-rule:evenodd;fill:#FFFFFF;}
	.st9{clip-path:url(#SVGID_8_);fill-rule:evenodd;clip-rule:evenodd;fill:#ECECED;}
	.st10{clip-path:url(#SVGID_10_);fill-rule:evenodd;clip-rule:evenodd;fill:#ECECED;}
	.st11{opacity:0.1;fill-rule:evenodd;clip-rule:evenodd;fill:#1D1D1B;}
	.st12{clip-path:url(#SVGID_12_);fill-rule:evenodd;clip-rule:evenodd;fill:#1D1D1B;}
	.st13{clip-path:url(#SVGID_14_);fill-rule:evenodd;clip-rule:evenodd;fill:#1D1D1B;}
	.st14{fill-rule:evenodd;clip-rule:evenodd;fill:#ECECED;}
	.st15{clip-path:url(#SVGID_18_);fill-rule:evenodd;clip-rule:evenodd;fill:#D8D9DA;}
	.st16{clip-path:url(#SVGID_20_);}
	.st17{fill-rule:evenodd;clip-rule:evenodd;fill:#B0B2B3;}
	.st18{clip-path:url(#SVGID_22_);fill-rule:evenodd;clip-rule:evenodd;fill:#D8D9DA;}
	.st19{clip-path:url(#SVGID_24_);fill-rule:evenodd;clip-rule:evenodd;fill:#D8D9DA;}
	.st20{clip-path:url(#SVGID_26_);fill-rule:evenodd;clip-rule:evenodd;fill:#1A171B;}
	.st21{clip-path:url(#SVGID_28_);fill-rule:evenodd;clip-rule:evenodd;fill:#1A171B;}
	.st22{fill:#24437C;}
	.st23{fill:#FFFFFF;}
	.st24{fill:#28497C;}
	.st25{fill:#D60000;}
	.st26{opacity:0.2;fill:#1D1D1B;}
	.st27{fill:#1D1D1B;}
	.st28{opacity:0.2;fill:#FFFFFF;}
	.st29{fill:#3C444E;}
</style>
<g>
	<path class="st0" d="M511.2,175.4c-109,0-197.3,109.7-197.3,244.9s88.4,244.9,197.3,244.9c109,0,197.3-109.7,197.3-244.9
		S620.2,175.4,511.2,175.4z M361,420.3c0-102.9,67.2-186.4,150.2-186.4c82.9,0,150.2,83.4,150.2,186.4
		C661.4,523.2,361,523.2,361,420.3z"/>
	<path class="st0" d="M267.3,771.4c0-102.9,35-186.4,78.1-186.4s78.1,83.4,78.1,186.4C423.6,874.4,267.3,874.4,267.3,771.4z"/>
	<path class="st0" d="M600.4,771.4c0-102.9,35-186.4,78.1-186.4c43.1,0,78.1,83.4,78.1,186.4C756.7,874.4,600.4,874.4,600.4,771.4z"
		/>
	<path class="st0" d="M495.4,295.4c0,19.6-8.6,35.5-19.2,35.5c-10.6,0-19.2-15.9-19.2-35.5s8.6-35.5,19.2-35.5
		C486.8,259.9,495.4,275.8,495.4,295.4z"/>
	<path class="st0" d="M557.5,295.4c0,19.6-8.6,35.5-19.2,35.5c-10.6,0-19.2-15.9-19.2-35.5s8.6-35.5,19.2-35.5
		C548.9,259.9,557.5,275.8,557.5,295.4z"/>
</g>
</svg>
