<?xml version="1.0" encoding="utf-8"?>
<!-- Generator: Adobe Illustrator 25.2.0, SVG Export Plug-In . SVG Version: 6.00 Build 0)  -->
<svg version="1.1" id="Ebene_1" xmlns="http://www.w3.org/2000/svg" xmlns:xlink="http://www.w3.org/1999/xlink" x="0px" y="0px"
	 viewBox="0 0 1024 1024" style="enable-background:new 0 0 1024 1024;" xml:space="preserve">
<style type="text/css">
	.st0{fill-rule:evenodd;clip-rule:evenodd;fill:#28497C;}
	.st1{fill-rule:evenodd;clip-rule:evenodd;fill:#D60000;}
	.st2{opacity:0.2;fill-rule:evenodd;clip-rule:evenodd;fill:#1D1D1B;}
	.st3{opacity:0.1;}
	.st4{clip-path:url(#SVGID_2_);fill-rule:evenodd;clip-rule:evenodd;fill:#1D1D1B;}
	.st5{opacity:0.2;}
	.st6{clip-path:url(#SVGID_6_);}
	.st7{fill-rule:evenodd;clip-rule:evenodd;fill:#1D1D1B;}
	.st8{fill-rule:evenodd;clip-rule:evenodd;fill:#FFFFFF;}
	.st9{clip-path:url(#SVGID_8_);fill-rule:evenodd;clip-rule:evenodd;fill:#ECECED;}
	.st10{clip-path:url(#SVGID_10_);fill-rule:evenodd;clip-rule:evenodd;fill:#ECECED;}
	.st11{opacity:0.1;fill-rule:evenodd;clip-rule:evenodd;fill:#1D1D1B;}
	.st12{clip-path:url(#SVGID_12_);fill-rule:evenodd;clip-rule:evenodd;fill:#1D1D1B;}
	.st13{clip-path:url(#SVGID_14_);fill-rule:evenodd;clip-rule:evenodd;fill:#1D1D1B;}
	.st14{fill-rule:evenodd;clip-rule:evenodd;fill:#ECECED;}
	.st15{clip-path:url(#SVGID_18_);fill-rule:evenodd;clip-rule:evenodd;fill:#D8D9DA;}
	.st16{clip-path:url(#SVGID_20_);}
	.st17{fill-rule:evenodd;clip-rule:evenodd;fill:#B0B2B3;}
	.st18{clip-path:url(#SVGID_22_);fill-rule:evenodd;clip-rule:evenodd;fill:#D8D9DA;}
	.st19{clip-path:url(#SVGID_24_);fill-rule:evenodd;clip-rule:evenodd;fill:#D8D9DA;}
	.st20{clip-path:url(#SVGID_26_);fill-rule:evenodd;clip-rule:evenodd;fill:#1A171B;}
	.st21{clip-path:url(#SVGID_28_);fill-rule:evenodd;clip-rule:evenodd;fill:#1A171B;}
	.st22{fill:#24437C;}
	.st23{fill:#FFFFFF;}
	.st24{fill:#28497C;}
	.st25{fill:#D60000;}
	.st26{opacity:0.2;fill:#1D1D1B;}
	.st27{fill:#1D1D1B;}
	.st28{opacity:0.2;fill:#FFFFFF;}
	.st29{fill:#3C444E;}
</style>
<g>
	<g>
		
			<rect id="rect909_10_" x="484.2" y="198.5" transform="matrix(0.3619 -0.9322 0.9322 0.3619 145.2292 635.4139)" class="st24" width="105.1" height="26.3"/>
		<path class="st24" d="M725.2,290.3H595.9c-4.5-26.9-49.7-48.1-104.7-48.1c-55,0-100.2,21.1-104.7,48.1H257.1
			c-73.8,0.1-133.6,59.9-133.7,133.7v261c0.1,73.8,59.9,133.5,133.7,133.7h10.4c-5.1,21.3-17.2,44.7-43.8,68.9L140.9,962l110.2-16.9
			c124.8-19.8,202-95,229.7-126.5h244.5c73.8-0.1,133.6-59.9,133.7-133.7V424C858.9,350.2,799.1,290.4,725.2,290.3z M675.1,610
			C675.1,610,675.1,610,675.1,610H307.3c0,0,0,0,0,0c-58,0-105.1-47-105.1-105.1s47-105.1,105.1-105.1v0h367.8v0
			c58,0,105.1,47,105.1,105.1S733.1,610,675.1,610z"/>
		
			<ellipse id="path911_10_" transform="matrix(0.3619 -0.9322 0.9322 0.3619 234.1256 616.5775)" class="st24" cx="567.5" cy="137.3" rx="52.5" ry="68.3"/>
		<g id="g836_15_" transform="translate(0.42499962)">
			<circle id="path851_15_" class="st23" cx="580.8" cy="704.6" r="21"/>
			<circle id="path851-6_10_" class="st23" cx="633.3" cy="704.6" r="21"/>
			<circle id="path851-7_10_" class="st23" cx="528.3" cy="704.6" r="21"/>
		</g>
		<ellipse id="path877-7_10_" class="st24" cx="123.5" cy="541.7" rx="52.5" ry="105.1"/>
		<ellipse id="path877-7-5_10_" class="st24" cx="859" cy="541.7" rx="52.5" ry="105.1"/>
	</g>
	<path class="st24" d="M491.8,440.2c-42.1,0-76.2,34.1-76.2,76.2c0,42.1,34.1,76.2,76.2,76.2c42.1,0,76.2-34.1,76.2-76.2
		C568,474.3,533.9,440.2,491.8,440.2z M490.9,565.5h-0.1c-7.2,0-12.1-5.4-12.1-12.6c0-7.4,5.1-12.5,12.3-12.5
		c7.5,0,12.3,5.1,12.4,12.5C503.4,560.1,498.4,565.5,490.9,565.5z M507.7,514c-5.1,5.6-7.2,11.1-7,17.3v2.5h-18.4l-0.1-3.6
		c-0.4-7.1,1.9-14.2,8.1-21.6c4.4-5.4,8-9.8,8-14.5c0-4.8-3.2-8-10.1-8.3c-4.6,0-10.1,1.7-13.7,4.1l-4.7-15
		c5.1-2.9,13.3-5.7,23.1-5.7c18.2,0,26.5,10.1,26.5,21.5C519.4,501.3,512.9,508.2,507.7,514z"/>
	<path class="st24" d="M671.1,440.2c-42.1,0-76.2,34.1-76.2,76.2c0,42.1,34.1,76.2,76.2,76.2c42.1,0,76.2-34.1,76.2-76.2
		C747.4,474.3,713.2,440.2,671.1,440.2z M670.3,565.5h-0.1c-7.2,0-12.1-5.4-12.1-12.6c0-7.4,5.1-12.5,12.3-12.5
		c7.5,0,12.3,5.1,12.4,12.5C682.7,560.1,677.7,565.5,670.3,565.5z M687,514c-5.1,5.6-7.2,11.1-7,17.3v2.5h-18.4l-0.1-3.6
		c-0.4-7.1,1.9-14.2,8.1-21.6c4.4-5.4,8-9.8,8-14.5c0-4.8-3.2-8-10.1-8.3c-4.6,0-10.1,1.7-13.7,4.1l-4.7-15
		c5.1-2.9,13.3-5.7,23.1-5.7c18.2,0,26.5,10.1,26.5,21.5C698.7,501.3,692.3,508.2,687,514z"/>
</g>
</svg>
