<svg version="1.1" id="Ebene_1" xmlns="http://www.w3.org/2000/svg" x="0" y="0" viewBox="0 0 1024 1024" xml:space="preserve"><style>.st24{fill:#28497c}</style><path id="rect909_6_" transform="rotate(-17.465 495.011 203.614)" class="st24" d="M481.9 151.1h26.3v105.1h-26.3z"/><path class="st24" d="M747 290.3H617.6c-4.5-26.9-49.7-48.1-104.7-48.1s-100.2 21.1-104.7 48.1H278.8c-73.8.1-133.6 59.9-133.6 133.7v261c.1 73.8 59.9 133.5 133.7 133.7h10.4c-5.1 21.3-17.2 44.7-43.8 68.9L162.6 962l110.2-16.9c124.8-19.8 202-95 229.7-126.5H747c73.8-.1 133.6-59.9 133.7-133.7V424c-.1-73.8-59.9-133.6-133.7-133.7zM696.8 610H329.1C271 610 224 563 224 504.9s47-105 105-105h367.8c58 0 105.1 47 105.1 105.1s-47.1 105-105.1 105z"/><ellipse id="path911_6_" transform="rotate(-17.465 472.503 126.396)" class="st24" cx="472.6" cy="126.4" rx="68.3" ry="52.5"/><circle id="path860_9_" class="st24" cx="524.4" cy="504.9" r="52.5"/><circle id="path860-6_9_" class="st24" cx="670.5" cy="504.9" r="52.5"/><ellipse id="path877-7_6_" class="st24" cx="145.2" cy="541.7" rx="52.5" ry="105.1"/><ellipse id="path877-7-5_6_" class="st24" cx="880.7" cy="541.7" rx="52.5" ry="105.1"/><path fill="#fff" d="M602.8 710.5L556 757.3l24.3 24.3 71.1-71.1-71.1-71.1-24.3 24.3z"/></svg>