<svg version="1.1" id="Ebene_1" xmlns="http://www.w3.org/2000/svg" x="0" y="0" viewBox="0 0 1024 1024" xml:space="preserve"><style>.st24{fill:#28497c}</style><path id="rect909_5_" class="st24" d="M477.3 142.4h26.3v105.1h-26.3z"/><path class="st24" d="M724.5 290.3H595.2c-4.5-26.9-49.7-48.1-104.7-48.1s-100.2 21.1-104.7 48.1H256.4c-73.8.1-133.6 59.9-133.7 133.7v261c.1 73.8 59.9 133.5 133.7 133.7h10.4c-5.1 21.3-17.2 44.7-43.8 68.9L140.2 962l110.2-16.9c124.8-19.8 202-95 229.7-126.5h244.5c73.8-.1 133.6-59.9 133.7-133.7V424c-.1-73.8-60-133.6-133.8-133.7zM674.4 640H306.6c-58 0-105.1-47-105.1-105.1s47-105.1 105.1-105.1h367.8c58 0 105.1 47 105.1 105.1S732.4 640 674.4 640z"/><ellipse id="path911_5_" class="st24" cx="492.2" cy="174.5" rx="68.3" ry="52.5"/><g id="g836_8_" transform="translate(.425)"><circle id="path851_8_" cx="490.1" cy="724.6" r="21" fill="#fff"/></g><ellipse id="path877-7_5_" class="st24" cx="122.7" cy="541.7" rx="52.5" ry="105.1"/><ellipse id="path877-7-5_5_" class="st24" cx="858.2" cy="541.7" rx="52.5" ry="105.1"/><path class="st24" d="M450.2 602.2l-31.6-31.6 31.6-31.6-22.2-22.2-31.6 31.6-31.6-31.6-22.2 22.2 31.5 31.6-31.6 31.6 22.3 22.2 31.6-31.6 31.6 31.6zm198.2 0l-31.6-31.6 31.6-31.6-22.2-22.2-31.6 31.6-31.6-31.6-22.2 22.2 31.6 31.6-31.6 31.6 22.2 22.2 31.6-31.6 31.6 31.6z"/></svg>