<?xml version="1.0" encoding="utf-8"?>
<!-- Generator: Adobe Illustrator 25.2.0, SVG Export Plug-In . SVG Version: 6.00 Build 0)  -->
<svg version="1.1" id="Ebene_1" xmlns="http://www.w3.org/2000/svg" xmlns:xlink="http://www.w3.org/1999/xlink" x="0px" y="0px"
	 viewBox="0 0 1024 1024" style="enable-background:new 0 0 1024 1024;" xml:space="preserve">
<style type="text/css">
	.st0{fill-rule:evenodd;clip-rule:evenodd;fill:#28497C;}
	.st1{fill-rule:evenodd;clip-rule:evenodd;fill:#D60000;}
	.st2{opacity:0.2;fill-rule:evenodd;clip-rule:evenodd;fill:#1D1D1B;}
	.st3{opacity:0.1;}
	.st4{clip-path:url(#SVGID_2_);fill-rule:evenodd;clip-rule:evenodd;fill:#1D1D1B;}
	.st5{opacity:0.2;}
	.st6{clip-path:url(#SVGID_6_);}
	.st7{fill-rule:evenodd;clip-rule:evenodd;fill:#1D1D1B;}
	.st8{fill-rule:evenodd;clip-rule:evenodd;fill:#FFFFFF;}
	.st9{clip-path:url(#SVGID_8_);fill-rule:evenodd;clip-rule:evenodd;fill:#ECECED;}
	.st10{clip-path:url(#SVGID_10_);fill-rule:evenodd;clip-rule:evenodd;fill:#ECECED;}
	.st11{opacity:0.1;fill-rule:evenodd;clip-rule:evenodd;fill:#1D1D1B;}
	.st12{clip-path:url(#SVGID_12_);fill-rule:evenodd;clip-rule:evenodd;fill:#1D1D1B;}
	.st13{clip-path:url(#SVGID_14_);fill-rule:evenodd;clip-rule:evenodd;fill:#1D1D1B;}
	.st14{fill-rule:evenodd;clip-rule:evenodd;fill:#ECECED;}
	.st15{clip-path:url(#SVGID_18_);fill-rule:evenodd;clip-rule:evenodd;fill:#D8D9DA;}
	.st16{clip-path:url(#SVGID_20_);}
	.st17{fill-rule:evenodd;clip-rule:evenodd;fill:#B0B2B3;}
	.st18{clip-path:url(#SVGID_22_);fill-rule:evenodd;clip-rule:evenodd;fill:#D8D9DA;}
	.st19{clip-path:url(#SVGID_24_);fill-rule:evenodd;clip-rule:evenodd;fill:#D8D9DA;}
	.st20{clip-path:url(#SVGID_26_);fill-rule:evenodd;clip-rule:evenodd;fill:#1A171B;}
	.st21{clip-path:url(#SVGID_28_);fill-rule:evenodd;clip-rule:evenodd;fill:#1A171B;}
	.st22{fill:#24437C;}
	.st23{fill:#FFFFFF;}
	.st24{fill:#28497C;}
	.st25{fill:#D60000;}
	.st26{opacity:0.2;fill:#1D1D1B;}
	.st27{fill:#1D1D1B;}
	.st28{opacity:0.2;fill:#FFFFFF;}
	.st29{fill:#3C444E;}
</style>
<g>
	<g>
		<rect id="rect909_7_" x="498.1" y="142.4" class="st24" width="26.3" height="105.1"/>
		<path class="st24" d="M745.2,290.3H615.9c-4.5-26.9-49.7-48.1-104.7-48.1c-55,0-100.2,21.1-104.7,48.1H277.1
			c-73.8,0.1-133.6,59.9-133.7,133.7v261c0.1,73.8,59.9,133.5,133.7,133.7h10.4c-5.1,21.3-17.2,44.7-43.8,68.9L160.9,962l110.2-16.9
			c124.8-19.8,202-95,229.7-126.5h244.5c73.8-0.1,133.6-59.9,133.7-133.7V424C878.9,350.2,819,290.4,745.2,290.3z M695.1,550
			C695.1,550,695.1,550,695.1,550H327.3c0,0,0,0,0,0c-58,0-105.1-47-105.1-105.1s47-105.1,105.1-105.1v0h367.8v0
			c58,0,105.1,47,105.1,105.1S753.1,550,695.1,550z"/>
		<ellipse id="path911_7_" class="st24" cx="512.9" cy="114.5" rx="68.3" ry="52.5"/>
		<g id="g836_10_" transform="translate(0.42499962)">
			<circle id="path851_10_" class="st23" cx="515.8" cy="664.6" r="72.2"/>
		</g>
		<ellipse id="path877-7_7_" class="st24" cx="143.4" cy="541.7" rx="52.5" ry="105.1"/>
		<ellipse id="path877-7-5_7_" class="st24" cx="879" cy="541.7" rx="52.5" ry="105.1"/>
		<path class="st24" d="M423.5,352.9c-41.1,0-74.4,33.3-74.4,74.4c0,41.1,33.3,74.4,74.4,74.4c41.1,0,74.4-33.3,74.4-74.4
			C497.9,386.2,464.6,352.9,423.5,352.9z M434.4,381.2l-3,62.2h-15.6l-3.2-62.2H434.4z M423.6,475.2h-0.1c-7.3,0-12.2-5.3-12.2-12.5
			c0-7.3,5.1-12.5,12.3-12.5c7.3,0,12.1,5.2,12.2,12.5C435.8,469.9,431,475.2,423.6,475.2z"/>
		<path class="st24" d="M608.9,352.9c-41.1,0-74.4,33.3-74.4,74.4c0,41.1,33.3,74.4,74.4,74.4c41.1,0,74.4-33.3,74.4-74.4
			C683.3,386.2,650,352.9,608.9,352.9z M619.8,381.2l-3,62.2h-15.6l-3.2-62.2H619.8z M608.9,475.2h-0.1c-7.3,0-12.2-5.3-12.2-12.5
			c0-7.3,5.1-12.5,12.3-12.5c7.3,0,12.1,5.2,12.2,12.5C621.2,469.9,616.4,475.2,608.9,475.2z"/>
	</g>
	<path class="st24" d="M654.1,44.5c-7.4,0-14.6,0.7-21.5,2c39.9,7.4,69.6,35.1,69.6,68.1c0,33-29.6,60.6-69.6,68.1
		c6.9,1.3,14.1,2,21.5,2c50.3,0,91.1-31.4,91.1-70.1C745.2,75.8,704.4,44.5,654.1,44.5z"/>
	<path class="st24" d="M389.6,44.5c7.4,0,14.6,0.7,21.5,2c-39.9,7.4-69.6,35.1-69.6,68.1c0,33,29.6,60.6,69.6,68.1
		c-6.9,1.3-14.1,2-21.5,2c-50.3,0-91.1-31.4-91.1-70.1C298.6,75.8,339.3,44.5,389.6,44.5z"/>
</g>
</svg>
