<?xml version="1.0" encoding="utf-8"?>
<!-- Generator: Adobe Illustrator 25.2.0, SVG Export Plug-In . SVG Version: 6.00 Build 0)  -->
<svg version="1.1" id="Ebene_1" xmlns="http://www.w3.org/2000/svg" xmlns:xlink="http://www.w3.org/1999/xlink" x="0px" y="0px"
	 viewBox="0 0 1024 1024" style="enable-background:new 0 0 1024 1024;" xml:space="preserve">
<style type="text/css">
	.st0{fill-rule:evenodd;clip-rule:evenodd;fill:#28497C;}
	.st1{fill-rule:evenodd;clip-rule:evenodd;fill:#D60000;}
	.st2{opacity:0.2;fill-rule:evenodd;clip-rule:evenodd;fill:#1D1D1B;}
	.st3{opacity:0.1;}
	.st4{clip-path:url(#SVGID_2_);fill-rule:evenodd;clip-rule:evenodd;fill:#1D1D1B;}
	.st5{opacity:0.2;}
	.st6{clip-path:url(#SVGID_6_);}
	.st7{fill-rule:evenodd;clip-rule:evenodd;fill:#1D1D1B;}
	.st8{fill-rule:evenodd;clip-rule:evenodd;fill:#FFFFFF;}
	.st9{clip-path:url(#SVGID_8_);fill-rule:evenodd;clip-rule:evenodd;fill:#ECECED;}
	.st10{clip-path:url(#SVGID_10_);fill-rule:evenodd;clip-rule:evenodd;fill:#ECECED;}
	.st11{opacity:0.1;fill-rule:evenodd;clip-rule:evenodd;fill:#1D1D1B;}
	.st12{clip-path:url(#SVGID_12_);fill-rule:evenodd;clip-rule:evenodd;fill:#1D1D1B;}
	.st13{clip-path:url(#SVGID_14_);fill-rule:evenodd;clip-rule:evenodd;fill:#1D1D1B;}
	.st14{fill-rule:evenodd;clip-rule:evenodd;fill:#ECECED;}
	.st15{clip-path:url(#SVGID_18_);fill-rule:evenodd;clip-rule:evenodd;fill:#D8D9DA;}
	.st16{clip-path:url(#SVGID_20_);}
	.st17{fill-rule:evenodd;clip-rule:evenodd;fill:#B0B2B3;}
	.st18{clip-path:url(#SVGID_22_);fill-rule:evenodd;clip-rule:evenodd;fill:#D8D9DA;}
	.st19{clip-path:url(#SVGID_24_);fill-rule:evenodd;clip-rule:evenodd;fill:#D8D9DA;}
	.st20{clip-path:url(#SVGID_26_);fill-rule:evenodd;clip-rule:evenodd;fill:#1A171B;}
	.st21{clip-path:url(#SVGID_28_);fill-rule:evenodd;clip-rule:evenodd;fill:#1A171B;}
	.st22{fill:#24437C;}
	.st23{fill:#FFFFFF;}
	.st24{fill:#28497C;}
	.st25{fill:#D60000;}
	.st26{opacity:0.2;fill:#1D1D1B;}
	.st27{fill:#1D1D1B;}
	.st28{opacity:0.2;fill:#FFFFFF;}
	.st29{fill:#3C444E;}
</style>
<g>
	<rect id="rect909_2_" x="493.9" y="142.4" class="st29" width="26.3" height="105.1"/>
	<path class="st29" d="M709.6,389.1L709.6,389.1l-405.2,0v0c-63.9,0-115.8,51.8-115.8,115.8s51.8,115.8,115.8,115.8c0,0,0,0,0,0
		h405.2c0,0,0,0,0,0c63.9,0,115.8-51.8,115.8-115.8S773.6,389.1,709.6,389.1z"/>
	<path class="st26" d="M709.6,389.1L709.6,389.1l-405.2,0v0c-63.9,0-115.8,51.8-115.8,115.8s51.8,115.8,115.8,115.8c0,0,0,0,0,0
		h405.2c0,0,0,0,0,0c63.9,0,115.8-51.8,115.8-115.8S773.6,389.1,709.6,389.1z"/>
	<path class="st29" d="M699.3,414.5L699.3,414.5l-359.7,0v0c-56.8,0-102.8,46-102.8,102.8S282.9,620,339.6,620c0,0,0,0,0,0h359.7
		c0,0,0,0,0,0c56.8,0,102.8-46,102.8-102.8S756.1,414.5,699.3,414.5z"/>
	<path class="st24" d="M741,290.3H272.9c-73.8,0.1-133.6,59.9-133.7,133.7v261c0.1,73.8,59.9,133.5,133.7,133.7h10.4
		c-5.1,21.3-17.2,44.7-43.8,68.9L156.7,962l110.2-16.9c124.8-19.8,202-95,229.7-126.5h244.5c73.8-0.1,133.6-59.9,133.7-133.7V424
		C874.7,350.2,814.8,290.4,741,290.3z M690.9,610C690.9,610,690.9,610,690.9,610H323.1c0,0,0,0,0,0c-58,0-105.1-47-105.1-105.1
		s47-105.1,105.1-105.1v0h367.8v0c58,0,105.1,47,105.1,105.1S748.9,610,690.9,610z"/>
	<g>
		<path class="st26" d="M803.4,332.3c14.2,19.9,22.6,44.1,22.6,70.1v240.2c-0.1,67.9-56.7,122.9-126.5,123l-443,0
			c-28-0.1-53.9-9-74.9-24c22.8,32,60.8,52.9,103.9,53l443,0c69.8-0.1,126.4-55.1,126.5-123V431.4
			C854.9,390.8,834.6,354.7,803.4,332.3z"/>
	</g>
	<ellipse id="path877_2_" class="st24" cx="507" cy="294.8" rx="105.1" ry="52.5"/>
	<ellipse id="path911_2_" class="st29" cx="508.7" cy="114.5" rx="68.3" ry="52.5"/>
	<g id="g836_4_" transform="translate(0.42499962)" class="st5">
		<circle id="path851_4_" class="st27" cx="514.6" cy="710.6" r="21"/>
		<circle id="path851-6_4_" class="st27" cx="567.1" cy="710.6" r="21"/>
		<circle id="path851-7_4_" class="st27" cx="462" cy="710.6" r="21"/>
	</g>
	<g id="g836_3_" transform="translate(0.42499962)">
		<circle id="path851_3_" class="st23" cx="506.6" cy="704.6" r="21"/>
		<circle id="path851-6_3_" class="st23" cx="559.1" cy="704.6" r="21"/>
		<circle id="path851-7_3_" class="st23" cx="454" cy="704.6" r="21"/>
	</g>
	<g>
		<circle id="path860_4_" class="st26" cx="362.4" cy="514.9" r="52.5"/>
		<circle id="path860_3_" class="st23" cx="349.4" cy="504.9" r="52.5"/>
		<path class="st26" d="M319.9,524.9c0,10.3,3,19.8,8.1,27.9c6.6,2.9,13.8,4.6,21.5,4.6c29,0,52.5-23.5,52.5-52.5
			c0-10.3-3-19.8-8.1-27.9c-6.6-2.9-13.8-4.6-21.5-4.6C343.4,472.4,319.9,495.9,319.9,524.9z"/>
		<circle class="st23" cx="341.7" cy="490.9" r="21.4"/>
	</g>
	<g>
		<circle id="path860-6_4_" class="st26" cx="677.6" cy="514.9" r="52.5"/>
		<circle id="path860-6_3_" class="st23" cx="664.6" cy="504.9" r="52.5"/>
		<path class="st26" d="M635.1,524.9c0,10.3,3,19.8,8.1,27.9c6.6,2.9,13.8,4.6,21.5,4.6c29,0,52.5-23.5,52.5-52.5
			c0-10.3-3-19.8-8.1-27.9c-6.6-2.9-13.8-4.6-21.5-4.6C658.6,472.4,635.1,495.9,635.1,524.9z"/>
		<circle class="st23" cx="658.3" cy="490.9" r="21.4"/>
	</g>
	<ellipse id="path877-7_2_" class="st29" cx="139.2" cy="541.7" rx="52.5" ry="105.1"/>
	<ellipse id="path877-7-5_2_" class="st29" cx="874.8" cy="541.7" rx="52.5" ry="105.1"/>
	<path class="st28" d="M789.4,468.2c4.3,11.4,6.6,23.8,6.6,36.7c0,58-47,105.1-105.1,105.1c0,0,0,0,0,0H323.1c0,0,0,0,0,0
		c-37.2,0-69.8-19.3-88.5-48.4c14.9,39.9,53.4,68.4,98.5,68.4c0,0,0,0,0,0h367.7c0,0,0,0,0,0c58,0,105.1-47,105.1-105.1
		C806,504.1,799.9,484.6,789.4,468.2z"/>
	<path class="st26" d="M913.1,496.9c0,0.7,0,1.4,0,2.1c0,62.4-23.8,113-53.2,113c-6.9,0-13.5-2.8-19.6-7.9
		c8.2,18.3,19.7,29.7,32.5,29.7c24.7,0,44.8-42.6,44.8-95.2C917.7,523.7,916.1,509.5,913.1,496.9z"/>
	
		<ellipse transform="matrix(0.2903 -0.9569 0.9569 0.2903 143.7278 1169.8976)" class="st28" cx="860.6" cy="488" rx="43.6" ry="22.9"/>
	<g>
		<path class="st26" d="M482.1,154.2c0.5,0,0.9,0,1.4,0c40.1,0,72.6-23.8,72.6-53.2c0-6.9-1.8-13.5-5.1-19.6
			c11.8,8.2,19.1,19.7,19.1,32.5c0,24.7-27.4,44.8-61.1,44.8C499.3,158.8,490.2,157.1,482.1,154.2z"/>
		
			<ellipse transform="matrix(0.7715 -0.6363 0.6363 0.7715 44.1578 326.3768)" class="st28" cx="476.4" cy="101.7" rx="30.6" ry="20.9"/>
	</g>
	<g>
		<path class="st26" d="M465.4,334.9c0.7,0,1.4,0,2.1,0c61.4,0,111.1-23.8,111.1-53.2c0-6.9-2.8-13.5-7.8-19.6
			c18,8.2,29.2,19.7,29.2,32.5c0,24.7-41.9,44.8-93.5,44.8C491.8,339.5,477.9,337.9,465.4,334.9z"/>
		
			<ellipse transform="matrix(0.9544 -0.2985 0.2985 0.9544 -63.48 149.2262)" class="st28" cx="456.8" cy="282.4" rx="42.9" ry="22.9"/>
	</g>
	<path class="st26" d="M179.9,496.9c0,0.7,0,1.4,0,2.1c0,62.4-23.8,113-53.2,113c-6.9,0-13.5-2.8-19.6-7.9
		c8.2,18.3,19.7,29.7,32.5,29.7c24.7,0,44.8-42.6,44.8-95.2C184.5,523.7,182.8,509.5,179.9,496.9z"/>
	
		<ellipse transform="matrix(0.2903 -0.9569 0.9569 0.2903 -376.5961 468.2737)" class="st28" cx="127.4" cy="488" rx="43.6" ry="22.9"/>
</g>
</svg>
