<?xml version="1.0" encoding="utf-8"?>
<!-- Generator: Adobe Illustrator 25.2.0, SVG Export Plug-In . SVG Version: 6.00 Build 0)  -->
<svg version="1.1" id="Ebene_1" xmlns="http://www.w3.org/2000/svg" xmlns:xlink="http://www.w3.org/1999/xlink" x="0px" y="0px"
	 viewBox="0 0 1024 1024" style="enable-background:new 0 0 1024 1024;" xml:space="preserve">
<style type="text/css">
	.st0{fill-rule:evenodd;clip-rule:evenodd;fill:#28497C;}
	.st1{fill-rule:evenodd;clip-rule:evenodd;fill:#D60000;}
	.st2{opacity:0.2;fill-rule:evenodd;clip-rule:evenodd;fill:#1D1D1B;}
	.st3{opacity:0.1;}
	.st4{clip-path:url(#SVGID_2_);fill-rule:evenodd;clip-rule:evenodd;fill:#1D1D1B;}
	.st5{opacity:0.2;}
	.st6{clip-path:url(#SVGID_6_);}
	.st7{fill-rule:evenodd;clip-rule:evenodd;fill:#1D1D1B;}
	.st8{fill-rule:evenodd;clip-rule:evenodd;fill:#FFFFFF;}
	.st9{clip-path:url(#SVGID_8_);fill-rule:evenodd;clip-rule:evenodd;fill:#ECECED;}
	.st10{clip-path:url(#SVGID_10_);fill-rule:evenodd;clip-rule:evenodd;fill:#ECECED;}
	.st11{opacity:0.1;fill-rule:evenodd;clip-rule:evenodd;fill:#1D1D1B;}
	.st12{clip-path:url(#SVGID_12_);fill-rule:evenodd;clip-rule:evenodd;fill:#1D1D1B;}
	.st13{clip-path:url(#SVGID_14_);fill-rule:evenodd;clip-rule:evenodd;fill:#1D1D1B;}
	.st14{fill-rule:evenodd;clip-rule:evenodd;fill:#ECECED;}
	.st15{clip-path:url(#SVGID_18_);fill-rule:evenodd;clip-rule:evenodd;fill:#D8D9DA;}
	.st16{clip-path:url(#SVGID_20_);}
	.st17{fill-rule:evenodd;clip-rule:evenodd;fill:#B0B2B3;}
	.st18{clip-path:url(#SVGID_22_);fill-rule:evenodd;clip-rule:evenodd;fill:#D8D9DA;}
	.st19{clip-path:url(#SVGID_24_);fill-rule:evenodd;clip-rule:evenodd;fill:#D8D9DA;}
	.st20{clip-path:url(#SVGID_26_);fill-rule:evenodd;clip-rule:evenodd;fill:#1A171B;}
	.st21{clip-path:url(#SVGID_28_);fill-rule:evenodd;clip-rule:evenodd;fill:#1A171B;}
	.st22{fill:#24437C;}
	.st23{fill:#FFFFFF;}
	.st24{fill:#28497C;}
	.st25{fill:#D60000;}
	.st26{opacity:0.2;fill:#1D1D1B;}
	.st27{fill:#1D1D1B;}
	.st28{opacity:0.2;fill:#FFFFFF;}
	.st29{fill:#3C444E;}
</style>
<g>
	<path class="st0" d="M444.6,622.4c5.4-18.2,104.3,25.5,75.2,176.6c-21.6,112.5-31,195.1-46.6,195.1c-21,0-128.3-85.9-166.3-159.6
		c-59.2-114.8,17.3-199.9,31.3-188.4c23.5,19.3-63.7,62.9,10.5,121.3c58,45.7,48.1,46.2,69.1,67.1c24.3,24.2-1.7-50.8,35.8-96.1
		C514.5,664.7,436.3,650.3,444.6,622.4z"/>
	<path class="st0" d="M557.4,614.5c-10.2-16.1-93.3,53.1-24,190.5c51.6,102.2,83.3,179.2,98.3,174.9
		c20.2-5.8,99.8-117.8,116.2-199.1c25.5-126.6-71.4-187.5-81.7-172.6c-17.3,25,78.5,43.1,23.2,119.6c-43.3,59.8-33.6,57.6-48.1,83.4
		c-16.7,29.9-12.3-49.3-60.8-82.7C501.8,674.4,573.1,639.1,557.4,614.5z"/>
	<g>
		<path class="st0" d="M455.7,30c-108.8,6-190.9,120.4-183.4,255.5c7.5,135.1,101.8,239.7,210.6,233.6
			c108.8-6.1,191-120.5,183.4-255.5C658.9,128.6,564.6,24,455.7,30z M319.4,282.9C313.7,180.2,376.2,93.1,459,88.5
			c82.8-4.6,154.6,75,160.3,177.8C625,369,325.1,385.7,319.4,282.9z"/>
		<path class="st0" d="M289.6,568c-27-99.3-15.1-189,26.6-200.3c41.6-11.3,97.2,60.1,124.2,159.4C467.3,626.5,316.6,667.4,289.6,568
			z"/>
		<path class="st0" d="M535.3,510.8c17.3-101.5,65.8-177.8,108.3-170.6c42.5,7.2,63,95.4,45.7,196.9
			C672,638.5,518,612.3,535.3,510.8z"/>
		<path class="st0" d="M445.4,165.7c1.3,19.6-6.3,36-16.9,36.7c-10.6,0.7-20.2-14.6-21.5-34.1c-1.3-19.5,6.3-36,16.9-36.7
			C434.5,130.8,444.1,146.1,445.4,165.7z"/>
		<path class="st0" d="M507.4,161.6c1.3,19.6-6.3,36-16.9,36.7c-10.6,0.7-20.2-14.6-21.5-34.1c-1.3-19.5,6.3-36,16.9-36.7
			C496.5,126.8,506.1,142.1,507.4,161.6z"/>
	</g>
</g>
</svg>
