<svg version="1.1" id="Ebene_1" xmlns="http://www.w3.org/2000/svg" x="0" y="0" viewBox="0 0 1024 1024" xml:space="preserve"><style>.st23{fill:#fff}.st24{fill:#28497c}</style><path id="rect909_10_" transform="rotate(-68.783 536.766 211.63)" class="st24" d="M484.2 198.5h105.1v26.3H484.2z"/><path class="st24" d="M725.2 290.3H595.9c-4.5-26.9-49.7-48.1-104.7-48.1S391 263.3 386.5 290.3H257.1c-73.8.1-133.6 59.9-133.7 133.7v261c.1 73.8 59.9 133.5 133.7 133.7h10.4c-5.1 21.3-17.2 44.7-43.8 68.9L140.9 962l110.2-16.9c124.8-19.8 202-95 229.7-126.5h244.5c73.8-.1 133.6-59.9 133.7-133.7V424c-.1-73.8-59.9-133.6-133.8-133.7zM675.1 610H307.3c-58 0-105.1-47-105.1-105.1s47-105.1 105.1-105.1h367.8c58 0 105.1 47 105.1 105.1S733.1 610 675.1 610z"/><ellipse id="path911_10_" transform="rotate(-68.783 567.456 137.275)" class="st24" cx="567.5" cy="137.3" rx="52.5" ry="68.3"/><g id="g836_15_" transform="translate(.425)"><circle id="path851_15_" class="st23" cx="580.8" cy="704.6" r="21"/><circle id="path851-6_10_" class="st23" cx="633.3" cy="704.6" r="21"/><circle id="path851-7_10_" class="st23" cx="528.3" cy="704.6" r="21"/></g><ellipse id="path877-7_10_" class="st24" cx="123.5" cy="541.7" rx="52.5" ry="105.1"/><ellipse id="path877-7-5_10_" class="st24" cx="859" cy="541.7" rx="52.5" ry="105.1"/><path class="st24" d="M491.8 440.2c-42.1 0-76.2 34.1-76.2 76.2s34.1 76.2 76.2 76.2 76.2-34.1 76.2-76.2-34.1-76.2-76.2-76.2zm-.9 125.3h-.1c-7.2 0-12.1-5.4-12.1-12.6 0-7.4 5.1-12.5 12.3-12.5 7.5 0 12.3 5.1 12.4 12.5 0 7.2-5 12.6-12.5 12.6zm16.8-51.5c-5.1 5.6-7.2 11.1-7 17.3v2.5h-18.4l-.1-3.6c-.4-7.1 1.9-14.2 8.1-21.6 4.4-5.4 8-9.8 8-14.5 0-4.8-3.2-8-10.1-8.3-4.6 0-10.1 1.7-13.7 4.1l-4.7-15c5.1-2.9 13.3-5.7 23.1-5.7 18.2 0 26.5 10.1 26.5 21.5 0 10.6-6.5 17.5-11.7 23.3zm163.4-73.8c-42.1 0-76.2 34.1-76.2 76.2s34.1 76.2 76.2 76.2 76.2-34.1 76.2-76.2c.1-42.1-34.1-76.2-76.2-76.2zm-.8 125.3h-.1c-7.2 0-12.1-5.4-12.1-12.6 0-7.4 5.1-12.5 12.3-12.5 7.5 0 12.3 5.1 12.4 12.5-.1 7.2-5.1 12.6-12.5 12.6zM687 514c-5.1 5.6-7.2 11.1-7 17.3v2.5h-18.4l-.1-3.6c-.4-7.1 1.9-14.2 8.1-21.6 4.4-5.4 8-9.8 8-14.5 0-4.8-3.2-8-10.1-8.3-4.6 0-10.1 1.7-13.7 4.1l-4.7-15c5.1-2.9 13.3-5.7 23.1-5.7 18.2 0 26.5 10.1 26.5 21.5 0 10.6-6.4 17.5-11.7 23.3z"/></svg>