<svg width="16" height="16" xmlns="http://www.w3.org/2000/svg" viewBox="0 0 16 16" shape-rendering="geometricPrecision" fill="#6e6e6e"><defs><mask id="a"><rect fill="#fff" width="100%" height="100%"/><path d="M16.451 1.534a1.141 1.141 0 00-.288-1.066l-.58-.581a1.116 1.116 0 00-1.065-.29 1.127 1.127 0 00-.962-.551h-.819c-.41 0-.77.223-.964.554-.38-.106-.813.038-1.062.288l-.576.579a1.116 1.116 0 00-.292 1.067c-.329.194-.55.553-.55.962v.821c0 .408.221.766.548.96a1.14 1.14 0 00-.035.285c.002.263.14.595.325.781l.58.581c.248.248.68.393 1.062.287.194.332.555.555.963.555h.82c.298 0 .588-.121.796-.333a1.02 1.02 0 00.158-.216c.098.025.201.031.3.036.26-.004.588-.144.771-.328l.57-.572c.215-.21.337-.503.335-.803 0-.085-.016-.178-.042-.271.333-.193.556-.552.556-.964v-.821c0-.408-.221-.766-.549-.96z" fill="#000"/></mask></defs><path d="M15.884 2.379h-.177v-.003a.523.523 0 01-.5-.325.531.531 0 01.122-.586l.126-.126a.12.12 0 000-.165l-.579-.58a.117.117 0 00-.166 0l-.125.125A.525.525 0 0114 .841a.532.532 0 01-.326-.501l-.001-.177a.117.117 0 00-.117-.117h-.819a.117.117 0 00-.116.117v.178a.53.53 0 01-.911.379l-.126-.126a.118.118 0 00-.165 0l-.578.581a.116.116 0 000 .164l.123.127a.532.532 0 01.124.586.523.523 0 01-.499.325l-.178.003a.117.117 0 00-.117.117v.821c0 .063.052.116.117.116h.178l-.002.002a.524.524 0 01.501.325.53.53 0 01-.123.585v.001l-.125.127a.117.117 0 000 .163l.579.58a.116.116 0 00.165 0l.127-.124a.53.53 0 01.585-.123c.207.088.331.29.326.502l.002.177h-.002a.117.117 0 00.116.117h.82a.117.117 0 00.117-.117h-.001l.001-.177a.529.529 0 01.911-.379l.124.126a.116.116 0 00.165 0l.58-.58a.114.114 0 000-.163l-.125-.129a.53.53 0 01.378-.911l.177-.004A.117.117 0 0016 3.315v-.821a.117.117 0 00-.116-.115zM13.146 3.91a1.002 1.002 0 01-1.001-1.004c0-.555.448-1.005 1.001-1.005a1.004 1.004 0 010 2.009z" fill="#cb1800"/><path d="M14.625 6.406c-.281-.844-3.277.058-5.172.453-.673.141.552-1.619 1.235-2.89.398-.742-.031-1-2.375-1.031C5.969 2.906 1.489 4.244 1.062 7.5c-.438 3.344 2.625 6.031 7.594 5.344 5.95-.823 6.164-5.853 5.969-6.438zm-12.109.453a.922.922 0 111.845 0 .922.922 0 01-1.845 0zm1.375 4.004a1.03 1.03 0 110-2.062 1.03 1.03 0 010 2.062zm1.031-5.832a.75.75 0 111.5 0 .75.75 0 01-1.5 0zm2.328 6.998a1.174 1.174 0 11-.267-2.334 1.174 1.174 0 01.267 2.334zm3.246-.563a1.174 1.174 0 11-.267-2.334 1.174 1.174 0 01.267 2.334zm2.146-2.242a.803.803 0 11-.18-1.596.803.803 0 01.18 1.596z" mask="url(#a)"/></svg>