<svg width="16" height="16" xmlns="http://www.w3.org/2000/svg" viewBox="0 0 16 16" shape-rendering="geometricPrecision" fill="#ffad00"><defs><mask id="a"><rect fill="#fff" width="100%" height="100%"/><path d="M12.997.858a4.809 4.809 0 00-4.253 2.563 4.81 4.81 0 008.506 0A4.812 4.812 0 0012.997.858z" fill="#000"/></mask></defs><path d="M12.997 1.611a3.394 3.394 0 00-3.003 1.81 3.397 3.397 0 006.006 0 3.398 3.398 0 00-3.003-1.81zm-.001 3.396a1.587 1.587 0 110-3.174 1.587 1.587 0 010 3.174z" fill="#cb1800"/><g mask="url(#a)"><path d="M7.999.97a7.03 7.03 0 000 14.06 7.03 7.03 0 100-14.06zm0 12.638a5.616 5.616 0 01-5.607-5.605 5.616 5.616 0 015.607-5.611 5.617 5.617 0 015.609 5.611 5.615 5.615 0 01-5.609 5.605z"/><path d="M7.999 11.927a3.933 3.933 0 01-3.926-3.925 3.933 3.933 0 013.926-3.929 3.934 3.934 0 013.927 3.929 3.933 3.933 0 01-3.927 3.925z"/></g></svg>