<svg width="16" height="16" xmlns="http://www.w3.org/2000/svg" viewBox="0 0 16 16" shape-rendering="geometricPrecision" fill="#ffad00"><defs><mask id="a"><rect fill="#fff" width="100%" height="100%"/><path d="M12.997.858a4.809 4.809 0 00-4.253 2.563 4.81 4.81 0 008.506 0A4.812 4.812 0 0012.997.858z" fill="#000"/></mask></defs><path d="M12.997 1.611a3.394 3.394 0 00-3.003 1.81 3.397 3.397 0 006.006 0 3.398 3.398 0 00-3.003-1.81zm-.001 3.396a1.587 1.587 0 110-3.174 1.587 1.587 0 010 3.174z" fill="#cb1800"/><g mask="url(#a)"><path d="M8 3.181a9.045 9.045 0 00-8 4.82 9.05 9.05 0 1016 0 9.049 9.049 0 00-8-4.82zm-.002 9.047a4.23 4.23 0 01-4.229-4.227 4.23 4.23 0 018.459 0 4.228 4.228 0 01-4.23 4.227z"/><circle cx="8.011" cy="8.096" r="2.165"/></g></svg>