<svg width="16" height="16" xmlns="http://www.w3.org/2000/svg" shape-rendering="geometricPrecision" fill="#24437c"><defs><mask id="a"><rect fill="#fff" width="100%" height="100%"/><path fill="#000" d="M14.934-.397l-2.039 2.036-2.037-2.036-2.472 2.47 4.511 4.51 4.507-4.51z"/></mask></defs><path fill="#cb1800" d="M12.895 3.052l-2.037-2.035L9.8 2.073l3.097 3.096 3.093-3.096-1.057-1.056z"/><g mask="url(#a)"><path d="M4.275.072v7.41h7.37V.072zm3.707.88c.96-.04.96 1.42 0 1.38-.88-.038-.88-1.342 0-1.38zM6.596 3.039h2.066v2.617h.68v.686H6.594v-.686h.68V3.552h-.678zM-.002 8.83V16H16V8.84zm1.088 1.008l13.826.006v5.151H1.086z"/><path d="M2.964 11v1h10v-.999zm0 2v1h10v-.999z"/></g></svg>