<svg width="16" height="16" xmlns="http://www.w3.org/2000/svg" viewBox="0 0 16 16" shape-rendering="geometricPrecision"><defs><mask id="a"><rect fill="#fff" width="100%" height="100%"/><path d="M12.997.858a4.809 4.809 0 00-4.253 2.563 4.81 4.81 0 008.506 0A4.812 4.812 0 0012.997.858z"/></mask></defs><path d="M12.971 1.607c-1.315 0-2.454.74-3.029 1.825a3.425 3.425 0 006.058 0 3.43 3.43 0 00-3.029-1.825z" fill="#cb1800"/><g mask="url(#a)"><path d="M8 1.001a7 7 0 10.003 14 7 7 0 00-.003-14zm4.016 8.024H9.023l.002 2.943-2.048.001.001-2.943H3.984l-.001-2.05h2.994V4l2.047-.001v2.976l2.993.001-.001 2.049z"/></g></svg>