<svg width="16" height="16" xmlns="http://www.w3.org/2000/svg" viewBox="0 0 16 16" shape-rendering="geometricPrecision"><defs><mask id="a"><rect fill="#fff" width="100%" height="100%"/><path d="M12.997.858a4.809 4.809 0 00-4.253 2.563 4.81 4.81 0 008.506 0A4.812 4.812 0 0012.997.858z"/></mask></defs><path d="M12.971 1.607c-1.315 0-2.454.74-3.029 1.825a3.425 3.425 0 006.058 0 3.43 3.43 0 00-3.029-1.825z" fill="#cb1800"/><g mask="url(#a)"><path d="M8 1.001a7 7 0 10.003 14 7 7 0 00-.003-14zm.127 2.279c.554 0 1 .458 1 1.024a1.01 1.01 0 01-1 1.021 1.012 1.012 0 01-1.001-1.021c0-.566.448-1.024 1.001-1.024zm1.974 8.948H6.115v-1.015h.986V7.136h-.983v-.761h2.996v4.839h.987v1.014z"/></g></svg>