<svg width="16" height="16" xmlns="http://www.w3.org/2000/svg" viewBox="0 0 16 16" shape-rendering="geometricPrecision" fill="#24437c"><defs><mask id="a"><rect fill="#fff" width="100%" height="100%"/><path d="M16.451 1.534a1.141 1.141 0 00-.288-1.066l-.58-.581a1.116 1.116 0 00-1.065-.29 1.127 1.127 0 00-.962-.551h-.819c-.41 0-.77.223-.964.554-.38-.106-.813.038-1.062.288l-.576.579a1.116 1.116 0 00-.292 1.067c-.329.194-.55.553-.55.962v.821c0 .408.221.766.548.96a1.14 1.14 0 00-.035.285c.002.263.14.595.325.781l.58.581c.248.248.68.393 1.062.287.194.332.555.555.963.555h.82c.298 0 .588-.121.796-.333a1.02 1.02 0 00.158-.216c.098.025.201.031.3.036.26-.004.588-.144.771-.328l.57-.572c.215-.21.337-.503.335-.803 0-.085-.016-.178-.042-.271.333-.193.556-.552.556-.964v-.821c0-.408-.221-.766-.549-.96z" fill="#000"/></mask></defs><path d="M15.884 2.379h-.177v-.003a.523.523 0 01-.5-.325.531.531 0 01.122-.586l.126-.126a.12.12 0 000-.165l-.579-.58a.117.117 0 00-.166 0l-.125.125A.525.525 0 0114 .841a.532.532 0 01-.326-.501l-.001-.177a.117.117 0 00-.117-.117h-.819a.117.117 0 00-.116.117v.178a.53.53 0 01-.911.379l-.126-.126a.118.118 0 00-.165 0l-.578.581a.116.116 0 000 .164l.123.127a.532.532 0 01.124.586.523.523 0 01-.499.325l-.178.003a.117.117 0 00-.117.117v.821c0 .063.052.116.117.116h.178l-.002.002a.524.524 0 01.501.325.53.53 0 01-.123.585v.001l-.125.127a.117.117 0 000 .163l.579.58a.116.116 0 00.165 0l.127-.124a.53.53 0 01.585-.123c.207.088.331.29.326.502l.002.177h-.002a.117.117 0 00.116.117h.82a.117.117 0 00.117-.117h-.001l.001-.177a.529.529 0 01.911-.379l.124.126a.116.116 0 00.165 0l.58-.58a.114.114 0 000-.163l-.125-.129a.53.53 0 01.378-.911l.177-.004A.117.117 0 0016 3.315v-.821a.117.117 0 00-.116-.115zM13.146 3.91a1.002 1.002 0 01-1.001-1.004c0-.555.448-1.005 1.001-1.005a1.004 1.004 0 010 2.009z" fill="#cb1800"/><g mask="url(#a)"><path d="M14.186 9.847c0 .756-.626 1.381-1.381 1.384h-5.68l-.204.271c-.036.055-.853 1.103-2.306 1.798a3.69 3.69 0 00.225-1.289c0-.027 0-.066-.002-.119l-.018-.662H3.195a1.395 1.395 0 01-1.381-1.384V4.489c0-.759.626-1.382 1.381-1.384h9.61a1.392 1.392 0 011.381 1.384v5.358z"/><path d="M12.455 2.215h-8.91A2.546 2.546 0 001.001 4.76v4.968a2.549 2.549 0 002.544 2.544h.198c-.097.406-.327.851-.833 1.312L1.333 15l2.097-.321c2.375-.376 3.844-1.808 4.372-2.407h4.654A2.547 2.547 0 0015 9.728V4.76a2.547 2.547 0 00-2.545-2.545zm1.28 7.513c0 .7-.58 1.28-1.28 1.281H7.189L7 11.262c-.033.05-.79 1.021-2.137 1.666a3.46 3.46 0 00.208-1.194l-.001-.11-.018-.614H3.545a1.29 1.29 0 01-1.28-1.281V4.76c0-.703.58-1.28 1.28-1.282h8.909c.7.002 1.28.579 1.28 1.282v4.968z"/></g></svg>