<svg id="icons" xmlns="http://www.w3.org/2000/svg" viewBox="0 0 54 54"><defs><style>.cls-1{fill:#000000;}</style></defs><g id="block-eyecatcher"><g id="visibility-visible"><path class="cls-1" d="M27,17A20.39,20.39,0,0,1,44.57,27,20.39,20.39,0,0,1,9.43,27,20.35,20.35,0,0,1,27,17m0-3A23.36,23.36,0,0,0,6.31,26.42L6,27l.3.58a23.4,23.4,0,0,0,41.37,0L48,27l-.31-.57A23.36,23.36,0,0,0,27,14Z"/><path class="cls-1" d="M27,19.08a7.9,7.9,0,0,0-2.19.35,3.6,3.6,0,0,1,1.58,2.93A3.67,3.67,0,0,1,22.72,26a3.6,3.6,0,0,1-3.1-1.83A7.9,7.9,0,1,0,27,19.08Z"/></g><rect class="cls-1" x="6" y="5.91" width="9" height="3"/><rect class="cls-1" x="6" y="5.91" width="3" height="9"/><rect class="cls-1" x="38.99" y="5.91" width="9" height="3"/><rect class="cls-1" x="44.99" y="8.91" width="3" height="6"/><rect class="cls-1" x="44.99" y="38.89" width="3" height="9"/><rect class="cls-1" x="38.99" y="44.89" width="9" height="3"/><rect class="cls-1" x="6" y="38.89" width="3" height="9"/><rect class="cls-1" x="6" y="44.89" width="9" height="3"/></g></svg>