<svg xmlns="http://www.w3.org/2000/svg" viewBox="0 0 14 11"><g id="Ebene_2" data-name="Ebene 2"><g id="icons"><g id="block-gallery"><path d="M13,1V3H11V1h2m1-1H10V4h4V0Z"/><path d="M13,6V8H11V6h2m1-1H10V9h4V5Z"/><path d="M8,1V3H6V1H8M9,0H5V4H9V0Z"/><path d="M8,6V8H6V6H8M9,5H5V9H9V5Z"/><path d="M3,1V3H1V1H3M4,0H0V4H4V0Z"/><path d="M3,6V8H1V6H3M4,5H0V9H4V5Z"/><polygon points="5.5 10 4.5 10 4.5 11 5.5 11 5.5 10 5.5 10"/><polygon points="7.5 10 6.5 10 6.5 11 7.5 11 7.5 10 7.5 10"/><polygon points="9.5 10 8.5 10 8.5 11 9.5 11 9.5 10 9.5 10"/></g></g></g></svg>