<svg xmlns="http://www.w3.org/2000/svg" viewBox="0 0 15.99 15"><g data-name="Ebene 2"><path d="M8 15a8.9 8.9 0 01-7.88-4.75L0 10l.12-.22a8.91 8.91 0 0115.76 0L16 10l-.11.22A8.92 8.92 0 018 15zm-6.94-5a8 8 0 0013.87 0 8 8 0 00-13.87 0z"/><path d="M8 7a3 3 0 00-.84.13 1.36 1.36 0 01.6 1.12 1.39 1.39 0 01-1.39 1.41A1.36 1.36 0 015.19 9 2.86 2.86 0 005 10a3 3 0 103-3zm1-5.67A5.25 5.25 0 018 4a5.25 5.25 0 01-1-2.67C7 .6 7.44 0 8 0s1 .6 1 1.33zM4.71 2a5.33 5.33 0 010 2.85 5.22 5.22 0 01-1.88-2.13 1.21 1.21 0 01.48-1.6 1.21 1.21 0 011.4.88zm8.45.72a5.22 5.22 0 01-1.85 2.16 5.33 5.33 0 010-2.85c.26-.69.88-1.1 1.4-.91a1.2 1.2 0 01.45 1.6z"/></g></svg>