<svg xmlns="http://www.w3.org/2000/svg" viewBox="0 0 14 14"><g data-name="Ebene 2"><path d="M7 3.68A6.82 6.82 0 0112.86 7 6.8 6.8 0 011.14 7 6.8 6.8 0 017 3.68m0-1A7.8 7.8 0 00.1 6.84L0 7l.1.19a7.79 7.79 0 0013.79 0L14 7l-.11-.19A7.8 7.8 0 007 2.68z"/><path d="M7 4.39a2.48 2.48 0 00-.73.12 1.2 1.2 0 01.52 1 1.22 1.22 0 01-1.22 1.2 1.19 1.19 0 01-1-.61 2.61 2.61 0 00-.21.9A2.64 2.64 0 107 4.39zM0 0h3v1H0z"/><path d="M0 0h1v3H0zm11 0h3v1h-3zm2 1h1v2h-1zm0 10h1v3h-1z"/><path d="M11 13h3v1h-3zM0 11h1v3H0z"/><path d="M0 13h3v1H0z"/></g></svg>