<svg xmlns="http://www.w3.org/2000/svg" viewBox="0 0 14 12.75"><g id="Ebene_2" data-name="Ebene 2"><g id="icons"><g id="block-canvas"><path d="M14,0H0V10H10.35c.83,1.51,1.67,2.87,2,2.75s0-1.33-.37-2.75H14ZM13,9H11.65c-.54-1.85-1.18-3.7-1.18-3.7a1.13,1.13,0,1,0-2.09.84S9,7.51,9.82,9H1V1H13Z"/><path d="M7.43,2.67a1.06,1.06,0,0,1,.16.9s0,0,0,0a1,1,0,0,0,0,.24.83.83,0,0,0,1.6-.44,2.45,2.45,0,0,0-.91-1.22c-.61-.43-1.61-.35-1.62-.1S7.1,2.28,7.43,2.67Z"/><path d="M3.44,5.08c.28,0,.48-.45.44-1s-.29-.9-.56-.88-.48.45-.44,1S3.17,5.1,3.44,5.08Z"/><path d="M5.17,4c.22-.11.22-.56,0-1s-.56-.72-.78-.62-.23.55,0,1S5,4.09,5.17,4Z"/><path d="M3.16,7.59a3.14,3.14,0,0,0,2.1.08,2.86,2.86,0,0,0,2-3.31A3.8,3.8,0,0,1,5,6.72a3.39,3.39,0,0,1-1.59.11,5.38,5.38,0,0,1-1.7-.56A2.85,2.85,0,0,0,3.16,7.59Z"/></g></g></g></svg>