<svg id="icons" xmlns="http://www.w3.org/2000/svg" viewBox="0 0 54 54" fill="#000000"><path id="cloud" d="M33.61,16.51a8.1,8.1,0,0,1,8.15,7.94l.06,2.31,2.23.54a5.15,5.15,0,0,1,3.94,5v.17a5.17,5.17,0,0,1-5.15,5H12.08a6.08,6.08,0,0,1,0-12.16,6.9,6.9,0,0,1,1.09.1l4.11.74L16.68,22a2.32,2.32,0,0,1,0-.46,3.26,3.26,0,0,1,5.84-2l2.35,3,2.39-3a8.1,8.1,0,0,1,6.39-3.1m0-3a11.14,11.14,0,0,0-8.76,4.25,6.26,6.26,0,0,0-11.21,3.83,6.44,6.44,0,0,0,.06.89,9.66,9.66,0,0,0-1.62-.14,9.09,9.09,0,0,0,0,18.17H42.84A8.18,8.18,0,0,0,51,32.32h0a8.17,8.17,0,0,0-6.24-7.94A11.16,11.16,0,0,0,33.61,13.5Z"/></svg>
