<svg xmlns="http://www.w3.org/2000/svg" viewBox="-3 -1 16 16"><g id="Ebene_2" data-name="Ebene 2"><g id="docs"><g id="file-archive"><rect x="5" y="4" width="1" height="1"/><rect x="5" y="6" width="1" height="1"/><rect x="4" y="7" width="1" height="1"/><rect x="5" y="8" width="1" height="1"/><rect x="4" y="9" width="1" height="1"/><rect x="4" y="11" width="1" height="1"/><path d="M0,0V14H6.2a2,2,0,0,0,1.43-.6l1.79-1.82A2,2,0,0,0,10,10.17V0ZM4,2.23A.47.47,0,0,1,4.41,2h.07a.49.49,0,0,1,.17.06.49.49,0,0,1,.17.66A.48.48,0,0,1,4,2.23ZM7,12.57V11H8.55ZM9,9a1,1,0,0,1-1,1H6v2a1,1,0,0,1-1,1H1V1H4v.69a.84.84,0,0,0-.23.18h0L2.58,3.25h0a1,1,0,0,0-.12.16A1.18,1.18,0,0,0,2.87,5,1.14,1.14,0,0,0,4,5.06V6H5V5H4.13a1.06,1.06,0,0,0,.36-.37.66.66,0,0,0,.09-.19h0L4.75,4H5V3.35L5.13,3H6V1H9Z"/></g></g></g></svg>