<svg xmlns="http://www.w3.org/2000/svg" viewBox="0 0 54 54"><defs><style>.cls-1{fill:#000000;}</style></defs><g id="docs"><g id="file-text"><rect class="cls-1" x="18" y="11.97" width="9" height="9"/><rect class="cls-1" x="30" y="11.97" width="6" height="3"/><rect class="cls-1" x="30" y="17.97" width="6" height="3"/><rect class="cls-1" x="18" y="23.97" width="18" height="3"/><rect class="cls-1" x="18" y="29.97" width="18" height="3"/><path class="cls-1" d="M12,6V48H30.6a6,6,0,0,0,4.28-1.79l5.39-5.48A6,6,0,0,0,42,36.49V6ZM33,43.68V39h4.64ZM38.91,33a3,3,0,0,1-3,3H30v5.91a3,3,0,0,1-3,3H15.09V9.06H38.91Z"/></g></g></svg>