<svg xmlns="http://www.w3.org/2000/svg" viewBox="0 0 54 54"><defs><style>.a{fill:#000000;}</style></defs><path class="a" d="M10,3V51H32.6a6,6,0,0,0,4.28-1.79l5.39-5.48A6,6,0,0,0,44,39.49V3Zm3.09,3.09H40.91V36a3,3,0,0,1-3,3H32v5.91a3,3,0,0,1-3,3H13.09ZM35,46.68V42h4.64Z"/><polygon class="a" points="19.14 17.91 16 17.91 16 24.19 19.14 24.19 23.86 27.34 25.43 27.34 25.43 14.76 23.86 14.76 19.14 17.91"/><path class="a" d="M29.73,13.68l-2.06,2.06a7.4,7.4,0,0,1,0,10.46l2.06,2.06A10.3,10.3,0,0,0,29.73,13.68Z"/><path class="a" d="M33.44,10,31.38,12a12.63,12.63,0,0,1,0,17.88L33.44,32A15.55,15.55,0,0,0,33.44,10Z"/></svg>