<svg xmlns="http://www.w3.org/2000/svg" viewBox="-3 -1 16 16"><defs><style>.cls-1{fill-rule:evenodd;}</style></defs><g id="Ebene_2" data-name="Ebene 2"><g id="docs"><g id="file-pdf"><path class="cls-1" d="M6.55,5.89c.6.48,1.09.28,1,.19A1,1,0,0,0,6.55,5.89Zm.78-.27A2.33,2.33,0,0,0,6,5.65,2.16,2.16,0,0,1,4.72,4.21c-.5-1.58,0-2.09,0-1.1l.1.67A2.44,2.44,0,0,0,5,2.33c-.2-.54-.76-.46-.79.53a5.74,5.74,0,0,0,.17,1.49A14.19,14.19,0,0,1,3.08,7.08c-.75,1.16-.8.77-.61.38a4.77,4.77,0,0,1,.7-.9,1.46,1.46,0,0,0-1,.81c-.28.47-.31,1.66.88.37a5.57,5.57,0,0,0,.72-1.11A12.63,12.63,0,0,1,6.1,6a3.21,3.21,0,0,0,1,.46C7.84,6.63,8.57,6.05,7.33,5.62ZM4,6.13l.6-1.38a1.87,1.87,0,0,0,1,1C5.27,5.8,4,6.13,4,6.13Z"/><path d="M0,0V14H6.2a2,2,0,0,0,1.43-.6l1.79-1.82A2,2,0,0,0,10,10.17V0ZM1,1H9V9a1,1,0,0,1-1,1H6v2a1,1,0,0,1-1,1H1ZM7,12.57V11H8.55Z"/></g></g></g></svg>
