<svg xmlns="http://www.w3.org/2000/svg" viewBox="0 0 54 54"><defs><style>.cls-1{fill:#000000;}</style></defs><g id="docs"><g id="file-video"><path class="cls-1" d="M12,6V48H30.6a6,6,0,0,0,4.28-1.79l5.39-5.48A6,6,0,0,0,42,36.49V6Zm3.09,3.09H38.91V33a3,3,0,0,1-3,3H30v5.91a3,3,0,0,1-3,3H15.09ZM33,43.68V39h4.64Z"/><path class="cls-1" d="M34.87,16.42,31.5,18.67v-2a1.38,1.38,0,0,0-1.38-1.38H19.38A1.38,1.38,0,0,0,18,16.67v8.49a1.38,1.38,0,0,0,1.38,1.38H30.12a1.38,1.38,0,0,0,1.38-1.38v-2l3.37,2.25H36v-9Zm-4.63,8.74a.12.12,0,0,1-.12.12H19.38a.12.12,0,0,1-.12-.12V16.67a.12.12,0,0,1,.12-.12H30.12a.12.12,0,0,1,.12.12Z"/><polygon class="cls-1" points="22.5 24.29 27.56 20.92 22.5 17.54 22.5 24.29"/></g></g></svg>