<svg xmlns="http://www.w3.org/2000/svg" viewBox="-1 -2 16 16"><g id="Ebene_2" data-name="Ebene 2"><g id="folder"><g id="folder-group-empty"><path d="M7,1V1A1,1,0,0,0,6,0H3A1,1,0,0,0,2,1V1H0V11H14V1Zm6,9H1V2H13Z"/><g id="group2"><path d="M4.86,5.7A.86.86,0,1,0,4,4.84.85.85,0,0,0,4.86,5.7Z"/><path d="M5.26,6.11H4.47a.83.83,0,0,0-.82.83V8H6.08V6.94A.83.83,0,0,0,5.26,6.11Z"/><path d="M9.14,6.72a.86.86,0,1,0-.86-.86A.86.86,0,0,0,9.14,6.72Z"/><path d="M9.53,7.12H8.74A.83.83,0,0,0,7.92,8V9h2.43V8A.83.83,0,0,0,9.53,7.12Z"/><path d="M6.76,4.75a.86.86,0,1,0-.85-.86A.85.85,0,0,0,6.76,4.75Z"/><path d="M8,7.06V6a.83.83,0,0,0-.83-.82H6.37A.82.82,0,0,0,5.55,6a1,1,0,0,1,.74,1v.12Z"/></g></g></g></g></svg>