<svg xmlns="http://www.w3.org/2000/svg" shape-rendering="geometricPrecision" height="16" width="16"><path d="M13.125 5.495v8h-12v-8h12m1-1h-14v10h14v-10z"/><path d="M7.175 2.995l-.299-1.49h-4l-.3 1.49H1.375v1h13.5v9.5l1-1v-9.5z"/><path d="M7.276 6.36a3.135 3.135 0 000 6.27 3.135 3.135 0 100-6.27zM7.5 8.671c.22-.008.446-.028.667-.055.019.203.03.422.037.655H7.5zm0-.446v-1.22c.133.012.262.036.389.068.06.2.155.58.228 1.1a7.945 7.945 0 01-.617.053zm-.446 0a8.02 8.02 0 01-.612-.054 7.32 7.32 0 01.23-1.101 2.462 2.462 0 01.382-.066zm0 .446v.6h-.697c.006-.235.017-.454.036-.657.222.027.446.048.66.057zm-1.143.6H4.787a2.49 2.49 0 01.254-.891c.225.049.549.114.909.172a10.975 10.975 0 00-.039.719zm0 .446c.005.272.018.526.04.76-.353.057-.667.12-.89.17a2.485 2.485 0 01-.274-.93zm.445 0h.698v.645a8.508 8.508 0 00-.66.054 9.893 9.893 0 01-.038-.7zm.698 1.092v1.174a2.515 2.515 0 01-.395-.069 7.928 7.928 0 01-.215-1.054c.204-.024.41-.043.61-.051zm.446 0c.2.01.41.029.618.055a7.465 7.465 0 01-.213 1.047 2.482 2.482 0 01-.405.072zm0-.446v-.646h.705c-.005.252-.018.487-.037.703a8.289 8.289 0 00-.668-.057zm1.151-.646h1.115a2.487 2.487 0 01-.274.932 16.657 16.657 0 00-.88-.166c.02-.235.034-.49.04-.766zm-.001-.446a10.599 10.599 0 00-.04-.717 15.232 15.232 0 00.903-.172 2.498 2.498 0 01.253.889H8.65zm.612-1.292a14.79 14.79 0 01-.703.131 8.82 8.82 0 00-.158-.847c.34.172.633.417.86.716zM6.157 7.26c-.053.218-.11.503-.157.847a17.022 17.022 0 01-.707-.13 2.515 2.515 0 01.864-.717zm-.836 3.788c.192-.04.427-.085.682-.126.044.32.096.588.146.8a2.504 2.504 0 01-.828-.674zm3.096.668c.05-.209.1-.473.144-.789.249.04.48.084.67.123a2.511 2.511 0 01-.814.666z"/></svg>