<svg xmlns="http://www.w3.org/2000/svg" viewBox="0 0 54 54"><defs><style>.a{fill:#000000;}</style></defs><path class="a" d="M32.5,43h-11a1.5,1.5,0,0,0,0,3h11a1.5,1.5,0,0,0,0-3Z"/><path class="a" d="M31.5,48h-9a1.5,1.5,0,0,0,0,3h9a1.5,1.5,0,0,0,0-3Z"/><path class="a" d="M25,3.08a17,17,0,0,0-6.95,31.37A2,2,0,0,1,19,36.13v3.34A1.5,1.5,0,0,0,20.5,41h13a1.5,1.5,0,0,0,1.5-1.5V36.12a2,2,0,0,1,.9-1.67A17,17,0,0,0,25,3.08ZM16.32,17.33A11.15,11.15,0,0,0,16,20a10.48,10.48,0,0,0,.25,2.31,1.51,1.51,0,0,1-1.15,1.79l-.32,0a1.51,1.51,0,0,1-1.47-1.18A14.63,14.63,0,0,1,13,20a14.11,14.11,0,0,1,.41-3.36,1.5,1.5,0,0,1,2.91.72ZM33.46,9.17a1.5,1.5,0,0,1-2,.75A11,11,0,0,0,18,13.66a1.49,1.49,0,0,1-1.23.64,1.5,1.5,0,0,1-1.23-2.36A14,14,0,0,1,32.7,7.18,1.51,1.51,0,0,1,33.46,9.17Z"/></svg>