<?xml version="1.0" encoding="UTF-8" standalone="no"?>
<!DOCTYPE svg PUBLIC "-//W3C//DTD SVG 1.1//EN" "http://www.w3.org/Graphics/SVG/1.1/DTD/svg11.dtd">
<svg width="100%" height="100%" viewBox="0 0 16 16" version="1.1" xmlns="http://www.w3.org/2000/svg" xmlns:xlink="http://www.w3.org/1999/xlink" xml:space="preserve" xmlns:serif="http://www.serif.com/" style="fill-rule:evenodd;clip-rule:evenodd;stroke-linejoin:round;stroke-miterlimit:2;">
    <g transform="matrix(1.24313,0,0,1.24583,-1.94504,-2.09016)">
        <path d="M13.031,11.953C13.031,11.953 12.14,11.953 12.015,11.147C11.828,9.95 11.354,6.605 11.354,6.605L11.347,6.605C11.114,5.288 10.124,4.226 8.826,3.901C8.828,3.88 8.838,3.862 8.838,3.841C8.838,3.374 8.453,2.989 7.986,2.989C7.519,2.989 7.134,3.374 7.134,3.841C7.134,3.865 7.146,3.885 7.148,3.909C5.862,4.241 4.884,5.298 4.653,6.606L4.646,6.606C4.646,6.606 4.145,9.958 3.983,11.163C3.877,11.954 2.969,11.954 2.969,11.954L2.969,12.985L5.103,12.985C5.302,13.583 5.859,14.016 6.523,14.016C7.187,14.016 7.745,13.582 7.943,12.985L13.03,12.985L13.03,11.953L13.031,11.953Z" style="fill:#000000;fill-rule:nonzero;"/>
    </g>
</svg>
