<svg id="icons" xmlns="http://www.w3.org/2000/svg" viewBox="0 0 54 54"><defs><style>.cls-1{fill:#000000;}</style></defs><g id="tools"><path class="cls-1" d="M49.32,40.2,37.15,28,28,37.15,40.18,49.31a6.47,6.47,0,0,0,9.14-9.11Z"/><path class="cls-1" d="M26.08,16.94A11.61,11.61,0,0,0,11.28,3.51l6.35,6.36-1.84,5.72L9.86,17.64,3.5,11.27A11.63,11.63,0,0,0,16.93,26.09Z"/><g id="Edit"><polygon class="cls-1" points="3.12 50.72 8.73 48.99 4.91 45.16 3.12 50.72"/><polygon class="cls-1" points="6.53 39.85 14.02 47.39 44.34 17.21 36.85 9.67 6.53 39.85"/><path class="cls-1" d="M49.44,4.65A5.31,5.31,0,0,0,42,4.6l-3,3,7.49,7.55,3-3h0A5.31,5.31,0,0,0,49.44,4.65Z"/></g></g></svg>