<svg id="plugins" xmlns="http://www.w3.org/2000/svg" viewBox="0 0 54 54" fill="#00962d"><g id="Aladin"><path d="M42.47,16.1c-1.55.43-4.35,1.35-6.93,2.23A21.09,21.09,0,0,0,30,16.92s0-.05,0-.07a3.33,3.33,0,1,0-6.65,0s0,0,0,.07a22.49,22.49,0,0,0-2.87.53,14.7,14.7,0,0,0-4.91-3.38c-5.27-2.28-10.74-1.39-12.2,2S5,24,10.26,26.31a35.56,35.56,0,0,0,8,2.84,23.17,23.17,0,0,0,6.35,1.3,9.28,9.28,0,0,1-2.07,4s0,0-.05.06c-3.71.52-6.31,1.72-6.31,3.11,0,1.87,4.66,3.39,10.42,3.39s10.41-1.52,10.41-3.39c0-1.39-2.6-2.59-6.31-3.11,0,0,0,0,0-.06a9.19,9.19,0,0,1-2.08-4,28.35,28.35,0,0,0,3.19-.4h.12l.8-.2c.53-.13,1-.26,1.51-.41.23-.07.45-.16.67-.24a12.62,12.62,0,0,0,1.23-.51,8.1,8.1,0,0,0,.78-.39c.32-.17.64-.36.94-.56s.33-.21.48-.32A33.85,33.85,0,0,0,43.8,22a22,22,0,0,1,7.14-5.32S47.67,14.65,42.47,16.1ZM6.09,17.24c1-2.25,4.83-2.74,8.62-1.1,2.26,1,1.68,1.32,2,2.62-2.5,1.25-4,3-4,4.87a3.63,3.63,0,0,0,.23,1.17,9.21,9.21,0,0,1-1.71-.53C7.4,22.64,5.11,19.48,6.09,17.24Z"/></g></svg>
