<svg xmlns="http://www.w3.org/2000/svg" viewBox="0 0 14 12" fill="#00962d"><defs><style>.cls-1{fill:#fff}</style></defs><g id="Ebene_2" data-name="Ebene 2"><g id="icons"><g id="block-tabs"><path class="cls-1" d="M.56.56v12h14v-12zm6 1h3v2h-3zm7 10h-12v-10h4v3h8zm0-8h-3v-2h3z" transform="translate(-.56 -.56)"/><path d="M14.56.56h-14v12h14v-12zm-4 3v-2h3v2zm-4 0v-2h3v2zm-5 8v-10h4v3h8v7z" transform="translate(-.56 -.56)"/><path class="cls-1" d="M2 6h10v1H2z"/><path d="M12 6H2v1h10V6z"/><path class="cls-1" d="M2 8h10v1H2z"/><path d="M12 8H2v1h10V8z"/></g></g></g></svg>