<svg xmlns="http://www.w3.org/2000/svg" viewBox="0 0 14 12.75" fill="#00962d"><g data-name="Ebene 2"><path d="M14 0H0v10h10.35c.83 1.51 1.67 2.87 2 2.75s0-1.33-.37-2.75H14zm-1 9h-1.35a90.94 90.94 0 00-1.18-3.7 1.13 1.13 0 10-2.09.84S9 7.51 9.82 9H1V1h12z"/><path d="M7.43 2.67a1.06 1.06 0 01.16.9 1 1 0 000 .24.83.83 0 001.6-.44 2.45 2.45 0 00-.91-1.22c-.61-.43-1.61-.35-1.62-.1s.44.23.77.62zM3.44 5.08c.28 0 .48-.45.44-1s-.29-.9-.56-.88-.48.45-.44 1 .29.9.56.88zM5.17 4c.22-.11.22-.56 0-1s-.56-.72-.78-.62-.23.55 0 1 .61.71.78.62zM3.16 7.59a3.14 3.14 0 002.1.08 2.86 2.86 0 002-3.31A3.8 3.8 0 015 6.72a3.39 3.39 0 01-1.59.11 5.38 5.38 0 01-1.7-.56 2.85 2.85 0 001.45 1.32z"/></g></svg>