<svg id="icons" xmlns="http://www.w3.org/2000/svg" viewBox="0 0 54 54"><defs><style>.cls-1{fill:#00962d;}</style></defs><g id="clipboard"><path class="cls-1" d="M30,23.9v24H9v-24H30m3-3H6v30H33v-30Z"/><polygon class="cls-1" points="47.98 5.91 15 5.91 15 8.91 44.99 8.91 44.99 38.9 47.98 38.9 47.98 5.91 47.98 5.91"/><polygon class="cls-1" points="26.99 14.91 26.99 17.9 33.71 17.9 23.87 27.74 25.99 29.86 35.99 19.86 35.99 26.9 38.99 26.9 38.99 14.91 26.99 14.91"/><rect class="cls-1" x="27" y="3.05" width="8.99" height="5.86"/><rect class="cls-1" x="10.5" y="10.41" width="11.99" height="3" transform="translate(28.41 -4.59) rotate(90)"/><rect class="cls-1" x="35.99" y="38.89" width="11.99" height="3"/></g></svg>