<svg xmlns="http://www.w3.org/2000/svg" viewBox="0 0 54 54"><defs><style>.cls-1{fill:#00962d;}</style></defs><g id="docs"><g id="file-office"><path class="cls-1" d="M35.82,21a2.39,2.39,0,0,0-3.62-3.12h0L31,19.31l3.61,3.12L35.82,21ZM20.52,35l2.45-1-1.84-1.59Zm1.15-5,3.62,3.13,8.42-9.76L30.09,20.3Z"/><rect class="cls-1" x="18" y="11.97" width="9" height="3"/><rect class="cls-1" x="18" y="17.97" width="9" height="3"/><path class="cls-1" d="M12,6V48H30.6a6,6,0,0,0,4.28-1.79l5.39-5.48A6,6,0,0,0,42,36.49V6Zm3.09,3.09H38.91V33a3,3,0,0,1-3,3H30v5.91a3,3,0,0,1-3,3H15.09ZM33,43.68V39h4.64Z"/></g></g></svg>