<svg xmlns="http://www.w3.org/2000/svg" viewBox="0 0 54 54"><defs><style>.cls-1,.cls-2{fill:#00962d;}.cls-1{fill-rule:evenodd;}</style></defs><g id="docs"><g id="file-pdf"><path class="cls-1" d="M31.66,23.64c1.8,1.43,3.25.84,3,.57C34.06,23.37,32.79,23.37,31.66,23.64Zm2.33-.8a7.11,7.11,0,0,0-4.1.07,6.41,6.41,0,0,1-3.72-4.3c-1.5-4.76,0-6.29.1-3.32l.3,2s1-2.52.36-4.36c-.58-1.6-2.26-1.36-2.36,1.6A17.44,17.44,0,0,0,25.09,19a43.37,43.37,0,0,1-3.86,8.18c-2.24,3.5-2.38,2.32-1.83,1.15a13.9,13.9,0,0,1,2.1-2.69,4.33,4.33,0,0,0-3,2.4c-.83,1.44-.93,5,2.63,1.14a17,17,0,0,0,2.17-3.34,37.88,37.88,0,0,1,7-1.86,9.38,9.38,0,0,0,3.06,1.37C35.51,25.87,37.72,24.11,34,22.84ZM23.87,24.35l1.8-4.14a5.45,5.45,0,0,0,2.89,3.05C27.82,23.36,23.87,24.35,23.87,24.35Z"/><path class="cls-2" d="M12,6V48H30.6a6,6,0,0,0,4.28-1.79l5.39-5.48A6,6,0,0,0,42,36.49V6Zm3.09,3.09H38.91V33a3,3,0,0,1-3,3H30v5.91a3,3,0,0,1-3,3H15.09ZM33,43.68V39h4.64Z"/></g></g></svg>