<svg id="icons" xmlns="http://www.w3.org/2000/svg" viewBox="0 0 54 54"><defs><style>.cls-1{fill:#00962d;}</style></defs><g id="forum"><path class="cls-1" d="M40.41,11H8.59A5.61,5.61,0,0,0,3,16.56V33.38A5.61,5.61,0,0,0,8.59,39H14l0,9A12.07,12.07,0,0,0,25.6,39H40.41A5.61,5.61,0,0,0,46,33.38V16.56A5.61,5.61,0,0,0,40.41,11ZM43,33.38A2.59,2.59,0,0,1,40.41,36H23a9,9,0,0,1-6,8.48L17,36H8.59A2.59,2.59,0,0,1,6,33.38V16.56A2.59,2.59,0,0,1,8.59,14H40.41A2.59,2.59,0,0,1,43,16.56Z"/><path class="cls-1" d="M45.53,6H13.47A5.46,5.46,0,0,0,8.6,9H46V9a2.47,2.47,0,0,1,2,2.42V33.37a5.49,5.49,0,0,0,3-4.87V11.44A5.48,5.48,0,0,0,45.53,6Z"/><rect class="cls-1" x="10" y="18.97" width="30" height="4"/><rect class="cls-1" x="10" y="25.97" width="30" height="4"/></g></svg>