<svg xmlns="http://www.w3.org/2000/svg" viewBox="0 0 54 54"><defs><style>.a{fill:#00962d;}</style></defs><path class="a" d="M27,3A24,24,0,1,0,51,27,24,24,0,0,0,27,3Zm0,45A21,21,0,1,1,48,27,21,21,0,0,1,27,48Z"/><path class="a" d="M32.24,25.23c2.18-.15,3.81-2.53,3.63-5.3s-2.11-4.91-4.3-4.77-3.82,2.53-3.63,5.3S30.05,25.37,32.24,25.23Z"/><path class="a" d="M21.26,25.83c2.18-.15,3.81-2.52,3.63-5.3s-2.11-4.91-4.3-4.76S16.77,18.29,17,21.06,19.07,26,21.26,25.83Z"/><path class="a" d="M44.25,23.67a1.5,1.5,0,1,0-3,.42,14.5,14.5,0,0,1-28.72,4.05,1.49,1.49,0,0,0-1.69-1.27A1.51,1.51,0,0,0,9.6,28.58a17.58,17.58,0,0,0,17.32,15,17,17,0,0,0,2.46-.17A17.52,17.52,0,0,0,44.25,23.67Z"/></svg>