<svg xmlns="http://www.w3.org/2000/svg" viewBox="0 0 54 54"><defs><style>.a{fill:#00962d;}</style></defs><path class="a" d="M43,8H34.88a6.22,6.22,0,0,0-6.1-5H25.22a6.22,6.22,0,0,0-6.1,5H11a3,3,0,0,0-3,3v2H46V11A3,3,0,0,0,43,8ZM25.22,6h3.56a3.22,3.22,0,0,1,3,2H22.24A3.22,3.22,0,0,1,25.22,6Z"/><path class="a" d="M11,48a3,3,0,0,0,3,3H40a3,3,0,0,0,3-3V15H11Zm3-30H40V48H14Z"/><rect class="a" x="17" y="19.97" width="4" height="26"/><rect class="a" x="25" y="19.97" width="4" height="26"/><rect class="a" x="33" y="19.97" width="4" height="26"/></svg>