<svg xmlns="http://www.w3.org/2000/svg" viewBox="0 0 14.17 12.53" fill="#00962d"><g id="Ebene_2" data-name="Ebene 2"><g id="icons"><g id="video2"><path d="M.45,3.53,14.09,2.09,13.93.55A.62.62,0,0,0,13.32,0h-.07L.55,1.34A.62.62,0,0,0,0,2L.17,3.56h0v7.71a1.26,1.26,0,0,0,1.26,1.26H12.92a1.26,1.26,0,0,0,1.25-1.26V3.53Zm1.77,1-1.05,1v-1Zm10.7,7H1.43a.26.26,0,0,1-.26-.26V6.53h.47l2-2h.95l-2,2H4l2-2H7l-2,2H6.37l2-2h1l-2,2H8.74l2-2h.95l-2,2H11.1l2-2h.07v.88L12.06,6.53h1.11v4.74A.26.26,0,0,1,12.92,11.53Z"/><polygon points="5.67 11.04 8.67 9.04 5.67 7.04 5.67 11.04"/></g></g></g></svg>
