<svg id="icons" xmlns="http://www.w3.org/2000/svg" viewBox="0 0 54 54"><defs><style>.cls-1{fill:#ffffff;}</style></defs><g id="block-typewriter"><polygon class="cls-1" points="42.06 32.9 45.06 32.9 45.06 29.9 42.06 29.9 42.06 12 39.06 12 39.06 29.9 36.06 29.9 36.06 32.9 39.06 32.9 39.06 41.89 33.07 41.89 33.07 44.89 39.06 44.89 39.06 41.98 42.06 41.98 42.06 44.89 48.06 44.89 48.06 41.89 42.06 41.89 42.06 32.9"/><rect class="cls-1" x="33.07" y="8.91" width="6" height="3"/><rect class="cls-1" x="42.06" y="8.91" width="6" height="3"/><path class="cls-1" d="M20.8,14.91l-1-3H12v3h3.21L7,38.89H3v3H8.63a1.09,1.09,0,0,0,.76-.29,1.47,1.47,0,0,0,.41-.67l2.41-7.24H23.78l2.41,7.24a1.73,1.73,0,0,0,.43.69,1.07,1.07,0,0,0,.76.27H33v-3H29ZM13.18,30.76l4.05-12.18A25.75,25.75,0,0,0,18,15.76c.12.54.25,1,.38,1.54s.26.9.38,1.26l4,12.2Z"/></g></svg>