<svg xmlns="http://www.w3.org/2000/svg" viewBox="0 0 15.99 15" fill="#fff"><g id="Ebene_2" data-name="Ebene 2"><g id="icons"><g id="block-eyecatcher-2"><g id="visibility-visible"><path d="M8,15A8.9,8.9,0,0,1,.12,10.25L0,10l.12-.22a8.91,8.91,0,0,1,15.76,0L16,10l-.11.22A8.92,8.92,0,0,1,8,15ZM1.06,10a8,8,0,0,0,13.87,0A8,8,0,0,0,1.06,10Z"/><path d="M8,7a3,3,0,0,0-.84.13,1.36,1.36,0,0,1,.6,1.12A1.39,1.39,0,0,1,6.37,9.66,1.36,1.36,0,0,1,5.19,9,2.86,2.86,0,0,0,5,10,3,3,0,1,0,8,7Z"/></g><path d="M9,1.33A5.25,5.25,0,0,1,8,4,5.25,5.25,0,0,1,7,1.33C7,.6,7.44,0,8,0S9,.6,9,1.33Z"/><path d="M4.71,2a5.33,5.33,0,0,1,0,2.85A5.22,5.22,0,0,1,2.83,2.72a1.21,1.21,0,0,1,.48-1.6A1.21,1.21,0,0,1,4.71,2Z"/><path d="M13.16,2.72a5.22,5.22,0,0,1-1.85,2.16,5.33,5.33,0,0,1,0-2.85c.26-.69.88-1.1,1.4-.91A1.2,1.2,0,0,1,13.16,2.72Z"/></g></g></g></svg>
