<svg id="plugins" xmlns="http://www.w3.org/2000/svg" viewBox="0 0 54 54" fill="#ffffff"><g id="Brainstorm"><path d="M28.55,25.76c-11.46-1.2-20.19-7-19.5-12.87s10.55-9.72,22-8.53a39,39,0,0,1,5.18.93,40.5,40.5,0,0,0-9.56-2.17C14.38,1.84,3.82,5.93,3.07,12.27S11.69,24.78,24,26.06a40.05,40.05,0,0,0,9.83-.14A39.25,39.25,0,0,1,28.55,25.76Z"/><path d="M25.65,6.28c11.44,1.38,20.06,7.28,19.26,13.17S34.19,29,22.75,27.63a38.62,38.62,0,0,1-5.16-1,40,40,0,0,0,9.52,2.33C39.38,30.42,50,26.5,50.88,20.18S42.49,7.53,30.22,6.05a40.49,40.49,0,0,0-9.84,0A39.6,39.6,0,0,1,25.65,6.28Z"/><path d="M28.32,38.84c-10-1-17.57-6.05-17-11.19A5.46,5.46,0,0,1,12.59,25c-.65-.25-1.39-.55-2.22-.92S9,23.41,8.46,23.13a6.42,6.42,0,0,0-2.31,4c-.64,5.51,7.5,10.89,18.2,12A35.62,35.62,0,0,0,32.9,39,35.58,35.58,0,0,1,28.32,38.84Z"/><path d="M42.91,29.36c-.8.31-1.7.63-2.47.84a23.13,23.13,0,0,1-2.53.51,4.88,4.88,0,0,1,.67,1.4c1.35,5-5.45,11-15.18,13.27a33.74,33.74,0,0,1-4.52.74,35.45,35.45,0,0,0,8.5-1C37.81,42.65,45.1,36.27,43.66,30.9A5.5,5.5,0,0,0,42.91,29.36Z"/><path d="M14.59,43a5.56,5.56,0,0,1,2.72-4.15,15.4,15.4,0,0,1-1.51-.49l-1-.39c-2.1,1.24-3.47,2.93-3.57,4.87C11,47,16.46,50.58,23.45,50.91A19.82,19.82,0,0,0,29,50.4a19.44,19.44,0,0,1-3,.12C19.51,50.21,14.39,46.83,14.59,43Z"/><path d="M42.61,29.57c-.5,0-1.75.93-2.21.9s-1.87.42-2.33.34A4.56,4.56,0,0,1,38.28,32c-.12,2.62-4.69,4.65-10.41,4.15a18.66,18.66,0,0,1-2.59-.43,11.23,11.23,0,0,0,5,1.51c6.15.52,12.38-1.67,12.69-4.84A26.14,26.14,0,0,0,42.61,29.57Z"/><path d="M29.24,8.71c-8.34-2-16.16.32-17.46,5.17A6,6,0,0,0,12.25,18c0-.11,0-.23,0-.34.81-4.73,8.05-7.55,16.16-6.32s13.77,5.88,13.24,10.51a6.36,6.36,0,0,0,.33-.7C43.28,16.25,37.58,10.7,29.24,8.71Z"/></g></svg>
