<svg id="Icons" data-name="Icons" xmlns="http://www.w3.org/2000/svg" viewBox="0 0 54 54" fill="#ffffff"><g id="community2"><path d="M23,15a12.86,12.86,0,0,1,2.09-7,10,10,0,1,0,0,14.08A12.86,12.86,0,0,1,23,15Zm-5,4a4,4,0,1,1,4-4A4,4,0,0,1,18,19Z"/><path d="M36,25A10,10,0,1,1,46,15,10,10,0,0,1,36,25Zm0-14a4,4,0,1,0,4,4A4,4,0,0,0,36,11Z"/><path d="M9,43V36a2,2,0,0,1,2-2h5c0-2,2-6,5-6H11a8,8,0,0,0-8,8V49H16V43Z"/><path d="M51,49H19V36a8,8,0,0,1,8-8H43a8,8,0,0,1,8,8ZM25,43H45V36a2,2,0,0,0-2-2H27a2,2,0,0,0-2,2Z"/></g></svg>
