<svg id="icons" xmlns="http://www.w3.org/2000/svg" viewBox="0 0 54 54"><defs><style>.cls-1{fill:#ffffff;}</style></defs><g id="edit2"><path class="cls-1" d="M47.91,4.8A6.3,6.3,0,0,0,39.47,7l-1,1.72-1.53,2.55,10.7,5.95,1.53-2.55,1-1.72A5.83,5.83,0,0,0,47.91,4.8Zm-1.44,8.36-5.35-3,1-1.71a3.15,3.15,0,0,1,4.22-1.09,2.92,2.92,0,0,1,1.13,4.06Z"/><polygon class="cls-1" points="43.39 18.29 38.05 15.31 37.15 14.82 35.37 13.82 23 34.47 23.13 46 33.7 40.42 46.07 19.78 44.28 18.79 43.39 18.29"/><path class="cls-1" d="M32,9V47H6V9H32m3-3H3V50H35V6Z"/><rect class="cls-1" x="9" y="11.97" width="20" height="4"/><rect class="cls-1" x="9" y="18.97" width="20" height="4"/><rect class="cls-1" x="9" y="25.97" width="13" height="4"/></g></svg>