<svg xmlns="http://www.w3.org/2000/svg" viewBox="0 0 11.96 16" fill="#fff"><g id="Ebene_2" data-name="Ebene 2"><g id="docs"><g id="file-video"><polygon points="8 15.18 11.44 12.01 8 12.01 8 15.18"/><path d="M0,0V16H7V11.09H12V0ZM11,10H6v5H1.06V1H11Z"/><path d="M9.48,3.33,8,4.33V3.44a.61.61,0,0,0-.61-.61H2.59A.61.61,0,0,0,2,3.44V7.21a.61.61,0,0,0,.61.62H7.37A.62.62,0,0,0,8,7.21V6.33l1.5,1H10v-4ZM7.42,7.21a.06.06,0,0,1,0,.06H2.59a.06.06,0,0,1,0-.06V3.44a0,0,0,0,1,0,0H7.37a0,0,0,0,1,0,0Z"/><polygon points="3.98 6.83 6.23 5.33 3.98 3.83 3.98 6.83"/></g></g></g></svg>
