<svg xmlns="http://www.w3.org/2000/svg" viewBox="0 0 54 54"><defs><style>.cls-1{fill:#ffffff;}</style></defs><g id="docs"><g id="file-presentation"><path class="cls-1" d="M24,20.76a3,3,0,1,0-3-3A3,3,0,0,0,24,20.76Z"/><path class="cls-1" d="M12,6V48H30.6a6,6,0,0,0,4.28-1.79l5.39-5.48A6,6,0,0,0,42,36.49V6ZM38.91,9.06V24H29.77a3.08,3.08,0,0,0-2.83-2H21a3,3,0,0,0-2.81,2H15.09V9.06ZM33,43.68V39h4.64ZM38.91,33a3,3,0,0,1-3,3H30v5.91a3,3,0,0,1-3,3H15.09V27H18v3H30V27h8.91Z"/><rect class="cls-1" x="30" y="11.97" width="6" height="6"/></g></g></svg>