<svg xmlns="http://www.w3.org/2000/svg" viewBox="0 0 54 54"><defs><style>.cls-1{fill:#ffffff;}</style></defs><g id="docs"><g id="file-audio2"><path class="cls-1" d="M22.5,33a4.5,4.5,0,0,0,4.5-4.5V18s.66-1.49,2.85.54C32.67,21.14,36,19,36,19s-4.09-1-4.93-3.65A4.5,4.5,0,0,0,27,12H24V24.25A4.39,4.39,0,0,0,22.5,24a4.5,4.5,0,0,0,0,9Z"/><path class="cls-1" d="M12,6V48H30.6a6,6,0,0,0,4.28-1.79l5.39-5.48A6,6,0,0,0,42,36.49V6Zm3.09,3.09H38.91V33a3,3,0,0,1-3,3H30v5.91a3,3,0,0,1-3,3H15.09ZM33,43.68V39h4.64Z"/></g></g></svg>