<svg xmlns="http://www.w3.org/2000/svg" viewBox="0 0 54 54"><defs><style>.cls-1{fill:#ffffff;}</style></defs><g id="folder"><g id="folder-edit-full"><g id="Edit"><polygon class="cls-1" points="19.91 40.27 21.64 38.8 19.7 38.02 19.91 40.27"/><rect class="cls-1" x="17.89" y="29.48" width="11.05" height="4.1" transform="translate(-14.57 41.52) rotate(-68.14)"/><path class="cls-1" d="M27.26,21.94a2,2,0,0,0-2.66,1.13L24,24.59l3.81,1.53.61-1.53h0A2.05,2.05,0,0,0,27.26,21.94Z"/></g><path class="cls-1" d="M3,45.94H45v-30H3Zm3-27H42v24H6Z"/><path class="cls-1" d="M30,10V9.94a3,3,0,0,0-3-3H18a3,3,0,0,0-3,3V10H9v2.91H48V40h3V10Z"/></g></g></svg>