<svg xmlns="http://www.w3.org/2000/svg" viewBox="0 0 54 54"><defs><style>.a{fill:#ffffff;}</style></defs><path class="a" d="M18.44,26.65A3.44,3.44,0,1,0,15,23.21,3.43,3.43,0,0,0,18.44,26.65Z"/><path class="a" d="M20,28.28H16.87a3.32,3.32,0,0,0-3.31,3.31V35.9h9.76V31.59A3.32,3.32,0,0,0,20,28.28Z"/><path class="a" d="M35.56,30.72a3.44,3.44,0,1,0-3.44-3.44A3.44,3.44,0,0,0,35.56,30.72Z"/><path class="a" d="M37.12,32.35H34a3.31,3.31,0,0,0-3.3,3.31V40h9.76V35.66A3.33,3.33,0,0,0,37.12,32.35Z"/><path class="a" d="M26.05,22.84a3.44,3.44,0,1,0-3.44-3.43A3.43,3.43,0,0,0,26.05,22.84Z"/><path class="a" d="M30.93,32.1V27.79a3.32,3.32,0,0,0-3.32-3.31H24.47a3.29,3.29,0,0,0-3.28,3.18,4.12,4.12,0,0,1,2.95,3.93v.51Z"/><path class="a" d="M28,11V9.94a3,3,0,0,0-3-3H14a3,3,0,0,0-3,3V11H3V46H51V11ZM48,43H6V13.94H48Z"/></svg>