<svg xmlns="http://www.w3.org/2000/svg" viewBox="0 0 54 54"><defs><style>.cls-1{fill:#ffffff;}</style></defs><g id="folder"><g id="folder-date-empty"><g id="date-single"><path class="cls-1" d="M27,19a9,9,0,1,0,9,9A9,9,0,0,0,27,19Zm0,16.18A7.18,7.18,0,1,1,34.18,28,7.19,7.19,0,0,1,27,35.21Z"/><polygon class="cls-1" points="25.68 21.97 25.68 27.55 22.22 29.57 23.59 31.96 28.41 29.16 28.44 29.16 28.43 21.97 25.68 21.97"/></g><path class="cls-1" d="M27,13v-.09a3,3,0,0,0-3-3H15a3,3,0,0,0-3,3V13H6V43H48V13ZM45,40H9V15.94H45Z"/></g></g></svg>