<svg xmlns="http://www.w3.org/2000/svg" viewBox="0 0 54 54"><defs><style>.cls-1{fill:#ffffff;}</style></defs><g id="folder"><g id="folder-group-empty"><path class="cls-1" d="M27,13v-.09a3,3,0,0,0-3-3H15a3,3,0,0,0-3,3V13H6V43H48V13ZM45,40H9V15.94H45Z"/><g id="group2"><path class="cls-1" d="M20.59,27A2.58,2.58,0,1,0,18,24.46,2.57,2.57,0,0,0,20.59,27Z"/><path class="cls-1" d="M21.76,28.26H19.41a2.48,2.48,0,0,0-2.47,2.48V34h7.31V30.74A2.49,2.49,0,0,0,21.76,28.26Z"/><path class="cls-1" d="M33.41,30.09a2.58,2.58,0,1,0-2.58-2.57A2.57,2.57,0,0,0,33.41,30.09Z"/><path class="cls-1" d="M34.58,31.31H32.23a2.48,2.48,0,0,0-2.47,2.48V37h7.3V33.79A2.49,2.49,0,0,0,34.58,31.31Z"/><path class="cls-1" d="M26.29,24.19a2.58,2.58,0,1,0-2.57-2.57A2.58,2.58,0,0,0,26.29,24.19Z"/><path class="cls-1" d="M29.94,31.12V27.89a2.49,2.49,0,0,0-2.48-2.48H25.11a2.48,2.48,0,0,0-2.46,2.39,3.08,3.08,0,0,1,2.21,2.94v.38Z"/></g></g></g></svg>