<svg xmlns="http://www.w3.org/2000/svg" viewBox="0 0 54 54"><defs><style>.a{fill:#ffffff;}</style></defs><polygon class="a" points="33.79 22.79 33.79 13.21 24.21 13.21 24.21 18 29 18 29 22.79 33.79 22.79"/><polygon class="a" points="20.11 9.11 37.89 9.11 37.89 26.89 29 26.89 29 31 42 31 42 5 16 5 16 18 20.11 18 20.11 9.11"/><path class="a" d="M45.59,34.44a3,3,0,0,0-4.13-1.1l-7.61,4.35L20.59,35.78S24,26.92,24.37,25v0a3.05,3.05,0,0,0,.18-1,2.91,2.91,0,0,0-5.27-1.75s0,0,0,0l-.05.06v0c-4,5.59-9.66,11.92-9.75,12.43l-.07.42a2.87,2.87,0,0,0-.05.31L8,43.84a1.76,1.76,0,0,0,.43,1.49c1,1.46,4.83,3.08,8.18,3.67h7.79a6.88,6.88,0,0,0,1.48-.19,3,3,0,0,0,1.41-.4l1.15-.65,1-.52c3.87-2.09,8.15-4.57,9.74-5.58l0,0,5.28-3A3,3,0,0,0,45.59,34.44Z"/></svg>