<svg id="icons" xmlns="http://www.w3.org/2000/svg" viewBox="0 0 54 54"><defs><style>.cls-1{fill:#ffffff;}</style></defs><g id="group"><path class="cls-1" d="M42.51,18h-7a8.48,8.48,0,0,0-7.18,4H41a5,5,0,0,1,0,10H28.3a8.51,8.51,0,0,0,7.18,4h7A8.51,8.51,0,0,0,51,27.48v-1A8.51,8.51,0,0,0,42.51,18Z"/><path class="cls-1" d="M13,32a5,5,0,0,1,0-10H25.7a8.49,8.49,0,0,0-7.19-4h-7A8.51,8.51,0,0,0,3,26.45v1A8.51,8.51,0,0,0,11.48,36h7a8.51,8.51,0,0,0,7.19-4Z"/><rect class="cls-1" x="14" y="22.97" width="26" height="8" rx="4"/></g></svg>