<svg id="icons" xmlns="http://www.w3.org/2000/svg" viewBox="0 0 54 54"><defs><style>.cls-1{fill:#ffffff;}</style></defs><g id="resources-broken"><polygon class="cls-1" points="24.93 49.54 24.93 36.7 22.46 49.54 24.93 49.54"/><polygon class="cls-1" points="37.76 4.43 31.82 4.43 30.57 10.91 32.8 8.65 36.05 11.94 28.99 19.09 27.54 26.65 37.76 26.65 37.76 4.43"/><path class="cls-1" d="M28.76,31V53H50.69V31Zm14.1,11h0l4.45,4.47L44.18,49.6l-4.45-4.47L35.28,49.6l-3.14-3.15L36.59,42h0l-4.44-4.47L33.7,36l1.58-1.58,4.45,4.47,4.45-4.47,3.13,3.15L42.86,42Z"/><polygon class="cls-1" points="3 27.51 3 49.54 18.82 49.54 19.47 46.14 16.1 46.14 16.1 40.35 11.83 40.35 11.83 46.14 7.76 46.14 7.76 38.74 6.55 38.74 13.97 30.91 20.98 38.31 23.06 27.51 3 27.51"/><polygon class="cls-1" points="20.18 42.47 20.89 38.74 20.18 38.74 20.18 42.47"/><polygon class="cls-1" points="15.86 0.97 15.86 23.19 23.89 23.19 24.61 19.43 17.57 12.29 20.81 9 24.92 13.18 26.04 12.05 28.17 0.97 15.86 0.97"/></g></svg>