<svg version="1.1" id="resources-broken_1_" xmlns="http://www.w3.org/2000/svg" x="0" y="0" viewBox="0 0 16 16" xml:space="preserve"><style>.st0{fill:#fff}</style><g id="resources-broken_2_"><path class="st0" d="M7.4 14.5v-3.7l-.7 3.7zm3.8-13H9.5l-.4 1.9.7-.7.9.9-2.1 2.1-.4 2.2h3zM8.6 9.2v6.4H15V9.2H8.6zm4.1 3.1l1.3 1.3-.9.9-1.3-1.3-1.3 1.3-.9-.9 1.3-1.3L9.6 11l.5-.5.5-.5 1.3 1.3 1.3-1.3.8 1-1.3 1.3zM1 8.2v6.3h4.6l.2-1h-1v-1.6H3.6v1.6H2.4v-2.1H2l2.2-2.3 2.1 2.2.6-3.1z"/><path class="st0" d="M6 12.5l.2-1.1H6zM4.8.5v6.4h2.3l.2-1.1-2-2.1.9-.9L7.4 4l.4-.3.6-3.2z"/></g></svg>