<svg id="icons" xmlns="http://www.w3.org/2000/svg" viewBox="0 0 54 54"><defs><style>.cls-1{fill:#ffffff;}</style></defs><g id="video2"><path class="cls-1" d="M4.76,17.82,50.48,13l-.54-5.17a2.07,2.07,0,0,0-2-1.85h-.22L5.09,10.49a2.07,2.07,0,0,0-1.84,2.27l.55,5.16h0V43.79A4.2,4.2,0,0,0,8,48H46.55a4.2,4.2,0,0,0,4.21-4.21v-26Zm5.94,3.36L7.17,24.71V21.18ZM46.55,44.65H8a.86.86,0,0,1-.85-.86V27.88H8.73l6.71-6.7h3.19l-6.7,6.7h4.74l6.71-6.7h3.19l-6.71,6.7H24.6l6.71-6.7h3.2l-6.71,6.7h4.74l6.71-6.7h3.19l-6.71,6.7h4.75l6.7-6.7h.23v3l-3.74,3.73h3.74V43.79A.87.87,0,0,1,46.55,44.65Z"/><polygon class="cls-1" points="22.26 43.02 32.32 36.31 22.26 29.6 22.26 43.02"/></g></svg>