<svg width="16" height="16" xmlns="http://www.w3.org/2000/svg" viewBox="0 0 16 16" shape-rendering="geometricPrecision"><defs><mask id="a"><rect fill="#fff" width="100%" height="100%"/><path d="M16.451 1.534a1.141 1.141 0 00-.288-1.066l-.58-.581a1.116 1.116 0 00-1.065-.29 1.127 1.127 0 00-.962-.551h-.819c-.41 0-.77.223-.964.554-.38-.106-.813.038-1.062.288l-.576.579a1.116 1.116 0 00-.292 1.067c-.329.194-.55.553-.55.962v.821c0 .408.221.766.548.96a1.14 1.14 0 00-.035.285c.002.263.14.595.325.781l.58.581c.248.248.68.393 1.062.287.194.332.555.555.963.555h.82c.298 0 .588-.121.796-.333a1.02 1.02 0 00.158-.216c.098.025.201.031.3.036.26-.004.588-.144.771-.328l.57-.572c.215-.21.337-.503.335-.803 0-.085-.016-.178-.042-.271.333-.193.556-.552.556-.964v-.821c0-.408-.221-.766-.549-.96z"/></mask></defs><path d="M15.884 2.379h-.177v-.003a.523.523 0 01-.5-.325.531.531 0 01.122-.586l.126-.126a.12.12 0 000-.165l-.579-.58a.117.117 0 00-.166 0l-.125.125A.525.525 0 0114 .841a.532.532 0 01-.326-.501l-.001-.177a.117.117 0 00-.117-.117h-.819a.117.117 0 00-.116.117v.178a.53.53 0 01-.911.379l-.126-.126a.118.118 0 00-.165 0l-.578.581a.116.116 0 000 .164l.123.127a.532.532 0 01.124.586.523.523 0 01-.499.325l-.178.003a.117.117 0 00-.117.117v.821c0 .063.052.116.117.116h.178l-.002.002a.524.524 0 01.501.325.53.53 0 01-.123.585v.001l-.125.127a.117.117 0 000 .163l.579.58a.116.116 0 00.165 0l.127-.124a.53.53 0 01.585-.123c.207.088.331.29.326.502l.002.177h-.002a.117.117 0 00.116.117h.82a.117.117 0 00.117-.117h-.001l.001-.177a.529.529 0 01.911-.379l.124.126a.116.116 0 00.165 0l.58-.58a.114.114 0 000-.163l-.125-.129a.53.53 0 01.378-.911l.177-.004A.117.117 0 0016 3.315v-.821a.117.117 0 00-.116-.115zM13.146 3.91a1.002 1.002 0 01-1.001-1.004c0-.555.448-1.005 1.001-1.005a1.004 1.004 0 010 2.009z" fill="#cb1800"/><g mask="url(#a)"><path d="M1.062 8.003a6.939 6.939 0 1013.875-.005 6.939 6.939 0 00-13.875.005zm1.403 0a5.543 5.543 0 015.534-5.537 5.544 5.544 0 015.536 5.537 5.543 5.543 0 01-5.536 5.531 5.54 5.54 0 01-5.534-5.531z"/><path d="M7.966 8.038V3.331c.012 0 .022-.003.034-.003a4.682 4.682 0 014.674 4.675A4.68 4.68 0 018 12.673c-1.723-.003-3.21-.946-4.02-2.333l3.986-2.302z"/></g></svg>