<svg width="16" height="16" xmlns="http://www.w3.org/2000/svg" shape-rendering="geometricPrecision" fill="#fff"><defs><mask id="a"><rect width="100%" height="100%"/><path fill="#000" d="M14.258-1.414l-3.229 3.227-1.69-1.69-2.74 2.743 4.432 4.433L17 1.329z"/></mask></defs><path fill="#cb1800" d="M15.586 1.33L14.258 0l-3.229 3.228L9.34 1.539 8.013 2.867l3.018 3.019z"/><g mask="url(#a)"><path d="M1 1v14h14l-.05-4.492-4.45-.008C10.5 6.558 14.116 7 15 7V1zm2 2h10v3c-3.621.97-3.5 3.436-3.5 5.5H13V13H3z"/><path d="M4 9h3v3H4zm0-6h4v2H4z"/></g></svg>