<svg id="icons" xmlns="http://www.w3.org/2000/svg" viewBox="0 0 54 54"><defs><style>.cls-1{fill:#cb1800;}</style></defs><g id="audio2"><polygon class="cls-1" points="11.35 20.82 5 20.82 5 33.42 11.35 33.42 20.87 39.71 24.04 39.71 24.04 14.53 20.87 14.53 11.35 20.82"/><path class="cls-1" d="M39.84,5,37.59,7.23a27.83,27.83,0,0,1,0,39.54L39.83,49A31,31,0,0,0,39.84,5Z"/><path class="cls-1" d="M35.43,9.36l-2.24,2.23a21.7,21.7,0,0,1,0,30.82h0l2.25,2.22A24.84,24.84,0,0,0,35.43,9.36Z"/><path class="cls-1" d="M31,13.77,28.74,16a15.51,15.51,0,0,1,0,22L31,40.23A18.63,18.63,0,0,0,31,13.77Z"/></g></svg>