<svg xmlns="http://www.w3.org/2000/svg" viewBox="0 0 14 14" fill="#cb1800"><g id="Ebene_2" data-name="Ebene 2"><g id="icons"><g id="block-eyecatcher"><g id="visibility-visible"><path d="M7.57,3.68A6.82,6.82,0,0,1,13.43,7,6.8,6.8,0,0,1,1.71,7,6.8,6.8,0,0,1,7.57,3.68m0-1A7.8,7.8,0,0,0,.67,6.84L.57,7l.1.19a7.79,7.79,0,0,0,13.79,0L14.57,7l-.11-.19A7.8,7.8,0,0,0,7.57,2.68Z" transform="translate(-0.57)"/><path d="M7.57,4.39a2.48,2.48,0,0,0-.73.12,1.2,1.2,0,0,1,.52,1A1.22,1.22,0,0,1,6.14,6.71a1.19,1.19,0,0,1-1-.61A2.61,2.61,0,0,0,4.93,7,2.64,2.64,0,1,0,7.57,4.39Z" transform="translate(-0.57)"/></g><rect width="3" height="1"/><rect width="1" height="3"/><rect x="11" width="3" height="1"/><rect x="13" y="1" width="1" height="2"/><rect x="13" y="11" width="1" height="3"/><rect x="11" y="13" width="3" height="1"/><rect y="11" width="1" height="3"/><rect y="13" width="3" height="1"/></g></g></g></svg>
