<svg id="icons" xmlns="http://www.w3.org/2000/svg" viewBox="0 0 54 54" fill="#cb1800"><defs><style>.cls-1{fill:#cb1800;}</style></defs><g id="block-tabs"><path class="cls-1" d="M6,8.91v36H48v-36Zm18,3h9v6H24Zm21,30H9v-30H21v9H45Zm0-24H36v-6h9Z"/><path d="M48,8.91H6v36H48v-36Zm-12,9v-6h9v6Zm-12,0v-6h9v6Zm-15,24v-30H21v9H45v21Z"/><rect class="cls-1" x="12" y="26.9" width="29.99" height="3"/><polygon points="41.99 26.9 12 26.9 12 29.9 41.99 29.9 41.99 26.9 41.99 26.9"/><rect class="cls-1" x="12" y="32.9" width="29.99" height="3"/><polygon points="41.99 32.9 12 32.9 12 35.9 41.99 35.9 41.99 32.9 41.99 32.9"/></g></svg>
