<svg id="icons" xmlns="http://www.w3.org/2000/svg" viewBox="0 0 54 54"><defs><style>.cls-1{fill:#cb1800;}</style></defs><g id="block-canvas"><path class="cls-1" d="M48,8.91H6v30h31c2.48,4.54,5,8.6,5.87,8.24s0-4-1.12-8.24H48Zm-3,27H41c-1.64-5.56-3.55-11.1-3.55-11.1a3.38,3.38,0,0,0-6.28,2.52s2,4.1,4.32,8.58H9v-24H45Z"/><path class="cls-1" d="M28.29,16.91a3.29,3.29,0,0,1,.48,2.71s.05.05.07.08a2.31,2.31,0,0,0,.05.74,2.49,2.49,0,1,0,4.79-1.34A7.29,7.29,0,0,0,31,15.43c-1.84-1.26-4.83-1-4.86-.28S27.28,15.76,28.29,16.91Z"/><path class="cls-1" d="M16.33,24.14c.83-.06,1.42-1.34,1.31-2.86s-.86-2.72-1.69-2.66S14.53,20,14.64,21.48,15.5,24.2,16.33,24.14Z"/><path class="cls-1" d="M21.49,20.86c.66-.31.68-1.65.05-3S19.85,15.7,19.19,16s-.68,1.66,0,3S20.84,21.17,21.49,20.86Z"/><path class="cls-1" d="M15.47,31.66a9.41,9.41,0,0,0,6.31.26,8.64,8.64,0,0,0,4.94-4,8.5,8.5,0,0,0,.91-5.9c-1.56,3.58-3.73,6.22-6.76,7.08a10.41,10.41,0,0,1-4.77.34A16.91,16.91,0,0,1,11,27.7,8.46,8.46,0,0,0,15.47,31.66Z"/></g></svg>