<?xml version="1.0" encoding="UTF-8" standalone="no"?>
<!DOCTYPE svg PUBLIC "-//W3C//DTD SVG 1.1//EN" "http://www.w3.org/Graphics/SVG/1.1/DTD/svg11.dtd">
<svg width="100%" height="100%" viewBox="0 0 16 16" version="1.1" xmlns="http://www.w3.org/2000/svg" xmlns:xlink="http://www.w3.org/1999/xlink" xml:space="preserve" xmlns:serif="http://www.serif.com/" style="fill-rule:evenodd;clip-rule:evenodd;stroke-linejoin:round;stroke-miterlimit:2;">
    <g transform="matrix(0.881459,0,0,0.881459,0.948327,1.82979)">
        <path d="M0,0L3,0L3,2L0,2L0,0ZM5,0L16,0L16,2L5,2L5,0ZM0,4L3,4L3,6L0,6L0,4ZM5,4L16,4L16,6L5,6L5,4ZM0,8L3,8L3,10L0,10L0,8ZM5,8L16,8L16,10L5,10L5,8ZM0,12L3,12L3,14L0,14L0,12ZM5,12L16,12L16,14L5,14L5,12Z" style="fill:#cb1800;fill-rule:nonzero;"/>
    </g>
</svg>
