<svg width="16" height="16" xmlns="http://www.w3.org/2000/svg" shape-rendering="geometricPrecision" fill="#24437c"><defs><mask id="a"><rect fill="#fff" width="100%" height="100%"/><path fill="#000" d="M17.414 1.215L14.79-1.414 13.066.308l-1.722-1.722-2.627 2.627 1.722 1.721-1.724 1.722 2.63 2.628 1.722-1.722 1.722 1.723 2.625-2.63-1.721-1.72z"/></mask></defs><path d="M16 4.656l-1.722-1.721L16 1.214 14.789.001l-1.723 1.721L11.344.001l-1.212 1.212 1.722 1.721-1.724 1.722 1.215 1.214 1.722-1.723 1.722 1.723z" fill="#cb1800"/><g mask="url(#a)"><path d="M1 1v14h14l-.05-4.492-4.45-.008C10.5 6.558 14.116 7 15 7V1zm2 2h10v3c-3.621.97-3.5 3.436-3.5 5.5H13V13H3z"/><path d="M4 9h3v3H4zm0-6h4v2H4z"/></g></svg>