<svg width="16" height="16" xmlns="http://www.w3.org/2000/svg" viewBox="0 0 16 16" shape-rendering="geometricPrecision" fill="#fff"><defs><mask id="a"><rect width="100%" height="100%"/><path d="M12.997.858a4.809 4.809 0 00-4.253 2.563 4.81 4.81 0 008.506 0A4.812 4.812 0 0012.997.858z" fill="#000"/></mask></defs><path d="M12.997 1.611a3.394 3.394 0 00-3.003 1.81 3.397 3.397 0 006.006 0 3.398 3.398 0 00-3.003-1.81zm-.001 3.396a1.587 1.587 0 110-3.174 1.587 1.587 0 010 3.174z" fill="#cb1800"/><g mask="url(#a)"><path d="M14.017 5.94a5.938 5.938 0 00-11.875 0c0 1.172.345 2.262.932 3.184l-.006-.004.041.06c.046.071.096.14.145.209L8.114 16l4.833-6.665.093-.136.025-.036-.005.001a5.902 5.902 0 00.957-3.224zm-5.938 4.567a4.565 4.565 0 110-9.133 4.565 4.565 0 010 9.133z"/><circle cx="8.079" cy="5.914" r="2.242"/></g></svg>