<svg width="16" height="16" xmlns="http://www.w3.org/2000/svg" viewBox="0 0 16 16" shape-rendering="geometricPrecision" fill="#24437c"><defs><mask id="a"><rect fill="#fff" width="100%" height="100%"/><path d="M12.997.858a4.809 4.809 0 00-4.253 2.563 4.81 4.81 0 008.506 0A4.812 4.812 0 0012.997.858z" fill="#000"/></mask></defs><path d="M12.997 1.611a3.394 3.394 0 00-3.003 1.81 3.397 3.397 0 006.006 0 3.398 3.398 0 00-3.003-1.81zm-.001 3.396a1.587 1.587 0 110-3.174 1.587 1.587 0 010 3.174z" fill="#cb1800"/><g mask="url(#a)"><path d="M1.062 7.999a6.94 6.94 0 1013.878 0 6.94 6.94 0 00-13.878 0zm12.472 0a5.543 5.543 0 01-5.531 5.536 5.544 5.544 0 01-5.537-5.536 5.543 5.543 0 015.537-5.534 5.54 5.54 0 015.531 5.534z"/><path d="M8 7.999H3.327a4.682 4.682 0 004.675 4.674 4.68 4.68 0 004.67-4.674 4.678 4.678 0 00-4.67-4.672h-.003v4.672z"/></g></svg>