<svg width="16" height="16" xmlns="http://www.w3.org/2000/svg" viewBox="0 0 16 16" shape-rendering="geometricPrecision" fill="#6e6e6e"><defs><mask id="a"><rect fill="#fff" width="100%" height="100%"/><path fill="#000" d="M11.875-1.414l-2.47 2.47 2.035 2.039-2.035 2.037 2.47 2.472 4.51-4.511z"/></mask></defs><path fill="#cb1800" d="M11.875 0l-1.057 1.057 2.035 2.038-2.035 2.037 1.057 1.057 3.095-3.096z"/><g mask="url(#a)"><path d="M6.867 9.283a2.493 2.493 0 002.497-2.495 2.493 2.493 0 00-2.497-2.494 2.496 2.496 0 100 4.989zm2.319 1.186H4.541a2.406 2.406 0 00-2.398 2.404V16h9.45v-3.127a2.413 2.413 0 00-2.407-2.404zM7.641 0v1.125c1.349 0 2.564.545 3.448 1.428a4.86 4.86 0 011.428 3.449h1.125A6.002 6.002 0 007.641 0zm0 2.025v1.122a2.859 2.859 0 012.852 2.855h1.125a3.977 3.977 0 00-3.977-3.977z"/></g></svg>