<svg width="16" height="16" xmlns="http://www.w3.org/2000/svg" viewBox="0 0 16 16" shape-rendering="geometricPrecision" fill="#24437c"><defs><mask id="a"><rect fill="#fff" width="100%" height="100%"/><path d="M12.997.858a4.809 4.809 0 00-4.253 2.563 4.81 4.81 0 008.506 0A4.812 4.812 0 0012.997.858z" fill="#000"/></mask></defs><path d="M12.971 1.607c-1.315 0-2.454.74-3.029 1.825a3.425 3.425 0 006.058 0 3.43 3.43 0 00-3.029-1.825z" fill="#cb1800"/><g mask="url(#a)"><path d="M8 1.001a7 7 0 10.003 14 7 7 0 00-.003-14zm0 12.584a5.59 5.59 0 01-5.583-5.581A5.593 5.593 0 018 2.417a5.594 5.594 0 015.585 5.587A5.593 5.593 0 018 13.585zm.127-8.259c.554 0 1-.459 1-1.021a1.01 1.01 0 00-1-1.024c-.553 0-1.001.458-1.001 1.024 0 .562.448 1.021 1.001 1.021zm.987 1.049H6.118v.761H7.1v4.078h-.985v1.015h3.986v-1.015h-.987V6.375z"/></g></svg>