<svg width="16" height="16" xmlns="http://www.w3.org/2000/svg" shape-rendering="geometricPrecision" fill="#cb1800"><defs><mask id="a"><rect fill="#fff" width="100%" height="100%"/><path fill="#000" d="M14.782 1.217V-1h-3.564v2.217H9V4.78h2.218v2.221h3.564V4.78H17V1.217z"/></mask></defs><path d="M16 2.217h-2.218V0h-1.564v2.217H10V3.78h2.218v2.221h1.564V3.78H16z"/><g mask="url(#a)"><path d="M1 1v14h14l-.05-4.492-4.45-.008C10.5 6.558 14.116 7 15 7V1zm2 2h10v3c-3.621.97-3.5 3.436-3.5 5.5H13V13H3z"/><path d="M4 9h3v3H4zm0-6h4v2H4z"/></g></svg>