<svg width="16" height="16" xmlns="http://www.w3.org/2000/svg" shape-rendering="geometricPrecision" fill="#00962d"><defs><mask id="a"><rect fill="#fff" width="100%" height="100%"/><path fill="#000" d="M14.934-.397l-2.039 2.036-2.037-2.036-2.472 2.47 4.511 4.51 4.507-4.51z"/></mask></defs><path fill="#cb1800" d="M12.895 3.052l-2.037-2.035L9.8 2.073l3.097 3.096 3.093-3.096-1.057-1.056z"/><g mask="url(#a)"><path d="M1 1v14h14l-.05-4.492-4.45-.008C10.5 6.558 14.116 7 15 7V1zm2 2h10v3c-3.621.97-3.5 3.436-3.5 5.5H13V13H3z"/><path d="M4 9h3v3H4zm0-6h4v2H4z"/></g></svg>