<svg id="icons" xmlns="http://www.w3.org/2000/svg" viewBox="0 0 54 54"><defs><style>.cls-1{fill:#ffad00;}</style></defs><g id="block-gallery"><path class="cls-1" d="M36,11.91v12H48v-12Zm9,9H39v-6h6Z"/><path class="cls-1" d="M36,38.89H48v-12H36Zm3-9h6v6H39Z"/><path class="cls-1" d="M33,11.91H21v12H33Zm-3,9H24v-6h6Z"/><path class="cls-1" d="M33,26.9H21v12H33Zm-3,9H24v-6h6Z"/><path class="cls-1" d="M6,23.9H18v-12H6Zm3-9h6v6H9Z"/><path class="cls-1" d="M6,38.89H18v-12H6Zm3-9h6v6H9Z"/><rect class="cls-1" x="19.5" y="41.89" width="3" height="3"/><rect class="cls-1" x="25.5" y="41.89" width="3" height="3"/><rect class="cls-1" x="31.5" y="41.89" width="3" height="3"/></g></svg>