<svg xmlns="http://www.w3.org/2000/svg" viewBox="0 0 54 54"><defs><style>.cls-1{fill:#ffad00;}</style></defs><g id="docs"><g id="file-audio"><polygon class="cls-1" points="20.57 19.85 18 19.85 18 25 20.57 25 24.43 27.57 25.71 27.57 25.71 17.28 24.43 17.28 20.57 19.85"/><path class="cls-1" d="M29.24,16.4l-1.69,1.68a6.06,6.06,0,0,1,0,8.56l1.69,1.68A8.43,8.43,0,0,0,29.24,16.4Z"/><path class="cls-1" d="M32.27,13.36l-1.69,1.69a10.31,10.31,0,0,1,0,14.62l1.69,1.69A12.73,12.73,0,0,0,32.27,13.36Z"/><path class="cls-1" d="M12,6V48H30.6a6,6,0,0,0,4.28-1.79l5.39-5.48A6,6,0,0,0,42,36.49V6Zm3.09,3.09H38.91V33a3,3,0,0,1-3,3H30v5.91a3,3,0,0,1-3,3H15.09ZM33,43.68V39h4.64Z"/></g></g></svg>