<svg xmlns="http://www.w3.org/2000/svg" viewBox="0 0 54 54"><defs><style>.a{fill:#ffad00;}</style></defs><rect class="a" x="27" y="14.97" width="3" height="3"/><rect class="a" x="27" y="20.97" width="3" height="3"/><rect class="a" x="24" y="23.97" width="3" height="3"/><rect class="a" x="27" y="26.97" width="3" height="3"/><rect class="a" x="27" y="32.97" width="3" height="3"/><rect class="a" x="24" y="29.97" width="3" height="3"/><rect class="a" x="24" y="35.97" width="3" height="3"/><rect class="a" x="27" y="38.97" width="3" height="3"/><rect class="a" x="24" y="41.97" width="3" height="3"/><path class="a" d="M10,3V51H32.61a6,6,0,0,0,4.27-1.79l5.39-5.47A6,6,0,0,0,44,39.53V3Zm16.45,8.13A1.44,1.44,0,0,1,24,9.65,1.42,1.42,0,0,1,25.24,9h.2a1.42,1.42,0,0,1,.51.18A1.45,1.45,0,0,1,26.45,11.13ZM35,46.71V42h4.64ZM40.91,36a3,3,0,0,1-3,3H32v5.91a3,3,0,0,1-2,2.81V45H27v2.94H13.09V6.1H23.93v2a2.65,2.65,0,0,0-.69.56h0l-3.5,4h0a3.81,3.81,0,0,0-.37.5,3.56,3.56,0,0,0,1.23,4.88,3.49,3.49,0,0,0,3.4.07V21h3V18H24.4a3.55,3.55,0,0,0,1.08-1.1,3.67,3.67,0,0,0,.27-.57h0L26.26,15H27V13c.12-.3.24-.63.4-1H30V6.1H40.91Z"/></svg>