<svg xmlns="http://www.w3.org/2000/svg" viewBox="0 0 54 54"><defs><style>.a{fill:#ffad00;}</style></defs><path class="a" d="M10,3V51H32.6a6,6,0,0,0,4.28-1.79l5.39-5.48A6,6,0,0,0,44,39.49V3Zm3.09,3.09H40.91V36a3,3,0,0,1-3,3H32v5.91a3,3,0,0,1-3,3H13.09ZM35,46.68V42h4.64Z"/><path class="a" d="M36.62,15.42,32.5,18.17V15.73A1.69,1.69,0,0,0,30.82,14H17.68A1.69,1.69,0,0,0,16,15.73V26.11a1.68,1.68,0,0,0,1.68,1.68H30.82a1.68,1.68,0,0,0,1.68-1.68V23.67l4.12,2.75H38v-11ZM31,26.11a.14.14,0,0,1-.14.14H17.68a.14.14,0,0,1-.14-.14V15.73a.15.15,0,0,1,.14-.15H30.82a.15.15,0,0,1,.14.15Z"/><polygon class="a" points="21.5 25.04 27.69 20.92 21.5 16.79 21.5 25.04"/></svg>