<svg xmlns="http://www.w3.org/2000/svg" viewBox="0 0 54 54"><defs><style>.a{fill:#ffad00;}</style></defs><path class="a" d="M28,11V9.94a3,3,0,0,0-3-3H14a3,3,0,0,0-3,3V11H3V46H51V11ZM48,43H6V13.94H48Z"/><path class="a" d="M31.46,33.48a.92.92,0,0,0-.45.12,6.34,6.34,0,0,1-3.09.8,6.42,6.42,0,0,1-1.07-12.75,7.82,7.82,0,0,1,1.07-.08,6.2,6.2,0,0,1,1.62.21,1,1,0,0,0,.24,0,.91.91,0,0,0,.9-1L30.21,17H16V39H33l-.59-4.69A.91.91,0,0,0,31.46,33.48ZM17.37,37.59V18.34H29l.25,2a7.37,7.37,0,0,0-1.32-.12,8,8,0,0,0-1.29.11,7.79,7.79,0,0,0,1.29,15.48,7.89,7.89,0,0,0,3.17-.68l.31,2.49Z"/><path class="a" d="M31.58,17l.76,6.1a.91.91,0,0,1-1.47.83A5,5,0,0,0,27.42,23a5,5,0,1,0,4.37,8.24.92.92,0,0,1,1.63.45c.4,3.19.91,7.31.91,7.31H38V17Z"/></svg>