<svg xmlns="http://www.w3.org/2000/svg" viewBox="0 0 54 54"><defs><style>.cls-1{fill:#ffad00;}</style></defs><g id="folder"><g id="folder-edit-empty"><path class="cls-1" d="M27,13v-.09a3,3,0,0,0-3-3H15a3,3,0,0,0-3,3V13H6V43H48V13ZM45,40H9V15.94H45Z"/><g id="Edit"><polygon class="cls-1" points="22.91 37.27 24.64 35.8 22.7 35.02 22.91 37.27"/><rect class="cls-1" x="20.89" y="26.48" width="11.05" height="4.1" transform="translate(-9.9 42.42) rotate(-68.14)"/><path class="cls-1" d="M30.26,18.94a2,2,0,0,0-2.66,1.13L27,21.59l3.81,1.53.61-1.53h0A2.05,2.05,0,0,0,30.26,18.94Z"/></g></g></g></svg>