<?xml version="1.0" encoding="UTF-8" standalone="no"?>
<!DOCTYPE svg PUBLIC "-//W3C//DTD SVG 1.1//EN" "http://www.w3.org/Graphics/SVG/1.1/DTD/svg11.dtd">
<svg width="100%" height="100%" viewBox="0 0 16 16" version="1.1" xmlns="http://www.w3.org/2000/svg" xmlns:xlink="http://www.w3.org/1999/xlink" xml:space="preserve" xmlns:serif="http://www.serif.com/" style="fill-rule:evenodd;clip-rule:evenodd;stroke-linejoin:round;stroke-miterlimit:2;">
    <g transform="matrix(0.886236,0,0,0.886236,0.467433,0.964169)">
        <path d="M15.006,3.45L1.954,3.45L1.954,12.428L15.006,12.428L15.006,3.45ZM3.713,10.905C3.713,9.978 3.976,9.515 4.348,9.515C4.771,9.515 4.971,10.026 4.971,10.888C4.971,11.112 4.955,11.305 4.928,11.475L3.756,11.475C3.726,11.286 3.712,11.096 3.713,10.905ZM5.877,11.476L5.624,11.476C5.657,11.29 5.679,11.092 5.679,10.872C5.679,9.778 5.262,8.977 4.365,8.977C3.496,8.977 3.006,9.748 3.006,10.911C3.006,11.114 3.027,11.301 3.06,11.475L2.907,11.475L2.907,4.405L5.879,4.405L5.877,11.476ZM9.914,11.476L6.832,11.476L6.832,4.406L9.914,4.406L9.914,11.476ZM14.052,11.476L10.864,11.476L10.864,4.406L14.052,4.406L14.052,11.476ZM0.634,5.469L1.588,5.469L1.588,10.559L0.634,10.559L0.634,5.469ZM15.413,5.469L16.365,5.469L16.365,10.559L15.413,10.559L15.413,5.469Z" style="fill:#ffad00;fill-rule:nonzero;"/>
    </g>
    <g transform="matrix(0.886236,0,0,0.886236,0.467433,0.964169)">
        <path d="M8.646,8.347L9.31,8.347L9.31,7.403L9.79,7.403L9.79,6.87L9.31,6.87L9.31,4.631L8.48,4.631L6.959,6.946L6.959,7.403L8.646,7.403L8.646,8.347ZM7.634,6.872L7.634,6.86L8.321,5.842C8.435,5.636 8.532,5.448 8.646,5.213L8.668,5.213C8.658,5.437 8.646,5.649 8.646,5.86L8.646,6.872L7.634,6.872ZM13.746,10.569L12.225,10.569L12.225,10.557L12.545,10.278C13.195,9.676 13.665,9.151 13.665,8.499C13.665,7.894 13.266,7.374 12.441,7.374C11.972,7.374 11.566,7.538 11.298,7.757L11.503,8.254C11.691,8.112 11.967,7.944 12.299,7.944C12.784,7.944 12.961,8.237 12.961,8.567C12.955,9.059 12.544,9.505 11.67,10.317L11.229,10.723L11.229,11.151L13.746,11.151L13.746,10.569Z" style="fill:#ffad00;fill-rule:nonzero;"/>
    </g>
</svg>
