<?xml version="1.0" encoding="UTF-8" standalone="no"?>
<!DOCTYPE svg PUBLIC "-//W3C//DTD SVG 1.1//EN" "http://www.w3.org/Graphics/SVG/1.1/DTD/svg11.dtd">
<svg width="100%" height="100%" viewBox="0 0 100 100" version="1.1" xmlns="http://www.w3.org/2000/svg" xmlns:xlink="http://www.w3.org/1999/xlink" xml:space="preserve" xmlns:serif="http://www.serif.com/" style="fill-rule:evenodd;clip-rule:evenodd;stroke-linejoin:round;stroke-miterlimit:2;">
    <g transform="matrix(0.926012,0,0,0.926012,3.6994,3.69951)">
        <path d="M73.263,41.146C70.376,33.312 61.066,25.963 50,25.963C38.934,25.963 29.624,33.312 26.737,41.145C12.213,43.034 2.381,46.627 2.381,50.757C2.381,55.067 13.099,58.787 28.681,60.599L26.121,67.743C26.116,67.743 26.11,67.74 26.104,67.74C26.103,67.74 26.102,67.74 26.101,67.74C24.373,67.74 22.951,69.162 22.951,70.89C22.951,72.618 24.373,74.04 26.101,74.04C27.829,74.04 29.251,72.618 29.251,70.89C29.251,70.89 29.251,70.889 29.251,70.889C29.251,70.225 29,69.642 28.649,69.137L34.386,61.157C39.281,61.551 44.52,61.776 49.999,61.776C55.479,61.776 60.717,61.551 65.612,61.156L71.35,69.136C70.998,69.642 70.747,70.226 70.747,70.889C70.747,70.889 70.747,70.89 70.747,70.89C70.747,72.616 72.168,74.037 73.894,74.037C73.895,74.037 73.896,74.037 73.897,74.037C75.623,74.037 77.044,72.616 77.044,70.89C77.044,70.89 77.044,70.889 77.044,70.889C77.044,69.161 75.622,67.739 73.894,67.739C73.889,67.739 73.883,67.743 73.875,67.743L71.317,60.6C86.901,58.79 97.619,55.068 97.619,50.758C97.619,46.628 87.787,43.035 73.263,41.148L73.263,41.146ZM69.885,46.481C69.885,46.5 69.842,46.827 69.741,47.045C68.566,49.194 60.186,50.86 50,50.86C39.814,50.86 31.434,49.194 30.259,47.045C30.186,46.864 30.137,46.675 30.115,46.481C30.112,46.416 30.105,46.39 30.105,46.31C30.105,39.9 38.649,30.02 50,30.02C61.35,30.02 69.894,39.9 69.894,46.31C69.894,46.39 69.889,46.416 69.884,46.481L69.885,46.481Z" style="fill:#ffad00;fill-rule:nonzero;"/>
    </g>
</svg>
