<svg version="1.1" id="Ebene_1" xmlns="http://www.w3.org/2000/svg" x="0" y="0" viewBox="0 0 771.9 324.4" xml:space="preserve"><style>.st0{fill:none;stroke:#e7ebf0;stroke-width:10}.st1{fill:#e7ebf0}.st2{fill:#28497c}</style><g id="Gruppe_1924" transform="translate(-484 -240.313)"><path id="Linie_46" class="st0" d="M1113.9 299.5l-251.4 155"/><path id="Linie_50" class="st0" d="M1003.5 310.5l-141 144"/><path id="Linie_51" class="st0" d="M934.5 279.5l-72 175"/><path id="Linie_52" class="st0" d="M835.5 313.5l27 141"/><path id="Linie_53" class="st0" d="M750.5 313.5l112 141"/><path id="Linie_54" class="st0" d="M643.5 359.5l219 95"/><path id="Linie_55" class="st0" d="M534.5 377.5l328 77"/><path id="Linie_56" class="st0" d="M529.5 485.5l333-31"/><path id="Linie_57" class="st0" d="M636.5 508.5l226-54"/><path id="Linie_58" class="st0" d="M1101.5 530.5l-239-76"/><path id="Linie_59" class="st0" d="M1197.5 454.5h-335"/><path id="Linie_60" class="st0" d="M1094.5 399.5l-232 55"/><g id="Gruppe_1907" transform="translate(64 -26.666)"><circle id="Ellipse_31" class="st1" cx="470.2" cy="404.2" r="50.2"/><g id="Gruppe_1863" transform="translate(446 379)"><path id="Pfad_2456" class="st2" d="M7.1 17.9H0v14.3h7.1l10.7 7.1h3.6V10.8h-3.6L7.1 17.9z"/><path id="Pfad_2457" class="st2" d="M39.2 0l-2.5 2.5C49 14.9 49 35 36.7 47.4l2.5 2.5c13.7-13.8 13.7-36.1 0-49.9z"/><path id="Pfad_2458" class="st2" d="M34.2 4.9l-2.5 2.5c9.6 9.7 9.6 25.3 0 35l2.5 2.5c11.1-11 11.1-28.9 0-40z"/><path id="Pfad_2459" class="st2" d="M29.2 9.9l-2.5 2.5c6.9 6.9 6.9 18.1 0 25l2.5 2.5c8.3-8.2 8.3-21.7 0-30z"/></g></g><g id="Gruppe_1913" transform="translate(-35 25.396)"><circle id="Ellipse_30" class="st1" cx="1232.5" cy="429.5" r="58.5"/><g id="Gruppe_1880" transform="translate(1210 400)"><path id="Pfad_2468" class="st2" d="M29.2 55.5l12.6-11.6H29.2v11.6z"/><path id="Pfad_2469" class="st2" d="M0 0v58.5h25.7v-18h18.1V0H0zm40.1 36.4H21.8v18.3h-18V3.5H40v32.9z"/><path id="Rechteck_2081" class="st2" d="M7.2 7.2h11v11h-11z"/><path id="Rechteck_2082" class="st2" d="M21.9 7.2h14.6v3.7H21.9z"/><path id="Rechteck_2083" class="st2" d="M21.9 14.5h14.6v3.7H21.9z"/><path id="Rechteck_2084" class="st2" d="M7.2 21.8h29.2v3.7H7.2z"/><path id="Rechteck_2085" class="st2" d="M7.2 29.1h29.2v3.7H7.2z"/></g></g><g id="Gruppe_1914" transform="translate(6 8.365)"><circle id="Ellipse_32" class="st1" cx="637.3" cy="351.3" r="40.3"/><g id="vote" transform="translate(619 336)"><path id="Pfad_2471" class="st2" d="M25.9 0h-8.3v24.1h8.3V0zM14.4 12.9H6.1v11.2h8.3V12.9zm14.7-5.6v16.8h8.3V7.3h-8.3zm-26.2-2H0v24.9h37.4v-2.9H2.9v-22z"/></g></g><g id="Gruppe_1906" transform="translate(17.628 22.818)"><circle id="Ellipse_16" class="st1" cx="733.3" cy="290.3" r="50.3"/><g id="dialog-cards" transform="translate(706.008 270)"><g id="Gruppe_1881"><path id="Pfad_2472" class="st2" d="M0 39.9h48.5V5.2H0v34.7zM3.5 8.7h41.6v27.7H3.5V8.7z"/><path id="Pfad_2473" class="st2" d="M4.3 0v3.5h46.8v32.9h3.5V0H4.3z"/><path id="Rechteck_2088" class="st2" d="M8.6 15.9H16v13.3H8.6z"/><path id="Rechteck_2089" class="st2" d="M32.1 24.8h7.4v4.3h-7.4z"/><path id="Rechteck_2090" class="st2" d="M20.4 24.8h7.4v4.3h-7.4z"/><path id="Rechteck_2091" class="st2" d="M20.4 15.9h19.2v4.3H20.4z"/></g></g></g><g id="Ellipse_35" transform="translate(700.63 367.65)"><ellipse cx="162.8" cy="93.7" rx="162.8" ry="93.7" fill="#fff"/><ellipse class="st0" cx="162.8" cy="93.7" rx="157.8" ry="88.7"/></g><g id="Gruppe_1912" transform="translate(-40.129 -22.897)"><circle id="Ellipse_34" class="st1" cx="1154" cy="321" r="49"/><g id="Gruppe_1883" transform="translate(1130 304)"><path id="Pfad_2474" class="st2" d="M0 0v34.9h48.8V0H0zm45.3 3.5v23.4l-10.1-7.4-7.7 6-11.3-10.2L3.5 27V3.5h41.8z"/><circle id="Ellipse_33" class="st2" cx="34.5" cy="10.7" r="3.5"/></g></g><circle id="Ellipse_36" class="st1" cx="1003.6" cy="310.7" r="24.3"/><circle id="Ellipse_37" class="st1" cx="835.7" cy="313.1" r="21.9"/><circle id="Ellipse_38" class="st1" cx="1101.3" cy="530.7" r="27.7"/><circle id="Ellipse_39" class="st1" cx="764.3" cy="533.3" r="30.3"/><circle id="Ellipse_40" class="st1" cx="529.9" cy="485.6" r="27.7"/><g id="courseware" transform="translate(761.786 350.894)"><path id="Pfad_2421" class="st2" d="M116.3 14.1L100.2 0 84.1 14.1l16.1 7.5 16.1-7.5z"/><path id="Pfad_2422" d="M144.3 38.6l-16.1-14.1-28 14-28-14-16.1 14.1L100.4 65l43.9-26.4z" fill="#d60000"/><path id="Pfad_2423" class="st2" d="M172.3 63.1L156.2 49l-55.8 38.5-56.3-38.4-16.1 14 72.4 55.9 71.9-55.9z"/><path id="Pfad_2424" class="st2" d="M184.3 73.6l-83.9 69.8-84.3-69.8L0 87.7l100.2 87.7 100.2-87.7-16.1-14.1z"/></g><g id="Gruppe_1908" transform="translate(-32.343 34.334)"><circle id="Ellipse_25" class="st1" cx="668.7" cy="471.7" r="58.7"/><g id="Gruppe_1864" transform="translate(635 442)"><path id="Pfad_2460" class="st2" d="M2.1 16.6l64.2-6.7-.8-7.2C65.4 1.1 64.1 0 62.6 0h-.3L2.6 6.3C1 6.5-.1 7.9 0 9.5l.8 7.2V53c0 3.3 2.6 5.9 5.9 5.9h54.1c3.3 0 5.9-2.6 5.9-5.9V16.6H2.1zm8.4 4.7l-5 5v-5h5zm50.3 32.9H6.7c-.7 0-1.2-.5-1.2-1.2V30.7h2.2l9.4-9.4h4.5l-9.4 9.4h6.7l9.4-9.4h4.5l-9.4 9.4H30l9.4-9.4h4.5l-9.4 9.4h6.7l9.4-9.4H55l-9.4 9.4h6.7l9.4-9.4h.3v4.2l-5.2 5.2H62V53c0 .7-.6 1.2-1.2 1.2z"/><path id="Pfad_2461" class="st2" d="M26.7 51.9l14.1-9.4-14.1-9.4v18.8z"/></g></g><g id="Gruppe_1909" transform="translate(-79.909 -56.465)"><circle id="Ellipse_24" class="st1" cx="1014" cy="336.3" r="39.5"/><g id="block-typewriter" transform="translate(991.342 316.896)"><g id="Gruppe_1905" transform="translate(-.001 1.97)"><path id="Pfad_2483" class="st2" d="M36.9 22.6h2.8v-2.8h-2.8V2.9H34v16.9h-2.8v2.8H34v8.5h-5.7V34H34v-2.7h2.8V34h5.7v-2.8h-5.7v-8.6z"/><path id="Rechteck_2097" class="st2" d="M28.4 0h5.7v2.8h-5.7z"/><path id="Rechteck_2098" class="st2" d="M36.9 0h5.7v2.8h-5.7z"/><path id="Pfad_2484" class="st2" d="M16.8 5.7l-1-2.8H8.5v2.8h3L3.7 28.3H0v2.8h5.3c.3 0 .5-.1.7-.3.2-.2.3-.4.4-.6l2.3-6.8h10.9l2.3 6.8c.1.2.2.5.4.7.2.2.5.3.7.3h5.3v-2.8h-3.7L16.8 5.7zM9.6 20.6l3.8-11.5c.3-.9.5-1.8.7-2.7.1.5.2 1 .4 1.5.1.5.2.9.4 1.2l3.8 11.5H9.6z"/></g></g></g><g id="Gruppe_1911" transform="translate(-11 -17.829)"><circle id="Ellipse_26" class="st1" cx="1105.8" cy="413.8" r="39.8"/><g id="block-imagemap-2" transform="translate(1084 395.03)"><path id="Pfad_2481" class="st2" d="M4 5.9h35.8v16l3 2.6V3H1v29.8h20.9v-3H4V5.9z"/><path id="Rechteck_2093" class="st2" d="M13 9h3v6h-3z"/><path id="Rechteck_2094" class="st2" d="M7 15h6v3H7z"/><path id="Rechteck_2095" class="st2" d="M16 15h6v3h-6z"/><path id="Rechteck_2096" class="st2" d="M13 18h3v6h-3z"/><path id="Pfad_2482" class="st2" d="M24.8 11.9v27.9l9.2-7.2 11.5-2-20.7-18.7z"/></g></g><g id="Gruppe_1910" transform="translate(-30 18.683)"><circle id="Ellipse_14" class="st1" cx="1033.6" cy="494.6" r="38.6"/><g id="Gruppe_1847" transform="translate(1014 480)"><path id="Pfad_2435" class="st2" d="M39.7 0H0v28.3h29.3c2.3 4.3 4.7 8.1 5.5 7.8.7-.3 0-3.8-1.1-7.8h5.8V0zm-2.9 25.5H33C31.5 20.2 29.7 15 29.7 15c-.7-1.6-2.5-2.4-4.2-1.8s-2.4 2.5-1.8 4.2c0 0 1.9 3.9 4.1 8.1h-25V2.8h34v22.7z"/><path id="Pfad_2436" class="st2" d="M21.1 7.6c.5.7.7 1.7.4 2.6l.1.1v.7c.3 1.3 1.6 2 2.9 1.7s2-1.6 1.7-2.9v-.1c-.5-1.4-1.4-2.6-2.6-3.5-1.8-1.2-4.6-1-4.6-.3 0 .8 1.1.6 2.1 1.7z"/><path id="Pfad_2437" class="st2" d="M9.8 14.4c.8-.1 1.3-1.3 1.2-2.7s-.8-2.6-1.6-2.5-1.3 1.3-1.2 2.7.8 2.5 1.6 2.5z"/><path id="Pfad_2438" class="st2" d="M14.6 11.3c.6-.3.6-1.6 0-2.8s-1.6-2-2.2-1.8-.6 1.6 0 2.8 1.6 2.1 2.2 1.8z"/><path id="Pfad_2439" class="st2" d="M8.9 21.5c1.9.8 4 .9 6 .2 2-.6 3.7-2 4.7-3.8 1-1.7 1.3-3.7.9-5.6-1.5 3.4-3.6 5.9-6.5 6.7-1.5.5-3 .6-4.5.3-1.7-.3-3.3-.8-4.8-1.6.9 1.8 2.4 3.1 4.2 3.8z"/></g></g></g></svg>