<?xml version="1.0" encoding="utf-8"?>
<!-- Generator: Adobe Illustrator 25.2.1, SVG Export Plug-In . SVG Version: 6.00 Build 0)  -->
<svg version="1.1" id="Ebene_1" xmlns="http://www.w3.org/2000/svg" xmlns:xlink="http://www.w3.org/1999/xlink" x="0px" y="0px"
	 viewBox="0 0 771.9 324.4" style="enable-background:new 0 0 771.9 324.4;" xml:space="preserve">
<style type="text/css">
	.st0{fill:none;stroke:#E7EBF0;stroke-width:10;}
	.st1{fill:#E7EBF0;}
	.st2{fill:#28497C;}
	.st3{fill:#FFFFFF;}
	.st4{fill:#D60000;}
</style>
<g id="Gruppe_1924" transform="translate(-484 -240.313)">
	<line id="Linie_46" class="st0" x1="1113.9" y1="299.5" x2="862.5" y2="454.5"/>
	<line id="Linie_50" class="st0" x1="1003.5" y1="310.5" x2="862.5" y2="454.5"/>
	<line id="Linie_51" class="st0" x1="934.5" y1="279.5" x2="862.5" y2="454.5"/>
	<line id="Linie_52" class="st0" x1="835.5" y1="313.5" x2="862.5" y2="454.5"/>
	<line id="Linie_53" class="st0" x1="750.5" y1="313.5" x2="862.5" y2="454.5"/>
	<line id="Linie_54" class="st0" x1="643.5" y1="359.5" x2="862.5" y2="454.5"/>
	<line id="Linie_55" class="st0" x1="534.5" y1="377.5" x2="862.5" y2="454.5"/>
	<line id="Linie_56" class="st0" x1="529.5" y1="485.5" x2="862.5" y2="454.5"/>
	<line id="Linie_57" class="st0" x1="636.5" y1="508.5" x2="862.5" y2="454.5"/>
	<line id="Linie_58" class="st0" x1="1101.5" y1="530.5" x2="862.5" y2="454.5"/>
	<line id="Linie_59" class="st0" x1="1197.5" y1="454.5" x2="862.5" y2="454.5"/>
	<line id="Linie_60" class="st0" x1="1094.5" y1="399.5" x2="862.5" y2="454.5"/>
	<g id="Gruppe_1907" transform="translate(64 -26.666)">
		<circle id="Ellipse_31" class="st1" cx="470.2" cy="404.2" r="50.2"/>
		<g id="Gruppe_1863" transform="translate(446 379)">
			<path id="Pfad_2456" class="st2" d="M7.1,17.9H0v14.3h7.1l10.7,7.1h3.6V10.8h-3.6L7.1,17.9z"/>
			<path id="Pfad_2457" class="st2" d="M39.2,0l-2.5,2.5C49,14.9,49,35,36.7,47.4l2.5,2.5C52.9,36.1,52.9,13.8,39.2,0z"/>
			<path id="Pfad_2458" class="st2" d="M34.2,4.9l-2.5,2.5c9.6,9.7,9.6,25.3,0,35h0l2.5,2.5C45.3,33.9,45.3,16,34.2,4.9z"/>
			<path id="Pfad_2459" class="st2" d="M29.2,9.9l-2.5,2.5c6.9,6.9,6.9,18.1,0,25l2.5,2.5C37.5,31.7,37.5,18.2,29.2,9.9z"/>
		</g>
	</g>
	<g id="Gruppe_1913" transform="translate(-35 25.396)">
		<circle id="Ellipse_30" class="st1" cx="1232.5" cy="429.5" r="58.5"/>
		<g id="Gruppe_1880" transform="translate(1210 400)">
			<path id="Pfad_2468" class="st2" d="M29.2,55.5l12.6-11.6H29.2V55.5z"/>
			<path id="Pfad_2469" class="st2" d="M0,0v58.5h25.7V40.5h18.1V0H0z M40.1,36.4H21.8v18.3h-18V3.5h36.2V36.4z"/>
			<rect id="Rechteck_2081" x="7.2" y="7.2" class="st2" width="11" height="11"/>
			<rect id="Rechteck_2082" x="21.9" y="7.2" class="st2" width="14.6" height="3.7"/>
			<rect id="Rechteck_2083" x="21.9" y="14.5" class="st2" width="14.6" height="3.7"/>
			<rect id="Rechteck_2084" x="7.2" y="21.8" class="st2" width="29.2" height="3.7"/>
			<rect id="Rechteck_2085" x="7.2" y="29.1" class="st2" width="29.2" height="3.7"/>
		</g>
	</g>
	<g id="Gruppe_1914" transform="translate(6 8.365)">
		<circle id="Ellipse_32" class="st1" cx="637.3" cy="351.3" r="40.3"/>
		<g id="vote" transform="translate(619 336)">
			<path id="Pfad_2471" class="st2" d="M25.9,0h-8.3v24.1h8.3V0z M14.4,12.9H6.1v11.2h8.3L14.4,12.9z M29.1,7.3v16.8h8.3V7.3H29.1z
				 M2.9,5.3H0v24.9l2.1,0v0h35.3v-2.9H2.9L2.9,5.3z"/>
		</g>
	</g>
	<g id="Gruppe_1906" transform="translate(17.628 22.818)">
		<circle id="Ellipse_16" class="st1" cx="733.3" cy="290.3" r="50.3"/>
		<g id="dialog-cards" transform="translate(706.008 270)">
			<g id="Gruppe_1881" transform="translate(0 0)">
				<path id="Pfad_2472" class="st2" d="M0,39.9h48.5V5.2H0V39.9z M3.5,8.7h41.6v27.7H3.5V8.7z"/>
				<path id="Pfad_2473" class="st2" d="M4.3,0v3.5h46.8v32.9h3.5V0H4.3z"/>
				<rect id="Rechteck_2088" x="8.6" y="15.9" class="st2" width="7.4" height="13.3"/>
				<rect id="Rechteck_2089" x="32.1" y="24.8" class="st2" width="7.4" height="4.3"/>
				<rect id="Rechteck_2090" x="20.4" y="24.8" class="st2" width="7.4" height="4.3"/>
				<rect id="Rechteck_2091" x="20.4" y="15.9" class="st2" width="19.2" height="4.3"/>
			</g>
		</g>
	</g>
	<g id="Ellipse_35" transform="translate(700.63 367.65)">
		<ellipse class="st3" cx="162.8" cy="93.7" rx="162.8" ry="93.7"/>
		<ellipse class="st0" cx="162.8" cy="93.7" rx="157.8" ry="88.7"/>
	</g>
	<g id="Gruppe_1912" transform="translate(-40.129 -22.897)">
		<circle id="Ellipse_34" class="st1" cx="1154" cy="321" r="49"/>
		<g id="Gruppe_1883" transform="translate(1130 304)">
			<path id="Pfad_2474" class="st2" d="M0,0v34.9h48.8V0H0z M45.3,3.5v23.4l-10.1-7.4l-7.7,6L16.2,15.3L3.5,27V3.5H45.3z"/>
			<circle id="Ellipse_33" class="st2" cx="34.5" cy="10.7" r="3.5"/>
		</g>
	</g>
	<circle id="Ellipse_36" class="st1" cx="1003.6" cy="310.7" r="24.3"/>
	<circle id="Ellipse_37" class="st1" cx="835.7" cy="313.1" r="21.9"/>
	<circle id="Ellipse_38" class="st1" cx="1101.3" cy="530.7" r="27.7"/>
	<circle id="Ellipse_39" class="st1" cx="764.3" cy="533.3" r="30.3"/>
	<circle id="Ellipse_40" class="st1" cx="529.9" cy="485.6" r="27.7"/>
	<g id="courseware" transform="translate(761.786 350.894)">
		<path id="Pfad_2421" class="st2" d="M116.3,14.1L100.2,0L84.1,14.1l16.1,7.5L116.3,14.1z"/>
		<path id="Pfad_2422" class="st4" d="M144.3,38.6l-16.1-14.1l-28,14l-28-14L56.1,38.6L100.4,65L144.3,38.6z"/>
		<path id="Pfad_2423" class="st2" d="M172.3,63.1l-16.1-14.1l-55.8,38.5L44.1,49.1L28,63.1l72.4,55.9L172.3,63.1z"/>
		<path id="Pfad_2424" class="st2" d="M184.3,73.6l-83.9,69.8L16.1,73.6L0,87.7l100.2,87.7l100.2-87.7L184.3,73.6z"/>
	</g>
	<g id="Gruppe_1908" transform="translate(-32.343 34.334)">
		<circle id="Ellipse_25" class="st1" cx="668.7" cy="471.7" r="58.7"/>
		<g id="Gruppe_1864" transform="translate(635 442)">
			<path id="Pfad_2460" class="st2" d="M2.1,16.6l64.2-6.7l-0.8-7.2C65.4,1.1,64.1,0,62.6,0c-0.1,0-0.2,0-0.3,0L2.6,6.3
				C1,6.5-0.1,7.9,0,9.5c0,0,0,0,0,0l0.8,7.2h0V53c0,3.3,2.6,5.9,5.9,5.9h54.1c3.3,0,5.9-2.6,5.9-5.9V16.6H2.1z M10.5,21.3l-5,5v-5
				H10.5z M60.8,54.2H6.7c-0.7,0-1.2-0.5-1.2-1.2v0V30.7h2.2l9.4-9.4h4.5l-9.4,9.4h6.7l9.4-9.4h4.5l-9.4,9.4H30l9.4-9.4h4.5
				l-9.4,9.4h6.7l9.4-9.4H55l-9.4,9.4h6.7l9.4-9.4H62v4.2l-5.2,5.2H62V53C62,53.7,61.4,54.2,60.8,54.2L60.8,54.2z"/>
			<path id="Pfad_2461" class="st2" d="M26.7,51.9l14.1-9.4l-14.1-9.4L26.7,51.9z"/>
		</g>
	</g>
	<g id="Gruppe_1909" transform="translate(-79.909 -56.465)">
		<circle id="Ellipse_24" class="st1" cx="1014" cy="336.3" r="39.5"/>
		<g id="block-typewriter" transform="translate(991.342 316.896)">
			<g id="Gruppe_1905" transform="translate(-0.001 1.97)">
				<path id="Pfad_2483" class="st2" d="M36.9,22.6h2.8v-2.8h-2.8V2.9H34v16.9h-2.8v2.8H34v8.5h-5.7V34H34v-2.7h2.8V34h5.7v-2.8
					h-5.7V22.6z"/>
				<rect id="Rechteck_2097" x="28.4" y="0" class="st2" width="5.7" height="2.8"/>
				<rect id="Rechteck_2098" x="36.9" y="0" class="st2" width="5.7" height="2.8"/>
				<path id="Pfad_2484" class="st2" d="M16.8,5.7l-1-2.8H8.5v2.8h3L3.7,28.3H0v2.8h5.3c0.3,0,0.5-0.1,0.7-0.3
					c0.2-0.2,0.3-0.4,0.4-0.6l2.3-6.8h10.9l2.3,6.8c0.1,0.2,0.2,0.5,0.4,0.7c0.2,0.2,0.5,0.3,0.7,0.3h5.3v-2.8h-3.7L16.8,5.7z
					 M9.6,20.6l3.8-11.5c0.3-0.9,0.5-1.8,0.7-2.7c0.1,0.5,0.2,1,0.4,1.5c0.1,0.5,0.2,0.9,0.4,1.2l3.8,11.5H9.6z"/>
			</g>
		</g>
	</g>
	<g id="Gruppe_1911" transform="translate(-11 -17.829)">
		<circle id="Ellipse_26" class="st1" cx="1105.8" cy="413.8" r="39.8"/>
		<g id="block-imagemap-2" transform="translate(1084 395.03)">
			<path id="Pfad_2481" class="st2" d="M4,5.9h35.8v16l3,2.6V3H1v29.8h20.9v-3H4V5.9z"/>
			<rect id="Rechteck_2093" x="13" y="9" class="st2" width="3" height="6"/>
			<rect id="Rechteck_2094" x="7" y="15" class="st2" width="6" height="3"/>
			<rect id="Rechteck_2095" x="16" y="15" class="st2" width="6" height="3"/>
			<rect id="Rechteck_2096" x="13" y="18" class="st2" width="3" height="6"/>
			<path id="Pfad_2482" class="st2" d="M24.8,11.9l0,27.9l9.2-7.2l11.5-2L24.8,11.9z"/>
		</g>
	</g>
	<g id="Gruppe_1910" transform="translate(-30 18.683)">
		<circle id="Ellipse_14" class="st1" cx="1033.6" cy="494.6" r="38.6"/>
		<g id="Gruppe_1847" transform="translate(1014 480)">
			<path id="Pfad_2435" class="st2" d="M39.7,0H0v28.3h29.3c2.3,4.3,4.7,8.1,5.5,7.8c0.7-0.3,0-3.8-1.1-7.8h5.8V0z M36.8,25.5H33
				C31.5,20.2,29.7,15,29.7,15c-0.7-1.6-2.5-2.4-4.2-1.8s-2.4,2.5-1.8,4.2l0,0c0,0,1.9,3.9,4.1,8.1h-25V2.8h34L36.8,25.5z"/>
			<path id="Pfad_2436" class="st2" d="M21.1,7.6c0.5,0.7,0.7,1.7,0.4,2.6c0,0,0.1,0.1,0.1,0.1c0,0.2,0,0.5,0,0.7
				c0.3,1.3,1.6,2,2.9,1.7s2-1.6,1.7-2.9c0,0,0-0.1,0-0.1c-0.5-1.4-1.4-2.6-2.6-3.5C21.8,5,19,5.2,19,5.9C19,6.7,20.1,6.5,21.1,7.6z
				"/>
			<path id="Pfad_2437" class="st2" d="M9.8,14.4c0.8-0.1,1.3-1.3,1.2-2.7s-0.8-2.6-1.6-2.5s-1.3,1.3-1.2,2.7S9,14.4,9.8,14.4z"/>
			<path id="Pfad_2438" class="st2" d="M14.6,11.3c0.6-0.3,0.6-1.6,0-2.8s-1.6-2-2.2-1.8s-0.6,1.6,0,2.8S14,11.6,14.6,11.3z"/>
			<path id="Pfad_2439" class="st2" d="M8.9,21.5c1.9,0.8,4,0.9,6,0.2c2-0.6,3.7-2,4.7-3.8c1-1.7,1.3-3.7,0.9-5.6
				C19,15.7,16.9,18.2,14,19c-1.5,0.5-3,0.6-4.5,0.3c-1.7-0.3-3.3-0.8-4.8-1.6C5.6,19.5,7.1,20.8,8.9,21.5z"/>
		</g>
	</g>
</g>
</svg>
