<?xml version="1.0" encoding="utf-8"?>
<!-- Generator: Adobe Illustrator 25.2.3, SVG Export Plug-In . SVG Version: 6.00 Build 0)  -->
<svg version="1.1" id="Ebene_1" xmlns="http://www.w3.org/2000/svg" xmlns:xlink="http://www.w3.org/1999/xlink" x="0px" y="0px"
	 viewBox="0 0 770 400" style="enable-background:new 0 0 770 400;" xml:space="preserve">
<style type="text/css">
	.st0{fill:#E7EBF0;}
	.st1{fill:#FFFFFF;}
	.st2{fill:#28497D;}
	.st3{fill-rule:evenodd;clip-rule:evenodd;fill:#28497D;}
</style>
<g>
	<polygon class="st0" points="708.2,215.2 708.2,206.3 549,206.3 549,165.6 635.7,165.6 635.7,156.8 549,156.8 549,108.2 
		540.2,108.2 540.2,206.3 376.5,206.3 376.5,215.2 540.2,215.2 540.2,291.2 541.9,291.2 541.9,291.2 599.4,291.2 599.4,282.4 
		549,282.4 549,215.2 	"/>
	<polygon class="st0" points="218.2,201 380.1,201 380.1,192.2 218.2,192.2 218.2,133.8 218.2,133.8 218.2,125 218.2,125 209.4,125 
		124.5,125 124.5,133.8 209.4,133.8 209.4,192.2 43.1,192.2 43.1,201 209.4,201 209.4,220.5 156.3,220.5 156.3,221.4 156.3,229.3 
		156.3,308.9 165.1,308.9 165.1,229.3 336.7,229.3 336.7,220.5 218.2,220.5 	"/>
</g>
<g id="Ellipse_50" transform="translate(260.202 79.202)">
	<g>
		<ellipse class="st1" cx="120.1" cy="131.7" rx="144" ry="82.9"/>
	</g>
	<g>
		<path class="st0" d="M120.1,214.6c-38,0-73.8-8.4-100.9-23.5c-27.8-15.6-43.1-36.7-43.1-59.3S-8.5,88,19.3,72.4
			c27-15.2,62.8-23.5,100.9-23.5S194,57.2,221,72.4c27.8,15.6,43.1,36.7,43.1,59.3s-15.3,43.7-43.1,59.3
			C194,206.3,158.1,214.6,120.1,214.6z M120.1,57.7c-36.5,0-70.8,8-96.5,22.4C-1.3,94.1-15,112.4-15,131.7s13.7,37.6,38.6,51.6
			c25.7,14.5,60,22.4,96.5,22.4c36.5,0,70.8-8,96.5-22.4c24.9-14,38.6-32.3,38.6-51.6s-13.7-37.6-38.6-51.6
			C190.9,65.7,156.7,57.7,120.1,57.7z"/>
	</g>
</g>
<g id="Ellipse_25_1_">
	<circle class="st0" cx="604" cy="286.8" r="36.9"/>
</g>
<g id="Ellipse_57">
	<circle class="st0" cx="160.7" cy="300.1" r="39.8"/>
</g>
<g id="Ellipse_52">
	<circle class="st0" cx="715.5" cy="210.9" r="48"/>
</g>
<g id="Ellipse_56">
	<circle class="st0" cx="43.1" cy="196.8" r="36.9"/>
</g>
<g id="Ellipse_53">
	<circle class="st0" cx="544.6" cy="99.3" r="41.3"/>
</g>
<g id="Ellipse_54">
	<circle class="st0" cx="618" cy="161.2" r="36.9"/>
</g>
<g id="Ellipse_55">
	<circle class="st0" cx="140.4" cy="129.4" r="48.6"/>
</g>
<g id="folder-home-full" transform="translate(355.031 110.667)">
	<g id="home" transform="translate(33.943 43.59)">
		<g id="Pfad_2491">
			<path class="st2" d="M-16.4,40.2l-22.4,23h3.6V85h12.3v-17h12.9v17H2.3V63.2H6L-16.4,40.2z"/>
		</g>
	</g>
	<g id="Gruppe_1928" transform="translate(-0.001 0.97)">
		<g id="Pfad_2492">
			<path class="st2" d="M-34.8,142.4H69.9V67.6H-34.8V142.4z M-27.3,75h89.8v59.9h-89.8V75z"/>
		</g>
		<g id="Pfad_2493">
			<path class="st2" d="M32.5,52.8v-0.2c0-4.1-3.3-7.5-7.5-7.5c0,0,0,0,0,0H2.6c-4.1,0-7.5,3.3-7.5,7.5c0,0,0,0,0,0v0.2h-15v7.3
				h97.3v67.6h7.5V52.8H32.5z"/>
		</g>
	</g>
</g>
<g id="file-text_1_" transform="translate(156.628 248.999)">
	<g id="Rechteck_2106">
		<rect x="-5.1" y="36.1" class="st2" width="10.2" height="10.2"/>
	</g>
	<g id="Rechteck_2107">
		<rect x="8.5" y="36.1" class="st2" width="6.8" height="3.4"/>
	</g>
	<g id="Rechteck_2108">
		<rect x="8.5" y="42.9" class="st2" width="6.8" height="3.4"/>
	</g>
	<g id="Rechteck_2109">
		<rect x="-5.1" y="49.7" class="st2" width="20.4" height="3.4"/>
	</g>
	<g id="Rechteck_2110">
		<rect x="-5.1" y="56.5" class="st2" width="20.4" height="2.9"/>
	</g>
	<g id="Pfad_2494">
		<path class="st2" d="M-11.9,29.2v47.2H9c1.8,0,3.5-0.7,4.8-2l6.1-6.2c1.2-1.3,1.9-3,1.9-4.7V29.2H-11.9z M11.7,71.7v-5.3h5.2
			L11.7,71.7z M18.4,59.6c0,1.9-1.5,3.4-3.4,3.4h0H8.3v6.6C8.3,71.5,6.8,73,5,73c0,0,0,0,0,0H-8.4V32.7h26.8V59.6z"/>
	</g>
</g>
<g id="file-pic2" transform="translate(779.327 138.883)">
	<g id="Gruppe_1929" transform="translate(0 0)">
		<g id="Pfad_2495">
			<path class="st2" d="M-83.8,42v62.9H-56c2.4,0,4.7-1,6.4-2.7l8.1-8.2c1.7-1.7,2.6-3.9,2.6-6.3V42H-83.8z M-52.4,98.4v-7h6.9
				L-52.4,98.4z M-48,86.9h-8.8v8.8c0,2.5-2,4.5-4.5,4.5c0,0,0,0,0,0h-17.8V82.4h35.6C-43.5,84.9-45.5,86.9-48,86.9
				C-48,86.9-48,86.9-48,86.9z M-50.1,66.7l-8.7,7.4l-13.8-14.1l-6.6,7.9V46.6h35.6V71L-50.1,66.7z"/>
		</g>
		<g id="Ellipse_51">
			<ellipse class="st2" cx="-56.8" cy="55.7" rx="4.6" ry="4.6"/>
		</g>
	</g>
</g>
<g id="file-video2" transform="translate(677.297 94.521)">
	<g id="Pfad_2496">
		<path class="st2" d="M-72,47.1v42.6h18.9c1.6,0,3.2-0.7,4.3-1.8l5.5-5.6c1.1-1.1,1.7-2.7,1.7-4.3v-31H-72z M-68.9,50.2h24.2v24.3
			c0,1.7-1.4,3-3,3c0,0,0,0,0,0h-6v6c0,1.7-1.4,3-3,3c0,0,0,0,0,0h-12.1V50.2z M-50.7,85.3v-4.8h4.7L-50.7,85.3z"/>
	</g>
	<g id="Gruppe_1930" transform="translate(9.418 6.959)">
		<g id="Pfad_2497">
			<path class="st2" d="M-73.1,64.6l13.8-9.2l-13.8-9.2L-73.1,64.6z"/>
		</g>
	</g>
</g>
<g id="file-pdf" transform="translate(126.702 47.53)">
	<g id="Pfad_2498">
		<path class="st3" d="M21,79c2.7,2.1,4.9,1.2,4.5,0.8C24.6,78.6,22.7,78.6,21,79z M24.5,77.8c-2-0.6-4.1-0.5-6.1,0.1
			c-2.8-1.2-4.8-3.5-5.6-6.4c-2.2-7.1,0-9.4,0.1-5l0.5,3c0,0,1.5-3.8,0.5-6.5c-0.9-2.4-3.4-2-3.5,2.4c0,2.3,0.2,4.5,0.8,6.7
			c-1.5,4.3-3.4,8.4-5.8,12.2C2,89.5,1.8,87.8,2.6,86c1-2.1,2.6-3.2,3.2-4c0,0-2.5,0.2-4.5,3.6c-1.2,2.1-1.4,7.5,3.9,1.7
			c1.3-1.5,2.4-3.2,3.2-5c0,0,3.1-1.4,10.5-2.8c1.4,1,2.9,1.7,4.6,2.1C26.7,82.3,30.1,79.7,24.5,77.8L24.5,77.8z M9.3,80l2.7-6.2
			c1.8,3.8,4.3,4.6,4.3,4.6C15.2,78.5,9.3,80,9.3,80z"/>
	</g>
	<g id="Pfad_2499">
		<path class="st2" d="M-8.4,52.5v62.9h27.8c2.4,0,4.7-1,6.4-2.7l8.1-8.2c1.7-1.7,2.6-3.9,2.6-6.3V52.5H-8.4z M-3.8,57.1h35.6v35.8
			c0,2.5-2,4.5-4.5,4.5c0,0,0,0,0,0h-8.8v8.8c0,2.5-2,4.5-4.5,4.5c0,0,0,0,0,0H-3.8V57.1z M23,109v-7h6.9L23,109z"/>
	</g>
</g>
<g id="file-spreadsheet" transform="translate(25.526 134.357)">
	<g id="Gruppe_1931" transform="translate(0 0)">
		<g id="Rechteck_2111">
			<rect x="9.3" y="51" class="st2" width="4.6" height="9.7"/>
		</g>
		<g id="Rechteck_2112">
			<rect x="16.2" y="48.6" class="st2" width="4.6" height="12.2"/>
		</g>
		<g id="Rechteck_2113">
			<rect x="23" y="53.4" class="st2" width="4.6" height="7.3"/>
		</g>
		<g id="Rechteck_2114">
			<rect x="9.4" y="63.4" class="st2" width="18.6" height="3.5"/>
		</g>
		<g id="Pfad_2500">
			<path class="st2" d="M3.2,42.5V85h18.8c1.6,0,3.2-0.7,4.3-1.8l5.5-5.5c1.1-1.1,1.7-2.7,1.7-4.3V42.5H3.2z M6.4,45.6h24.1v24.2
				c0,1.7-1.4,3-3,3c0,0,0,0,0,0h-6v6c0,1.7-1.4,3-3,3c0,0,0,0,0,0H6.4V45.6z M24.5,80.7v-4.8h4.7L24.5,80.7z"/>
		</g>
	</g>
</g>
<g id="file-presentation" transform="translate(590.489 18.404)">
	<g id="Gruppe_1932" transform="translate(0 0)">
		<g id="Pfad_2501">
			<path class="st2" d="M-47.7,73.5c2,0,3.6-1.6,3.6-3.6c0-2-1.6-3.6-3.6-3.6c-2,0-3.6,1.6-3.6,3.6c0,0,0,0,0,0
				C-51.3,71.9-49.7,73.5-47.7,73.5C-47.7,73.5-47.7,73.5-47.7,73.5z"/>
		</g>
		<g id="Pfad_2502">
			<path class="st2" d="M-62,55.9v50.1h22.2c1.9,0,3.8-0.8,5.1-2.1l6.4-6.5c1.3-1.3,2.1-3.1,2.1-5V55.9H-62z M-29.9,59.6v17.8h-10.9
				c-0.5-1.4-1.9-2.3-3.4-2.3h-7c-1.5,0-2.8,0.9-3.4,2.3h-3.7V59.6H-29.9z M-37,100.8v-5.6h5.5L-37,100.8z M-29.9,88.1
				c0,2-1.6,3.6-3.6,3.6c0,0,0,0,0,0h-7v7c0,2-1.6,3.6-3.6,3.6c0,0,0,0,0,0h-14.2V80.9h3.5v3.6h14.3v-3.6h10.6L-29.9,88.1z"/>
		</g>
		<g id="Rechteck_2115">
			<rect x="-40.5" y="63.1" class="st2" width="7.1" height="7.1"/>
		</g>
	</g>
</g>
<g id="file-archive" transform="translate(659.727 235.61)">
	<g id="Gruppe_1933" transform="translate(0 0)">
		<g id="Rechteck_2116">
			<rect x="-55" y="42.9" class="st2" width="2.7" height="2.7"/>
		</g>
		<g id="Rechteck_2117">
			<rect x="-55" y="49" class="st2" width="2.7" height="2.7"/>
		</g>
		<g id="Rechteck_2118">
			<rect x="-57.6" y="51.7" class="st2" width="2.7" height="3.5"/>
		</g>
		<g id="Rechteck_2119">
			<rect x="-55" y="55.2" class="st2" width="2.7" height="2.7"/>
		</g>
		<g id="Rechteck_2120">
			<rect x="-57.6" y="57.9" class="st2" width="2.7" height="2.7"/>
		</g>
		<g id="Rechteck_2121">
			<rect x="-57.6" y="64.1" class="st2" width="2.7" height="2.7"/>
		</g>
		<g id="Pfad_2503">
			<path class="st2" d="M-70,30.8v42.5h18.8c1.6,0,3.2-0.7,4.3-1.8l5.5-5.5c1.1-1.1,1.7-2.7,1.7-4.3V30.8H-70z M-57.9,37.6
				c0.3-0.4,0.8-0.7,1.3-0.7h0.2c0.2,0,0.4,0.1,0.5,0.2c0.7,0.4,0.9,1.3,0.5,2c-0.4,0.7-1.3,0.9-2,0.5
				C-58.1,39.1-58.3,38.2-57.9,37.6C-57.9,37.6-57.9,37.6-57.9,37.6z M-48.7,69v-4.8h4.7L-48.7,69z M-42.8,58.1c0,1.7-1.4,3-3,3
				c0,0,0,0,0,0h-6v6c0,1.7-1.4,3-3,3c0,0,0,0,0,0h-12.1V33.9h8.9V36c-0.3,0.1-0.5,0.3-0.7,0.6l0,0l-3.5,4.1h0
				c-0.1,0.2-0.3,0.3-0.4,0.5c-1,1.7-0.5,3.9,1.2,4.9c1.1,0.6,2.4,0.6,3.4,0.1V49h3v-3h-2.6c0.4-0.3,0.8-0.7,1.1-1.1
				c0.1-0.2,0.2-0.4,0.3-0.6l0,0l0.5-1.4h0.7v-2l0.4-1.1h2.6v-6h9L-42.8,58.1z"/>
		</g>
	</g>
</g>
</svg>
