<?xml version="1.0" encoding="utf-8"?>
<!-- Generator: Adobe Illustrator 25.3.0, SVG Export Plug-In . SVG Version: 6.00 Build 0)  -->
<svg version="1.1" id="Ebene_1" xmlns="http://www.w3.org/2000/svg" xmlns:xlink="http://www.w3.org/1999/xlink" x="0px" y="0px"
	 viewBox="0 0 770 400" style="enable-background:new 0 0 770 400;" xml:space="preserve">
<style type="text/css">
	.st0{fill:#FFFFFF;}
	.st1{fill:#28497D;}
	.st2{fill-rule:evenodd;clip-rule:evenodd;fill:#28497D;}
</style>
<g>
	<ellipse class="st0" cx="380.3" cy="210.9" rx="144" ry="82.9"/>
</g>
<path class="st0" d="M715.5,162.9c-25,0-45.5,19-47.8,43.4H549v-40.7h32.4c2.2,18.3,17.7,32.5,36.6,32.5c20.4,0,36.9-16.5,36.9-36.9
	c0-20.4-16.5-36.9-36.9-36.9c-18.9,0-34.5,14.2-36.6,32.5H549v-16.4c20.7-2.2,36.9-19.7,36.9-41.1c0-22.8-18.5-41.3-41.3-41.3
	s-41.3,18.5-41.3,41.3c0,21.3,16.2,38.9,36.9,41.1v65.9h-16.1c-1.9-20.9-17-40.2-42.9-54.7c-27-15.2-62.7-23.5-100.8-23.5
	c-38.1,0-73.9,8.3-100.9,23.5c-19.9,11.2-33.5,25.2-39.5,40.6h-21.8v-58.4V125h-8.8h-20.6c-2.2-24.8-23-44.2-48.4-44.2
	c-26.8,0-48.6,21.8-48.6,48.6c0,26.8,21.8,48.6,48.6,48.6c25.4,0,46.2-19.4,48.4-44.2h20.6v58.4H79.7c-2.3-18.2-17.8-32.3-36.6-32.3
	c-20.4,0-36.9,16.5-36.9,36.9c0,20.4,16.5,36.9,36.9,36.9c19,0,34.6-14.3,36.7-32.7h129.6v19.5h-53.1v0.9v7.9v31.2
	c-19.9,2.2-35.4,19.1-35.4,39.6c0,22,17.8,39.8,39.8,39.8c22,0,39.8-17.8,39.8-39.8c0-20.5-15.5-37.4-35.4-39.6v-31.2h74.7
	c6,15.5,19.5,29.7,39.7,41c27.1,15.1,62.9,23.5,100.9,23.5s73.9-8.3,100.9-23.6c26-14.6,41.1-34,42.9-55h16.1v76h1.7h25.5
	c2.2,18.3,17.7,32.5,36.6,32.5c20.4,0,36.9-16.5,36.9-36.9c0-20.4-16.5-36.9-36.9-36.9c-18.9,0-34.5,14.2-36.6,32.5H549v-67.2h118.7
	c2.2,24.5,22.7,43.7,47.8,43.7c26.5,0,48-21.5,48-48C763.5,184.4,742,162.9,715.5,162.9z M237.2,220.5h-19V201h19.1
	c-0.7,3.3-1,6.6-1,10C236.3,214.2,236.6,217.4,237.2,220.5z M476.8,262.5c-25.7,14.4-60,22.4-96.5,22.4s-70.8-7.9-96.5-22.4
	c-24.9-14-38.6-32.3-38.6-51.6c0-19.3,13.7-37.6,38.6-51.6c25.7-14.4,60-22.4,96.5-22.4c36.6,0,70.8,8,96.5,22.4
	c24.9,14,38.6,32.3,38.6,51.6S501.7,248.5,476.8,262.5z"/>
<g id="folder-home-full" transform="translate(355.031 110.667)">
	<g id="home" transform="translate(33.943 43.59)">
		<g id="Pfad_2491">
			<path class="st1" d="M-16.4,40.2l-22.4,23h3.6V85h12.3V68H-10v17H2.3V63.2H6L-16.4,40.2z"/>
		</g>
	</g>
	<g id="Gruppe_1928" transform="translate(-0.001 0.97)">
		<g id="Pfad_2492">
			<path class="st1" d="M-34.8,142.4H69.9V67.6H-34.8V142.4z M-27.3,75h89.8v59.9h-89.8V75z"/>
		</g>
		<g id="Pfad_2493">
			<path class="st1" d="M32.5,52.8v-0.2c0-4.1-3.3-7.5-7.5-7.5l0,0H2.6c-4.1,0-7.5,3.3-7.5,7.5l0,0v0.2h-15v7.3h97.3v67.6h7.5V52.8
				H32.5z"/>
		</g>
	</g>
</g>
<g id="file-text_1_" transform="translate(156.628 248.999)">
	<g id="Rechteck_2106">
		<rect x="-5.1" y="36.1" class="st1" width="10.2" height="10.2"/>
	</g>
	<g id="Rechteck_2107">
		<rect x="8.5" y="36.1" class="st1" width="6.8" height="3.4"/>
	</g>
	<g id="Rechteck_2108">
		<rect x="8.5" y="42.9" class="st1" width="6.8" height="3.4"/>
	</g>
	<g id="Rechteck_2109">
		<rect x="-5.1" y="49.7" class="st1" width="20.4" height="3.4"/>
	</g>
	<g id="Rechteck_2110">
		<rect x="-5.1" y="56.5" class="st1" width="20.4" height="2.9"/>
	</g>
	<g id="Pfad_2494">
		<path class="st1" d="M-11.9,29.2v47.2H9c1.8,0,3.5-0.7,4.8-2l6.1-6.2c1.2-1.3,1.9-3,1.9-4.7V29.2H-11.9z M11.7,71.7v-5.3h5.2
			L11.7,71.7z M18.4,59.6c0,1.9-1.5,3.4-3.4,3.4l0,0H8.3v6.6C8.3,71.5,6.8,73,5,73l0,0H-8.4V32.7h26.8V59.6z"/>
	</g>
</g>
<g id="file-pic2" transform="translate(779.327 138.883)">
	<g id="Gruppe_1929" transform="translate(0 0)">
		<g id="Pfad_2495">
			<path class="st1" d="M-83.8,42v62.9H-56c2.4,0,4.7-1,6.4-2.7l8.1-8.2c1.7-1.7,2.6-3.9,2.6-6.3V42H-83.8z M-52.4,98.4v-7h6.9
				L-52.4,98.4z M-48,86.9h-8.8v8.8c0,2.5-2,4.5-4.5,4.5l0,0h-17.8V82.4h35.6C-43.5,84.9-45.5,86.9-48,86.9L-48,86.9z M-50.1,66.7
				l-8.7,7.4L-72.6,60l-6.6,7.9V46.6h35.6V71L-50.1,66.7z"/>
		</g>
		<g id="Ellipse_51">
			<ellipse class="st1" cx="-56.8" cy="55.7" rx="4.6" ry="4.6"/>
		</g>
	</g>
</g>
<g id="file-video2" transform="translate(677.297 94.521)">
	<g id="Pfad_2496">
		<path class="st1" d="M-72,47.1v42.6h18.9c1.6,0,3.2-0.7,4.3-1.8l5.5-5.6c1.1-1.1,1.7-2.7,1.7-4.3V47H-72V47.1z M-68.9,50.2h24.2
			v24.3c0,1.7-1.4,3-3,3l0,0h-6v6c0,1.7-1.4,3-3,3l0,0h-12.1L-68.9,50.2L-68.9,50.2z M-50.7,85.3v-4.8h4.7L-50.7,85.3z"/>
	</g>
	<g id="Gruppe_1930" transform="translate(9.418 6.959)">
		<g id="Pfad_2497">
			<path class="st1" d="M-73.1,64.6l13.8-9.2l-13.8-9.2V64.6z"/>
		</g>
	</g>
</g>
<g id="file-pdf" transform="translate(126.702 47.53)">
	<g id="Pfad_2498">
		<path class="st2" d="M21,79c2.7,2.1,4.9,1.2,4.5,0.8C24.6,78.6,22.7,78.6,21,79z M24.5,77.8c-2-0.6-4.1-0.5-6.1,0.1
			c-2.8-1.2-4.8-3.5-5.6-6.4c-2.2-7.1,0-9.4,0.1-5l0.5,3c0,0,1.5-3.8,0.5-6.5c-0.9-2.4-3.4-2-3.5,2.4c0,2.3,0.2,4.5,0.8,6.7
			c-1.5,4.3-3.4,8.4-5.8,12.2C2,89.5,1.8,87.8,2.6,86c1-2.1,2.6-3.2,3.2-4c0,0-2.5,0.2-4.5,3.6c-1.2,2.1-1.4,7.5,3.9,1.7
			c1.3-1.5,2.4-3.2,3.2-5c0,0,3.1-1.4,10.5-2.8c1.4,1,2.9,1.7,4.6,2.1C26.7,82.3,30.1,79.7,24.5,77.8L24.5,77.8z M9.3,80l2.7-6.2
			c1.8,3.8,4.3,4.6,4.3,4.6C15.2,78.5,9.3,80,9.3,80z"/>
	</g>
	<g id="Pfad_2499">
		<path class="st1" d="M-8.4,52.5v62.9h27.8c2.4,0,4.7-1,6.4-2.7l8.1-8.2c1.7-1.7,2.6-3.9,2.6-6.3V52.5H-8.4z M-3.8,57.1h35.6v35.8
			c0,2.5-2,4.5-4.5,4.5l0,0h-8.8v8.8c0,2.5-2,4.5-4.5,4.5l0,0H-3.8V57.1z M23,109v-7h6.9L23,109z"/>
	</g>
</g>
<g id="file-spreadsheet" transform="translate(25.526 134.357)">
	<g id="Gruppe_1931" transform="translate(0 0)">
		<g id="Rechteck_2111">
			<rect x="9.3" y="51" class="st1" width="4.6" height="9.7"/>
		</g>
		<g id="Rechteck_2112">
			<rect x="16.2" y="48.6" class="st1" width="4.6" height="12.2"/>
		</g>
		<g id="Rechteck_2113">
			<rect x="23" y="53.4" class="st1" width="4.6" height="7.3"/>
		</g>
		<g id="Rechteck_2114">
			<rect x="9.4" y="63.4" class="st1" width="18.6" height="3.5"/>
		</g>
		<g id="Pfad_2500">
			<path class="st1" d="M3.2,42.5V85H22c1.6,0,3.2-0.7,4.3-1.8l5.5-5.5c1.1-1.1,1.7-2.7,1.7-4.3V42.5H3.2z M6.4,45.6h24.1v24.2
				c0,1.7-1.4,3-3,3l0,0h-6v6c0,1.7-1.4,3-3,3l0,0H6.4V45.6z M24.5,80.7v-4.8h4.7L24.5,80.7z"/>
		</g>
	</g>
</g>
<g id="file-presentation" transform="translate(590.489 18.404)">
	<g id="Gruppe_1932" transform="translate(0 0)">
		<g id="Pfad_2501">
			<path class="st1" d="M-47.7,73.5c2,0,3.6-1.6,3.6-3.6s-1.6-3.6-3.6-3.6s-3.6,1.6-3.6,3.6l0,0C-51.3,71.9-49.7,73.5-47.7,73.5
				L-47.7,73.5z"/>
		</g>
		<g id="Pfad_2502">
			<path class="st1" d="M-62,55.9V106h22.2c1.9,0,3.8-0.8,5.1-2.1l6.4-6.5c1.3-1.3,2.1-3.1,2.1-5V55.9H-62z M-29.9,59.6v17.8h-10.9
				c-0.5-1.4-1.9-2.3-3.4-2.3h-7c-1.5,0-2.8,0.9-3.4,2.3h-3.7V59.6H-29.9z M-37,100.8v-5.6h5.5L-37,100.8z M-29.9,88.1
				c0,2-1.6,3.6-3.6,3.6l0,0h-7v7c0,2-1.6,3.6-3.6,3.6l0,0h-14.2V80.9h3.5v3.6h14.3v-3.6h10.6V88.1z"/>
		</g>
		<g id="Rechteck_2115">
			<rect x="-40.5" y="63.1" class="st1" width="7.1" height="7.1"/>
		</g>
	</g>
</g>
<g id="file-archive" transform="translate(659.727 235.61)">
	<g id="Gruppe_1933" transform="translate(0 0)">
		<g id="Rechteck_2116">
			<rect x="-55" y="42.9" class="st1" width="2.7" height="2.7"/>
		</g>
		<g id="Rechteck_2117">
			<rect x="-55" y="49" class="st1" width="2.7" height="2.7"/>
		</g>
		<g id="Rechteck_2118">
			<rect x="-57.6" y="51.7" class="st1" width="2.7" height="3.5"/>
		</g>
		<g id="Rechteck_2119">
			<rect x="-55" y="55.2" class="st1" width="2.7" height="2.7"/>
		</g>
		<g id="Rechteck_2120">
			<rect x="-57.6" y="57.9" class="st1" width="2.7" height="2.7"/>
		</g>
		<g id="Rechteck_2121">
			<rect x="-57.6" y="64.1" class="st1" width="2.7" height="2.7"/>
		</g>
		<g id="Pfad_2503">
			<path class="st1" d="M-70,30.8v42.5h18.8c1.6,0,3.2-0.7,4.3-1.8l5.5-5.5c1.1-1.1,1.7-2.7,1.7-4.3V30.8H-70z M-57.9,37.6
				c0.3-0.4,0.8-0.7,1.3-0.7h0.2c0.2,0,0.4,0.1,0.5,0.2c0.7,0.4,0.9,1.3,0.5,2s-1.3,0.9-2,0.5C-58.1,39.1-58.3,38.2-57.9,37.6
				L-57.9,37.6z M-48.7,69v-4.8h4.7L-48.7,69z M-42.8,58.1c0,1.7-1.4,3-3,3l0,0h-6v6c0,1.7-1.4,3-3,3l0,0h-12.1V33.9h8.9V36
				c-0.3,0.1-0.5,0.3-0.7,0.6l0,0l-3.5,4.1l0,0c-0.1,0.2-0.3,0.3-0.4,0.5c-1,1.7-0.5,3.9,1.2,4.9c1.1,0.6,2.4,0.6,3.4,0.1V49h3v-3
				h-2.6c0.4-0.3,0.8-0.7,1.1-1.1c0.1-0.2,0.2-0.4,0.3-0.6l0,0l0.5-1.4h0.7v-2l0.4-1.1h2.6v-6h9L-42.8,58.1z"/>
		</g>
	</g>
</g>
</svg>
