<?xml version="1.0" encoding="utf-8"?>
<!-- Generator: Adobe Illustrator 25.2.3, SVG Export Plug-In . SVG Version: 6.00 Build 0)  -->
<svg version="1.1" id="Ebene_1" xmlns="http://www.w3.org/2000/svg" xmlns:xlink="http://www.w3.org/1999/xlink" x="0px" y="0px"
	 viewBox="0 0 841.9 595.3" style="enable-background:new 0 0 841.9 595.3;" xml:space="preserve">
<style type="text/css">
	.st0{fill:#E7EBF1;}
	.st1{fill:#FFFFFF;}
	.st2{fill:#28497D;}
	.st3{fill-rule:evenodd;clip-rule:evenodd;fill:#28497D;}
</style>
<g>
	<polygon class="st0" points="744.7,313.9 744.7,305 585.5,305 585.5,264.3 672.2,264.3 672.2,255.5 585.5,255.5 585.5,206.8 
		576.6,206.8 576.6,305 413,305 413,313.9 576.6,313.9 576.6,389.9 578.4,389.9 578.4,389.9 635.9,389.9 635.9,381.1 585.5,381.1 
		585.5,313.9 	"/>
	<polygon class="st0" points="254.7,299.7 416.5,299.7 416.5,290.9 254.7,290.9 254.7,232.5 254.7,232.5 254.7,223.6 254.7,223.6 
		245.8,223.6 160.9,223.6 160.9,232.5 245.8,232.5 245.8,290.9 79.5,290.9 79.5,299.7 245.8,299.7 245.8,319.2 192.8,319.2 
		192.8,320.1 192.8,328 192.8,407.6 201.6,407.6 201.6,328 373.2,328 373.2,319.2 254.7,319.2 	"/>
</g>
<g id="Ellipse_50" transform="translate(260.202 79.202)">
	<g>
		<ellipse class="st1" cx="156.6" cy="230.4" rx="144" ry="82.9"/>
	</g>
	<g>
		<path class="st0" d="M156.6,313.3c-38,0-73.8-8.4-100.9-23.5c-27.8-15.6-43.1-36.7-43.1-59.3s15.3-43.7,43.1-59.3
			c27-15.2,62.8-23.5,100.9-23.5s73.8,8.4,100.9,23.5c27.8,15.6,43.1,36.7,43.1,59.3s-15.3,43.7-43.1,59.3
			C230.4,304.9,194.6,313.3,156.6,313.3z M156.6,156.4c-36.5,0-70.8,8-96.5,22.4c-24.9,14-38.6,32.3-38.6,51.6S35.2,268,60.1,282
			c25.7,14.5,60,22.4,96.5,22.4c36.5,0,70.8-8,96.5-22.4c24.9-14,38.6-32.3,38.6-51.6s-13.7-37.6-38.6-51.6
			C227.4,164.3,193.1,156.4,156.6,156.4z"/>
	</g>
</g>
<g id="Ellipse_25_1_">
	<circle class="st0" cx="640.5" cy="385.5" r="36.9"/>
</g>
<g id="Ellipse_57">
	<circle class="st0" cx="197.2" cy="398.8" r="39.8"/>
</g>
<g id="Ellipse_52">
	<circle class="st0" cx="751.9" cy="309.6" r="48"/>
</g>
<g id="Ellipse_56">
	<circle class="st0" cx="79.5" cy="295.5" r="36.9"/>
</g>
<g id="Ellipse_53">
	<circle class="st0" cx="581.1" cy="198" r="41.3"/>
</g>
<g id="Ellipse_54">
	<circle class="st0" cx="654.5" cy="259.9" r="36.9"/>
</g>
<g id="Ellipse_55">
	<circle class="st0" cx="176.8" cy="228.1" r="48.6"/>
</g>
<g id="folder-home-full" transform="translate(355.031 110.667)">
	<g id="home" transform="translate(33.943 43.59)">
		<g id="Pfad_2491">
			<path class="st2" d="M20.1,127.9l-22.4,23h3.6v21.7h12.3v-17h12.9v17h12.3v-21.7h3.6L20.1,127.9z"/>
		</g>
	</g>
	<g id="Gruppe_1928" transform="translate(-0.001 0.97)">
		<g id="Pfad_2492">
			<path class="st2" d="M1.7,230.1h104.7v-74.8H1.7V230.1z M9.1,162.7h89.8v59.9H9.1V162.7z"/>
		</g>
		<g id="Pfad_2493">
			<path class="st2" d="M69,140.5v-0.2c0-4.1-3.3-7.5-7.5-7.5c0,0,0,0,0,0H39.1c-4.1,0-7.5,3.3-7.5,7.5c0,0,0,0,0,0v0.2h-15v7.3
				h97.3v67.6h7.5v-74.8H69z"/>
		</g>
	</g>
</g>
<g id="file-text_1_" transform="translate(156.628 248.999)">
	<g id="Rechteck_2106">
		<rect x="31.4" y="134.7" class="st2" width="10.2" height="10.2"/>
	</g>
	<g id="Rechteck_2107">
		<rect x="45" y="134.7" class="st2" width="6.8" height="3.4"/>
	</g>
	<g id="Rechteck_2108">
		<rect x="45" y="141.6" class="st2" width="6.8" height="3.4"/>
	</g>
	<g id="Rechteck_2109">
		<rect x="31.4" y="148.4" class="st2" width="20.4" height="3.4"/>
	</g>
	<g id="Rechteck_2110">
		<rect x="31.4" y="155.2" class="st2" width="20.4" height="2.9"/>
	</g>
	<g id="Pfad_2494">
		<path class="st2" d="M24.6,127.9v47.2h20.9c1.8,0,3.5-0.7,4.8-2l6.1-6.2c1.2-1.3,1.9-3,1.9-4.7v-34.3H24.6z M48.2,170.3V165h5.2
			L48.2,170.3z M54.8,158.3c0,1.9-1.5,3.4-3.4,3.4h0h-6.6v6.6c0,1.9-1.5,3.4-3.4,3.4c0,0,0,0,0,0H28.1v-40.3h26.8V158.3z"/>
	</g>
</g>
<g id="file-pic2" transform="translate(779.327 138.883)">
	<g id="Gruppe_1929" transform="translate(0 0)">
		<g id="Pfad_2495">
			<path class="st2" d="M-47.3,140.7v62.9h27.8c2.4,0,4.7-1,6.4-2.7l8.1-8.2c1.7-1.7,2.6-3.9,2.6-6.3v-45.7H-47.3z M-15.9,197.1v-7
				H-9L-15.9,197.1z M-11.6,185.6h-8.8v8.8c0,2.5-2,4.5-4.5,4.5c0,0,0,0,0,0h-17.8v-17.8h35.6C-7.1,183.5-9.1,185.6-11.6,185.6
				C-11.6,185.6-11.6,185.6-11.6,185.6z M-13.7,165.4l-8.7,7.4l-13.8-14.1l-6.6,7.9v-21.3h35.6v24.4L-13.7,165.4z"/>
		</g>
		<g id="Ellipse_51">
			<ellipse class="st2" cx="-20.3" cy="154.4" rx="4.6" ry="4.6"/>
		</g>
	</g>
</g>
<g id="file-video2" transform="translate(677.297 94.521)">
	<g id="Pfad_2496">
		<path class="st2" d="M-35.6,145.8v42.6h18.9c1.6,0,3.2-0.7,4.3-1.8l5.5-5.6c1.1-1.1,1.7-2.7,1.7-4.3v-31H-35.6z M-32.4,148.9h24.2
			v24.3c0,1.7-1.4,3-3,3c0,0,0,0,0,0h-6v6c0,1.7-1.4,3-3,3c0,0,0,0,0,0h-12.1V148.9z M-14.3,184v-4.8h4.7L-14.3,184z"/>
	</g>
	<g id="Gruppe_1930" transform="translate(9.418 6.959)">
		<g id="Pfad_2497">
			<path class="st2" d="M-36.7,163.3l13.8-9.2l-13.8-9.2L-36.7,163.3z"/>
		</g>
	</g>
</g>
<g id="file-pdf" transform="translate(126.702 47.53)">
	<g id="Pfad_2498">
		<path class="st3" d="M57.5,177.7c2.7,2.1,4.9,1.2,4.5,0.8C61,177.3,59.2,177.3,57.5,177.7z M60.9,176.5c-2-0.6-4.1-0.5-6.1,0.1
			c-2.8-1.2-4.8-3.5-5.6-6.4c-2.2-7.1,0-9.4,0.1-5l0.5,3c0,0,1.5-3.8,0.5-6.5c-0.9-2.4-3.4-2-3.5,2.4c0,2.3,0.2,4.5,0.8,6.7
			c-1.5,4.3-3.4,8.4-5.8,12.2c-3.3,5.2-3.6,3.5-2.7,1.7c1-2.1,2.6-3.2,3.2-4c0,0-2.5,0.2-4.5,3.6c-1.2,2.1-1.4,7.5,3.9,1.7
			c1.3-1.5,2.4-3.2,3.2-5c0,0,3.1-1.4,10.5-2.8c1.4,1,2.9,1.7,4.6,2.1C63.2,181,66.5,178.3,60.9,176.5L60.9,176.5z M45.8,178.7
			l2.7-6.2c1.8,3.8,4.3,4.6,4.3,4.6C51.7,177.2,45.8,178.7,45.8,178.7z"/>
	</g>
	<g id="Pfad_2499">
		<path class="st2" d="M28,151.2v62.9h27.8c2.4,0,4.7-1,6.4-2.7l8.1-8.2c1.7-1.7,2.6-3.9,2.6-6.3v-45.7H28z M32.7,155.8h35.6v35.8
			c0,2.5-2,4.5-4.5,4.5c0,0,0,0,0,0H55v8.8c0,2.5-2,4.5-4.5,4.5c0,0,0,0,0,0H32.7V155.8z M59.5,207.6v-7h6.9L59.5,207.6z"/>
	</g>
</g>
<g id="file-spreadsheet" transform="translate(25.526 134.357)">
	<g id="Gruppe_1931" transform="translate(0 0)">
		<g id="Rechteck_2111">
			<rect x="45.8" y="149.7" class="st2" width="4.6" height="9.7"/>
		</g>
		<g id="Rechteck_2112">
			<rect x="52.6" y="147.2" class="st2" width="4.6" height="12.2"/>
		</g>
		<g id="Rechteck_2113">
			<rect x="59.5" y="152.1" class="st2" width="4.6" height="7.3"/>
		</g>
		<g id="Rechteck_2114">
			<rect x="45.9" y="162.1" class="st2" width="18.6" height="3.5"/>
		</g>
		<g id="Pfad_2500">
			<path class="st2" d="M39.7,141.2v42.5h18.8c1.6,0,3.2-0.7,4.3-1.8l5.5-5.5c1.1-1.1,1.7-2.7,1.7-4.3v-30.9H39.7z M42.8,144.3H67
				v24.2c0,1.7-1.4,3-3,3c0,0,0,0,0,0h-6v6c0,1.7-1.4,3-3,3c0,0,0,0,0,0H42.8V144.3z M61,179.4v-4.8h4.7L61,179.4z"/>
		</g>
	</g>
</g>
<g id="file-presentation" transform="translate(590.489 18.404)">
	<g id="Gruppe_1932" transform="translate(0 0)">
		<g id="Pfad_2501">
			<path class="st2" d="M-11.2,172.2c2,0,3.6-1.6,3.6-3.6c0-2-1.6-3.6-3.6-3.6s-3.6,1.6-3.6,3.6c0,0,0,0,0,0
				C-14.8,170.6-13.2,172.2-11.2,172.2C-11.2,172.2-11.2,172.2-11.2,172.2z"/>
		</g>
		<g id="Pfad_2502">
			<path class="st2" d="M-25.5,154.6v50.1h22.2c1.9,0,3.8-0.8,5.1-2.1l6.4-6.5c1.3-1.3,2.1-3.1,2.1-5v-36.4H-25.5z M6.5,158.3V176
				H-4.4c-0.5-1.4-1.9-2.3-3.4-2.3h-7c-1.5,0-2.8,0.9-3.4,2.3h-3.7v-17.8H6.5z M-0.5,199.5v-5.6H5L-0.5,199.5z M6.5,186.7
				c0,2-1.6,3.6-3.6,3.6c0,0,0,0,0,0h-7v7c0,2-1.6,3.6-3.6,3.6c0,0,0,0,0,0h-14.2v-21.3h3.5v3.6h14.3v-3.6H6.5L6.5,186.7z"/>
		</g>
		<g id="Rechteck_2115">
			<rect x="-4" y="161.8" class="st2" width="7.1" height="7.1"/>
		</g>
	</g>
</g>
<g id="file-archive" transform="translate(659.727 235.61)">
	<g id="Gruppe_1933" transform="translate(0 0)">
		<g id="Rechteck_2116">
			<rect x="-18.5" y="141.5" class="st2" width="2.7" height="2.7"/>
		</g>
		<g id="Rechteck_2117">
			<rect x="-18.5" y="147.7" class="st2" width="2.7" height="2.7"/>
		</g>
		<g id="Rechteck_2118">
			<rect x="-21.2" y="150.4" class="st2" width="2.7" height="3.5"/>
		</g>
		<g id="Rechteck_2119">
			<rect x="-18.5" y="153.9" class="st2" width="2.7" height="2.7"/>
		</g>
		<g id="Rechteck_2120">
			<rect x="-21.2" y="156.6" class="st2" width="2.7" height="2.7"/>
		</g>
		<g id="Rechteck_2121">
			<rect x="-21.2" y="162.8" class="st2" width="2.7" height="2.7"/>
		</g>
		<g id="Pfad_2503">
			<path class="st2" d="M-33.5,129.5V172h18.8c1.6,0,3.2-0.7,4.3-1.8l5.5-5.5c1.1-1.1,1.7-2.7,1.7-4.3v-30.9H-33.5z M-21.4,136.2
				c0.3-0.4,0.8-0.7,1.3-0.7h0.2c0.2,0,0.4,0.1,0.5,0.2c0.7,0.4,0.9,1.3,0.5,2c-0.4,0.7-1.3,0.9-2,0.5
				C-21.6,137.8-21.8,136.9-21.4,136.2C-21.4,136.2-21.4,136.2-21.4,136.2z M-12.3,167.7v-4.8h4.7L-12.3,167.7z M-6.3,156.8
				c0,1.7-1.4,3-3,3c0,0,0,0,0,0h-6v6c0,1.7-1.4,3-3,3c0,0,0,0,0,0h-12.1v-36.3h8.9v2.1c-0.3,0.1-0.5,0.3-0.7,0.6l0,0l-3.5,4.1h0
				c-0.1,0.2-0.3,0.3-0.4,0.5c-1,1.7-0.5,3.9,1.2,4.9c1.1,0.6,2.4,0.6,3.4,0.1v2.8h3v-3H-21c0.4-0.3,0.8-0.7,1.1-1.1
				c0.1-0.2,0.2-0.4,0.3-0.6l0,0l0.5-1.4h0.7v-2l0.4-1.1h2.6v-6h9L-6.3,156.8z"/>
		</g>
	</g>
</g>
</svg>
