<?xml version="1.0" encoding="utf-8"?>
<!-- Generator: Adobe Illustrator 25.3.0, SVG Export Plug-In . SVG Version: 6.00 Build 0)  -->
<svg version="1.1" id="Ebene_1" xmlns="http://www.w3.org/2000/svg" xmlns:xlink="http://www.w3.org/1999/xlink" x="0px" y="0px"
	 viewBox="0 0 691.3 408.1" style="enable-background:new 0 0 691.3 408.1;" xml:space="preserve">
<style type="text/css">
	.st0{fill:#FFFFFF;}
	.st1{fill:#28497C;}
</style>
<path class="st0" d="M663.7,285.8c-12.1,0-22.3,7.8-26,18.6l-129.3-20.8c3.6-7.9,5.5-16.1,5.5-24.5c0-4.5-0.6-9-1.6-13.4l33.3-4.7
	c7.3,24.2,29.7,41.8,56.2,41.8c32.4,0,58.7-26.3,58.7-58.7c0-32.4-26.3-58.7-58.7-58.7s-58.7,26.3-58.7,58.7c0,2.4,0.2,4.8,0.5,7.2
	l-34.4,4.9c-5.7-13.3-16.4-25.6-31.5-36.2l133.6-73c5,6.5,12.9,10.6,21.7,10.6c15.2,0,27.5-12.3,27.5-27.5
	c0-15.2-12.3-27.5-27.5-27.5s-27.5,12.3-27.5,27.5c0,2.8,0.4,5.4,1.2,8l-138.5,75.8c-1-0.6-2-1.2-3-1.7c-8.5-4.8-17.8-9-27.7-12.5
	l27-28.5c9.2,7.4,20.8,11.9,33.5,11.9c29.4,0,53.3-23.9,53.3-53.3s-23.9-53.3-53.3-53.3s-53.3,23.9-53.3,53.3
	c0,13.1,4.8,25.1,12.6,34.4L426.9,176c-23.1-6.9-48.9-10.6-75.7-10.6c-2.2,0-4.3,0-6.5,0.1l-5.5-46.5c27.4-5.6,48.1-29.8,48.1-58.9
	c0-33.2-26.9-60.1-60.1-60.1s-60.1,26.9-60.1,60.1s26.9,60.1,60.1,60.1c0.7,0,1.4,0,2.1-0.1l5.4,45.7c-20,1.1-39.2,4.3-56.9,9.4
	l-22.9-25.1c2.8-4.3,4.4-9.4,4.4-14.9c0-15.2-12.3-27.5-27.5-27.5s-27.5,12.3-27.5,27.5c0,15.2,12.3,27.5,27.5,27.5
	c6.1,0,11.7-2,16.3-5.3l19.3,21.1c-10.5,3.6-20.2,7.9-29.2,12.9l-70.5-41.1c3.3-6.4,5.2-13.7,5.2-21.4c0-25.7-20.8-46.5-46.5-46.5
	S79.7,103.4,79.7,129c0,25.7,20.8,46.5,46.5,46.5c14.4,0,27.2-6.5,35.8-16.8l66.3,38.7c-18.6,12.2-31.1,26.8-36.6,42.6L79.6,227.2
	c-0.3-21.7-18-39.2-39.8-39.2C17.8,188,0,205.8,0,227.8c0,22,17.8,39.8,39.8,39.8c18.8,0,34.5-13,38.7-30.5l110.6,12.6
	c-0.5,3.1-0.8,6.2-0.8,9.4c0,4,0.4,7.9,1.2,11.8l-33.2,2.6c-3-11.9-13.8-20.7-26.7-20.7c-15.2,0-27.5,12.3-27.5,27.5
	s12.3,27.5,27.5,27.5c14.1,0,25.7-10.6,27.3-24.3l35.6-2.8c2.6,6.5,6.4,12.8,11.3,18.7c-8.1,8.3-13.2,19.6-13.2,32.1
	c0,25.2,20.5,45.7,45.7,45.7c21,0,38.7-14.2,44.1-33.5c21.7,6,45.8,9.2,70.6,9.2c37.9,0,73.9-7.4,102.8-20.9l19.7,12
	c-2.9,5.9-4.5,12.5-4.5,19.5c0,24.7,20,44.7,44.7,44.7s44.7-20,44.7-44.7s-20-44.7-44.7-44.7c-14.1,0-26.7,6.6-34.9,16.8l-14.6-8.9
	c0.2-0.1,0.5-0.3,0.7-0.4c17-9.6,29.9-20.9,38.1-33.3l133,21.4c0.5,14.7,12.6,26.5,27.5,26.5c15.2,0,27.5-12.3,27.5-27.5
	S678.9,285.8,663.7,285.8z M460.2,317.5c-29,16.3-67.8,25.3-109.1,25.3c-24.4,0-47.9-3.2-69.1-9.1c0-0.7,0.1-1.5,0.1-2.2
	c0-25.2-20.5-45.7-45.7-45.7c-9.1,0-17.6,2.7-24.8,7.3c-8.7-10.6-13.3-22.1-13.3-34c0-21.8,15.5-42.6,43.7-58.4
	c29-16.3,67.8-25.3,109.1-25.3s80.1,9,109.1,25.3c28.2,15.9,43.7,36.6,43.7,58.4C503.9,280.9,488.4,301.7,460.2,317.5z"/>
<g id="Gruppe_1926" transform="translate(-444.254 -284.392)">
	<g id="Gruppe_1890" transform="translate(923 262.551)">
		<g id="Pfad_2460">
			<path class="st1" d="M95.2,235.1l57.7-6.1l-0.6-6.5c-0.2-1.3-1.3-2.3-2.6-2.3c-0.1,0-0.2,0-0.3,0l-53.8,5.7
				c-1.4,0.1-2.4,1.4-2.3,2.8l0,0l0.7,6.5l0,0v32.7c0,2.9,2.4,5.3,5.3,5.3l0,0h48.6c2.9,0,5.3-2.4,5.3-5.3l0,0v-32.8H95.2z
				 M102.7,239.4l-4.4,4.4v-4.5L102.7,239.4L102.7,239.4z M148,269H99.3c-0.6,0-1.1-0.5-1.1-1.1l0,0v-20.1h2l8.5-8.5h4l-8.4,8.5h6
				l8.5-8.5h4l-8.5,8.5h6l8.5-8.5h4l-8.5,8.5h6l8.5-8.5h4l-8.5,8.5h6l8.5-8.5h0.3v3.8l-4.7,4.7h4.7v20.1
				C149.1,268.5,148.6,269,148,269L148,269z"/>
		</g>
		<g id="Pfad_2461">
			<path class="st1" d="M117,266.7l13.3-8.9L117,249V266.7z"/>
		</g>
	</g>
	<g id="Gruppe_1891" transform="translate(428.473 378.932)">
		<g id="Pfad_2456">
			<path class="st1" d="M235,230h-7v13.7h7l10.5,6.9h3.5v-27.5h-3.5L235,230z"/>
		</g>
		<g id="Pfad_2457">
			<path class="st1" d="M265.9,212.5l-2.5,2.4c12,11.9,12.1,31.3,0.2,43.3c-0.1,0.1-0.2,0.2-0.2,0.2l2.5,2.4
				c13.4-13.2,13.5-34.8,0.3-48.1C266.1,212.7,266,212.6,265.9,212.5z"/>
		</g>
		<g id="Pfad_2458">
			<path class="st1" d="M261.1,217.3l-2.5,2.4c9.3,9.2,9.4,24.3,0.2,33.6c-0.1,0.1-0.2,0.2-0.2,0.2l0,0l2.5,2.4
				c10.6-10.4,10.8-27.6,0.2-38.3C261.2,217.5,261.1,217.4,261.1,217.3z"/>
		</g>
		<g id="Pfad_2459">
			<path class="st1" d="M256.3,222.2l-2.5,2.4c6.6,6.5,6.7,17.2,0.2,23.8c-0.1,0.1-0.2,0.2-0.2,0.2l2.5,2.4c8-7.8,8.1-20.7,0.3-28.6
				C256.5,222.4,256.4,222.3,256.3,222.2z"/>
		</g>
	</g>
	<g id="Gruppe_1892" transform="translate(1147.031 408.167)">
		<g id="Pfad_2468">
			<path class="st1" d="M-197.2,12.9l13-12h-13V12.9z"/>
		</g>
		<g id="Pfad_2469">
			<path class="st1" d="M-227.5-44.6V16h26.6V-2.5h18.7v-42.1H-227.5z M-185.9-6.8h-19v19h-18.6v-53.1h37.6V-6.8z"/>
		</g>
		<g id="Rechteck_2081">
			<rect x="-220" y="-37.1" class="st1" width="11.4" height="11.4"/>
		</g>
		<g id="Rechteck_2082">
			<rect x="-204.8" y="-37.1" class="st1" width="15.2" height="3.8"/>
		</g>
		<g id="Rechteck_2083">
			<rect x="-204.8" y="-29.6" class="st1" width="15.2" height="3.8"/>
		</g>
		<g id="Rechteck_2084">
			<rect x="-220" y="-22" class="st1" width="30.3" height="3.8"/>
		</g>
		<g id="Rechteck_2085">
			<rect x="-220" y="-14.4" class="st1" width="30.3" height="3.8"/>
		</g>
	</g>
	<g id="courseware" transform="translate(732 218.702)">
		<g id="Pfad_2421">
			<path class="st1" d="M45.7,96.3l-6.4-5.6l-6.4,5.6l6.4,2.9L45.7,96.3z"/>
		</g>
		<g id="Pfad_2422">
			<path class="st1" d="M56.7,105.9l-6.4-5.6l-11,5.6l-11.1-5.5l-6.4,5.6l17.5,10.4L56.7,105.9z"/>
		</g>
		<g id="Pfad_2423">
			<path class="st1" d="M68.2,115.6l-6.5-5.6l-22.3,15.3l-22.6-15.2l-6.5,5.6l29,22.1L68.2,115.6z"/>
		</g>
		<g id="Pfad_2424">
			<path class="st1" d="M72.9,119.8l-33.5,27.5L5.7,119.8l-6.4,5.5l40,34.6l40-34.6L72.9,119.8z"/>
		</g>
	</g>
	<g id="block-imagemap-2" transform="translate(1084 395.03)">
		<g id="Pfad_2481">
			<path class="st1" d="M-617.7,104.3h35.8v16l3,2.6v-21.5h-41.8v29.8h20.9v-3h-17.9V104.3z"/>
		</g>
		<g id="Rechteck_2093">
			<rect x="-608.7" y="107.4" class="st1" width="3" height="6"/>
		</g>
		<g id="Rechteck_2094">
			<rect x="-614.7" y="113.4" class="st1" width="6" height="3"/>
		</g>
		<g id="Rechteck_2095">
			<rect x="-605.7" y="113.4" class="st1" width="6" height="3"/>
		</g>
		<g id="Rechteck_2096">
			<rect x="-608.7" y="116.4" class="st1" width="3" height="6"/>
		</g>
		<g id="Pfad_2482">
			<path class="st1" d="M-596.9,110.3v27.9l9.2-7.2l11.5-2L-596.9,110.3z"/>
		</g>
	</g>
	<g id="Gruppe_1915" transform="translate(25 96.557)">
		<g id="group2" transform="translate(633.012 356.735)">
			<g id="Pfad_2475">
				<path class="st1" d="M24.4,52.6c9.1,0,16.5-7.4,16.5-16.5s-7.4-16.5-16.5-16.5S8,27,7.9,36.1C7.9,45.2,15.2,52.6,24.4,52.6
					C24.3,52.6,24.4,52.6,24.4,52.6z"/>
			</g>
			<g id="Pfad_2476">
				<path class="st1" d="M31.8,60.4h-15C8.1,60.4,1,67.5,1,76.3v20.6h46.7V76.3C47.7,67.5,40.6,60.4,31.8,60.4z"/>
			</g>
			<g id="Pfad_2477">
				<path class="st1" d="M106.3,72.1c9.1,0,16.5-7.4,16.5-16.5s-7.4-16.5-16.5-16.5s-16.5,7.4-16.5,16.5l0,0
					C89.8,64.7,97.2,72.1,106.3,72.1L106.3,72.1z"/>
			</g>
			<g id="Pfad_2478">
				<path class="st1" d="M113.8,79.9h-15C90,79.9,83,87,82.9,95.7v20.6h46.7V95.7C129.6,87,122.6,79.9,113.8,79.9z"/>
			</g>
			<g id="Pfad_2479">
				<path class="st1" d="M60.8,34.4c9.1,0,16.5-7.4,16.5-16.5S69.9,1.4,60.8,1.4S44.3,8.8,44.3,17.9S51.7,34.3,60.8,34.4L60.8,34.4z
					"/>
			</g>
			<g id="Pfad_2480">
				<path class="st1" d="M84.1,78.7V58c0-8.8-7.1-15.8-15.9-15.9h-15c-8.5,0-15.4,6.8-15.8,15.2c8.4,2.5,14.1,10.1,14.1,18.9v2.4
					L84.1,78.7z"/>
			</g>
		</g>
	</g>
	<g id="literature2" transform="translate(649.001 286.03)">
		<g id="Gruppe_1916" transform="translate(1.999 0.97)">
			<g id="Pfad_2485">
				<path class="st1" d="M-94.2,101.8c-3.8,0-6.9,3.1-6.9,6.9v35c0,3.6,2.9,6.6,6.6,6.6h28v-38.1h-27.6c-2,0-3.5-1.6-3.5-3.5l0,0
					c0-1.9,1.5-3.4,3.4-3.4l0,0H-63v38.1h3.5v-41.6H-94.2z M-94.2,115.6H-70v31.2h-24.2c-1.9,0-3.5-1.6-3.5-3.5v-28.9
					C-96.7,115.3-95.4,115.7-94.2,115.6z"/>
			</g>
			<g id="Rechteck_2099">
				<rect x="-93.8" y="119.4" class="st1" width="20.6" height="3.4"/>
			</g>
			<g id="Rechteck_2100">
				<rect x="-93.8" y="126.3" class="st1" width="20.6" height="3.4"/>
			</g>
		</g>
	</g>
	<g id="Gruppe_1922" transform="translate(0.467 0.26)">
		<g id="Pfad_2486">
			<path class="st1" d="M818.9,458.8c9.1,0,16.5-7.4,16.5-16.5s-7.4-16.5-16.5-16.5s-16.5,7.4-16.5,16.5l0,0
				C802.4,451.4,809.8,458.8,818.9,458.8L818.9,458.8z"/>
		</g>
		<g id="Pfad_2487">
			<path class="st1" d="M826.4,466.6h-15c-8.7,0-15.8,7.1-15.8,15.9v20.6h46.7v-20.6C842.2,473.7,835.1,466.6,826.4,466.6z"/>
		</g>
	</g>
	<g id="group2-2" transform="translate(803.373 437.658)">
		<g id="Pfad_2475-2">
			<path class="st1" d="M46.7,115.5c9.1,0,16.5-7.4,16.5-16.5s-7.4-16.5-16.5-16.5S30.3,89.9,30.2,99
				C30.3,108.2,37.6,115.5,46.7,115.5L46.7,115.5z"/>
		</g>
		<g id="Pfad_2476-2">
			<path class="st1" d="M54.2,123.3h-15c-8.7,0-15.8,7.1-15.8,15.9v20.6h46.7v-20.6C70.1,130.5,63,123.4,54.2,123.3z"/>
		</g>
		<g id="Pfad_2479-2">
			<path class="st1" d="M83.2,97.3c9.1,0,16.5-7.4,16.5-16.5s-7.4-16.5-16.5-16.5s-16.5,7.4-16.5,16.5S74,97.3,83.2,97.3
				C83.1,97.3,83.1,97.3,83.2,97.3z"/>
		</g>
		<g id="Pfad_2480-2">
			<path class="st1" d="M106.5,141.6V121c0-8.8-7.1-15.8-15.9-15.9h-15c-8.5,0-15.4,6.8-15.8,15.2c8.4,2.5,14.1,10.1,14.1,18.9v2.4
				L106.5,141.6z"/>
		</g>
	</g>
	<g id="Gruppe_1896" transform="translate(-304.507 111.133)">
		<g id="picture" transform="translate(1237.929 518.378)">
			<g id="Gruppe_1883" transform="translate(0 0)">
				<g id="Pfad_2474">
					<path class="st1" d="M0,0v34.3h48V0H0z M44.6,3.4v23l-10-7.2l-7.6,6L15.9,15L3.4,26.5V3.4H44.6z"/>
				</g>
				<g id="Ellipse_33">
					<circle class="st1" cx="33.8" cy="10.6" r="3.6"/>
				</g>
			</g>
		</g>
	</g>
</g>
</svg>
