<?xml version="1.0" encoding="utf-8"?>
<!-- Generator: Adobe Illustrator 25.2.3, SVG Export Plug-In . SVG Version: 6.00 Build 0)  -->
<svg version="1.1" id="Ebene_1" xmlns="http://www.w3.org/2000/svg" xmlns:xlink="http://www.w3.org/1999/xlink" x="0px" y="0px"
	 viewBox="0 0 691.3 408.1" style="enable-background:new 0 0 691.3 408.1;" xml:space="preserve">
<style type="text/css">
	.st0{fill:#E7EBF0;}
	.st1{fill:#28497C;}
</style>
<g id="Gruppe_1926" transform="translate(-444.254 -284.392)">
	<g>
		<path class="st0" d="M877.5,468.3l68.6-72.4l-7.3-6.9l-71.8,75.8C870.6,465.9,874.1,467.1,877.5,468.3z"/>
		<path class="st0" d="M789.5,454.8l-13-110.8l-9.9,1.2l12.9,110.1C782.8,455,786.1,454.8,789.5,454.8z"/>
		<path class="st0" d="M915.5,487.8l164.4-89.9l-4.8-8.8L906,481.6C909.3,483.5,912.5,485.6,915.5,487.8z"/>
		<path class="st0" d="M1045.8,507.5L945,521.7c1.4,3.2,2.5,6.4,3.2,9.6l99-13.9L1045.8,507.5z"/>
		<path class="st0" d="M726.1,464.2l-41.9-46l-7.4,6.7l38.8,42.6C719,466.3,722.5,465.2,726.1,464.2z"/>
		<path class="st0" d="M688.5,479.5L573,412.2l-5,8.6l110.7,64.6C681.8,483.4,685.1,481.4,688.5,479.5z"/>
		<path class="st0" d="M892.1,612.6l60.8,37.1l5.2-8.5l-55.5-33.9C899.2,609.2,895.7,610.9,892.1,612.6z"/>
		<path class="st0" d="M944.3,566.6c-1.5,3.2-3.3,6.3-5.3,9.3l164.7,26.5l1.6-9.9L944.3,566.6z"/>
		<path class="st0" d="M644.4,525.4l-156.3-17.9l-1.1,9.9l154.9,17.7C642.4,531.9,643.2,528.6,644.4,525.4z"/>
		<path class="st0" d="M642.4,554.6l-63.3,4.9l0.8,10l65.6-5.1C644.2,561.2,643.1,557.9,642.4,554.6z"/>
	</g>
	<g>
		<path class="st0" d="M795.4,637.2c-43,0-83.5-9.5-114-26.6c-31.4-17.7-48.8-41.5-48.8-67.1s17.3-49.4,48.8-67.1
			c30.5-17.2,71-26.6,114-26.6s83.5,9.5,114,26.6c31.4,17.7,48.8,41.5,48.8,67.1s-17.3,49.4-48.8,67.1
			C878.9,627.7,838.4,637.2,795.4,637.2z M795.4,459.8c-41.3,0-80.1,9-109.1,25.3c-28.2,15.8-43.7,36.6-43.7,58.4
			c0,21.8,15.5,42.5,43.7,58.4c29.1,16.3,67.8,25.3,109.1,25.3s80.1-9,109.1-25.3c28.2-15.8,43.7-36.6,43.7-58.4
			c0-21.8-15.5-42.5-43.7-58.4C875.5,468.8,836.7,459.8,795.4,459.8z"/>
	</g>
	<g id="Gruppe_1897" transform="translate(93.341 220.209)">
		<g id="Gruppe_1920">
			<g id="Ellipse_42">
				<circle class="st0" cx="952.7" cy="288.3" r="58.7"/>
			</g>
			<g id="Gruppe_1890" transform="translate(923 262.551)">
				<g id="Pfad_2460">
					<path class="st1" d="M1.9,14.9l57.7-6.1L59,2.3C58.8,1,57.7,0,56.4,0c-0.1,0-0.2,0-0.3,0L2.3,5.7C0.9,5.8-0.1,7.1,0,8.5l0,0
						L0.7,15l0,0v32.7C0.7,50.6,3.1,53,6,53l0,0h48.6c2.9,0,5.3-2.4,5.3-5.3l0,0V14.9H1.9z M9.4,19.2L5,23.6v-4.5h4.4V19.2z
						 M54.7,48.8H6c-0.6,0-1.1-0.5-1.1-1.1l0,0V27.6h2l8.5-8.5h4L11,27.6h6l8.5-8.5h4L21,27.6h6l8.5-8.5h4L31,27.6h6l8.5-8.5h4
						L41,27.6h6l8.5-8.5h0.3v3.8l-4.7,4.7h4.7v20.1C55.8,48.3,55.3,48.8,54.7,48.8L54.7,48.8z"/>
				</g>
				<g id="Pfad_2461">
					<path class="st1" d="M23.7,46.5L37,37.6l-13.3-8.8V46.5z"/>
				</g>
			</g>
		</g>
	</g>
	<g id="Gruppe_1899" transform="translate(228 212.475)">
		<g id="Ellipse_44">
			<circle class="st0" cx="452.7" cy="403.4" r="45.7"/>
		</g>
		<g id="Gruppe_1891" transform="translate(428.473 378.932)">
			<g id="Pfad_2456">
				<path class="st1" d="M7,17.5H0v13.7h7l10.5,6.9H21V10.6h-3.5L7,17.5z"/>
			</g>
			<g id="Pfad_2457">
				<path class="st1" d="M37.9,0l-2.5,2.4c12,11.9,12.1,31.3,0.2,43.3c-0.1,0.1-0.2,0.2-0.2,0.2l2.5,2.4
					c13.4-13.2,13.5-34.8,0.3-48.1C38.1,0.2,38,0.1,37.9,0z"/>
			</g>
			<g id="Pfad_2458">
				<path class="st1" d="M33.1,4.8l-2.5,2.4c9.3,9.2,9.4,24.3,0.2,33.6c-0.1,0.1-0.2,0.2-0.2,0.2l0,0l2.5,2.4
					C43.7,33,43.9,15.8,33.3,5.1C33.2,5,33.1,4.9,33.1,4.8z"/>
			</g>
			<g id="Pfad_2459">
				<path class="st1" d="M28.3,9.7l-2.5,2.4c6.6,6.5,6.7,17.2,0.2,23.8c-0.1,0.1-0.2,0.2-0.2,0.2l2.5,2.4c8-7.8,8.1-20.7,0.3-28.6
					C28.5,9.9,28.4,9.8,28.3,9.7z"/>
			</g>
		</g>
	</g>
	<g id="Gruppe_1895" transform="translate(-227.507 -44.567)">
		<g id="Ellipse_43">
			<circle class="st0" cx="1169.7" cy="438.5" r="53.3"/>
		</g>
		<g id="Gruppe_1892" transform="translate(1147.031 408.167)">
			<g id="Pfad_2468">
				<path class="st1" d="M30.3,57.5l13-12h-13V57.5z"/>
			</g>
			<g id="Pfad_2469">
				<path class="st1" d="M0,0v60.6h26.6V42.1h18.7V0H0z M41.6,37.8h-19v19H4V3.7h37.6V37.8z"/>
			</g>
			<g id="Rechteck_2081">
				<rect x="7.5" y="7.5" class="st1" width="11.4" height="11.4"/>
			</g>
			<g id="Rechteck_2082">
				<rect x="22.7" y="7.5" class="st1" width="15.2" height="3.8"/>
			</g>
			<g id="Rechteck_2083">
				<rect x="22.7" y="15" class="st1" width="15.2" height="3.8"/>
			</g>
			<g id="Rechteck_2084">
				<rect x="7.5" y="22.6" class="st1" width="30.3" height="3.8"/>
			</g>
			<g id="Rechteck_2085">
				<rect x="7.5" y="30.2" class="st1" width="30.3" height="3.8"/>
			</g>
		</g>
	</g>
	<g id="Gruppe_1898" transform="translate(-0.677 90.689)">
		<g id="Gruppe_1919">
			<g id="Ellipse_41">
				<circle class="st0" cx="772.1" cy="253.8" r="60.1"/>
			</g>
			<g id="courseware" transform="translate(732 218.702)">
				<g id="Pfad_2421">
					<path class="st1" d="M46.4,5.6L40,0l-6.4,5.6L40,8.5L46.4,5.6z"/>
				</g>
				<g id="Pfad_2422">
					<path class="st1" d="M57.4,15.2L51,9.6l-11,5.6L28.9,9.7l-6.4,5.6L40,25.7L57.4,15.2z"/>
				</g>
				<g id="Pfad_2423">
					<path class="st1" d="M68.9,24.9l-6.5-5.6L40.1,34.6L17.5,19.4L11,25l29,22.1L68.9,24.9z"/>
				</g>
				<g id="Pfad_2424">
					<path class="st1" d="M73.6,29.1L40.1,56.6L6.4,29.1L0,34.6l40,34.6l40-34.6L73.6,29.1z"/>
				</g>
			</g>
		</g>
	</g>
	<g id="Ellipse_46">
		<circle class="st0" cx="574" cy="564.6" r="27.5"/>
	</g>
	<g id="Ellipse_47">
		<circle class="st0" cx="676" cy="419.7" r="27.5"/>
	</g>
	<g id="Ellipse_48">
		<circle class="st0" cx="1108" cy="597.7" r="27.5"/>
	</g>
	<g id="Ellipse_49">
		<circle class="st0" cx="1077.2" cy="394.4" r="27.5"/>
	</g>
	<g id="Gruppe_1911" transform="translate(-621.746 98.375)">
		<g id="Ellipse_26">
			<circle class="st0" cx="1105.8" cy="413.8" r="39.8"/>
		</g>
		<g id="block-imagemap-2" transform="translate(1084 395.03)">
			<g id="Pfad_2481">
				<path class="st1" d="M4,5.9h35.8v16l3,2.6V3H1v29.8h20.9v-3H4V5.9z"/>
			</g>
			<g id="Rechteck_2093">
				<rect x="13" y="9" class="st1" width="3" height="6"/>
			</g>
			<g id="Rechteck_2094">
				<rect x="7" y="15" class="st1" width="6" height="3"/>
			</g>
			<g id="Rechteck_2095">
				<rect x="16" y="15" class="st1" width="6" height="3"/>
			</g>
			<g id="Rechteck_2096">
				<rect x="13" y="18" class="st1" width="3" height="6"/>
			</g>
			<g id="Pfad_2482">
				<path class="st1" d="M24.8,11.9v27.9l9.2-7.2l11.5-2L24.8,11.9z"/>
			</g>
		</g>
	</g>
	<g id="Gruppe_1915" transform="translate(25 96.557)">
		<g id="group2" transform="translate(633.012 356.735)">
			<g id="Pfad_2475">
				<path class="st1" d="M24.4,52.6c9.1,0,16.5-7.4,16.5-16.5s-7.4-16.5-16.5-16.5S8,27,7.9,36.1C7.9,45.2,15.2,52.6,24.4,52.6
					C24.3,52.6,24.4,52.6,24.4,52.6z"/>
			</g>
			<g id="Pfad_2476">
				<path class="st1" d="M31.8,60.4h-15C8.1,60.4,1,67.5,1,76.3v20.6h46.7V76.3C47.7,67.5,40.6,60.4,31.8,60.4z"/>
			</g>
			<g id="Pfad_2477">
				<path class="st1" d="M106.3,72.1c9.1,0,16.5-7.4,16.5-16.5s-7.4-16.5-16.5-16.5s-16.5,7.4-16.5,16.5l0,0
					C89.8,64.7,97.2,72.1,106.3,72.1L106.3,72.1z"/>
			</g>
			<g id="Pfad_2478">
				<path class="st1" d="M113.8,79.9h-15C90,79.9,83,87,82.9,95.7v20.6h46.7V95.7C129.6,87,122.6,79.9,113.8,79.9z"/>
			</g>
			<g id="Pfad_2479">
				<path class="st1" d="M60.8,34.4c9.1,0,16.5-7.4,16.5-16.5S69.9,1.4,60.8,1.4S44.3,8.8,44.3,17.9C44.3,27,51.7,34.3,60.8,34.4
					L60.8,34.4z"/>
			</g>
			<g id="Pfad_2480">
				<path class="st1" d="M84.1,78.7V58c0-8.8-7.1-15.8-15.9-15.9h-15c-8.5,0-15.4,6.8-15.8,15.2c8.4,2.5,14.1,10.1,14.1,18.9v2.4
					L84.1,78.7z"/>
			</g>
		</g>
	</g>
	<g id="Gruppe_1918" transform="translate(-101.102 101.849)">
		<g id="Gruppe_1917">
			<g id="Gruppe_1901" transform="translate(-86.622 71.378)">
				<g id="Ellipse_41-2">
					<circle class="st0" cx="758.2" cy="240.2" r="46.5"/>
				</g>
			</g>
			<g id="literature2" transform="translate(649.001 286.03)">
				<g id="Gruppe_1916" transform="translate(1.999 0.97)">
					<g id="Pfad_2485">
						<path class="st1" d="M6.9,0C3.1,0,0,3.1,0,6.9v35c0,3.6,2.9,6.6,6.6,6.6h28V10.4H7c-2,0-3.5-1.6-3.5-3.5l0,0
							C3.5,5,5,3.5,6.9,3.5l0,0h31.2v38.1h3.5V0H6.9z M6.9,13.8h24.2V45H6.9c-1.9,0-3.5-1.6-3.5-3.5V12.6
							C4.4,13.5,5.7,13.9,6.9,13.8z"/>
					</g>
					<g id="Rechteck_2099">
						<rect x="7.3" y="17.6" class="st1" width="20.6" height="3.4"/>
					</g>
					<g id="Rechteck_2100">
						<rect x="7.3" y="24.5" class="st1" width="20.6" height="3.4"/>
					</g>
				</g>
			</g>
		</g>
	</g>
	<g id="Gruppe_1922" transform="translate(0.467 0.26)">
		<g id="Pfad_2486">
			<path class="st1" d="M818.9,458.8c9.1,0,16.5-7.4,16.5-16.5s-7.4-16.5-16.5-16.5s-16.5,7.4-16.5,16.5l0,0
				C802.4,451.4,809.8,458.8,818.9,458.8L818.9,458.8z"/>
		</g>
		<g id="Pfad_2487">
			<path class="st1" d="M826.4,466.6h-15c-8.7,0-15.8,7.1-15.8,15.9v20.6h46.7v-20.6C842.2,473.7,835.1,466.6,826.4,466.6z"/>
		</g>
	</g>
	<g id="group2-2" transform="translate(803.373 437.658)">
		<g id="Pfad_2475-2">
			<path class="st1" d="M46.7,115.5c9.1,0,16.5-7.4,16.5-16.5s-7.4-16.5-16.5-16.5S30.3,89.9,30.2,99
				C30.3,108.2,37.6,115.5,46.7,115.5L46.7,115.5z"/>
		</g>
		<g id="Pfad_2476-2">
			<path class="st1" d="M54.2,123.3h-15c-8.7,0-15.8,7.1-15.8,15.9v20.6h46.7v-20.6C70.1,130.5,63,123.4,54.2,123.3z"/>
		</g>
		<g id="Pfad_2479-2">
			<path class="st1" d="M83.2,97.3c9.1,0,16.5-7.4,16.5-16.5s-7.4-16.5-16.5-16.5s-16.5,7.4-16.5,16.5S74,97.3,83.2,97.3
				C83.1,97.3,83.1,97.3,83.2,97.3z"/>
		</g>
		<g id="Pfad_2480-2">
			<path class="st1" d="M106.5,141.6V121c0-8.8-7.1-15.8-15.9-15.9h-15c-8.5,0-15.4,6.8-15.8,15.2c8.4,2.5,14.1,10.1,14.1,18.9v2.4
				L106.5,141.6z"/>
		</g>
	</g>
	<g id="Gruppe_1896" transform="translate(-304.507 111.133)">
		<g id="Ellipse_25">
			<circle class="st0" cx="1262.7" cy="536.7" r="44.7"/>
		</g>
		<g id="picture" transform="translate(1237.929 518.378)">
			<g id="Gruppe_1883" transform="translate(0 0)">
				<g id="Pfad_2474">
					<path class="st1" d="M0,0v34.3h48V0H0z M44.6,3.4v23l-10-7.2l-7.6,6L15.9,15L3.4,26.5V3.4H44.6z"/>
				</g>
				<g id="Ellipse_33">
					<circle class="st1" cx="33.8" cy="10.6" r="3.6"/>
				</g>
			</g>
		</g>
	</g>
</g>
</svg>
