<svg width="16" height="16" xmlns="http://www.w3.org/2000/svg" shape-rendering="geometricPrecision" fill="#ffad00"><defs><mask id="a"><rect fill="#fff" width="100%" height="100%"/><path fill="#000" d="M11.875-1.414l-2.47 2.47 2.035 2.039-2.035 2.037 2.47 2.472 4.51-4.511z"/></mask></defs><path fill="#cb1800" d="M11.875 0l-1.057 1.057 2.035 2.038-2.035 2.037 1.057 1.057 3.095-3.096z"/><g mask="url(#a)"><path d="M4.275.072v7.41h7.37V.072zm3.707.88c.96-.04.96 1.42 0 1.38-.88-.038-.88-1.342 0-1.38zM6.596 3.039h2.066v2.617h.68v.686H6.594v-.686h.68V3.552h-.678zM-.002 8.83V16H16V8.84zm1.088 1.008l13.826.006v5.151H1.086z"/><path d="M2.964 11v1h10v-.999zm0 2v1h10v-.999z"/></g></svg>