<svg xmlns="http://www.w3.org/2000/svg" viewBox="0 0 16 16"><path d="M3.09 8.09c0-1.57.82-2.28 1.7-2.28A1.69 1.69 0 016 6.32l-.5.58a.93.93 0 00-.65-.3C4.37 6.6 4 7 4 8.09s.33 1.35.68 1.35.53-.2.53-.68-.21-.61-.57-.61a.76.76 0 00-.64.46L3.94 8a1.18 1.18 0 01.89-.5 1.16 1.16 0 011.25 1.26 1.35 1.35 0 01-1.4 1.41c-.81 0-1.59-.61-1.59-2.08zM6.56 8c0-1.43.6-2.16 1.5-2.16S9.57 6.55 9.57 8s-.6 2.2-1.51 2.2-1.5-.8-1.5-2.2zm2.09 0c0-1.14-.26-1.4-.59-1.4s-.58.26-.58 1.4.26 1.45.58 1.45.59-.33.59-1.45zm1.44 1.18c0-.69.55-1.06 1.85-1.2a.46.46 0 00-.52-.47 1.79 1.79 0 00-.87.29l-.35-.64a2.74 2.74 0 011.4-.43c.84 0 1.31.48 1.31 1.49v1.87h-.8L12 9.76a1.46 1.46 0 01-.95.41.94.94 0 01-.96-.99zm1.85 0v-.61c-.7.09-.92.29-.92.54s.14.31.37.31a.76.76 0 00.55-.28zM8 1a7 7 0 107 7 7 7 0 00-7-7zm0 12.61A5.61 5.61 0 1113.61 8 5.62 5.62 0 018 13.61z" fill="#6e6e6e"/></svg>