<svg id="icons" xmlns="http://www.w3.org/2000/svg" viewBox="0 0 54 54"><defs><style>.cls-1{fill:#6e6e6e;}</style></defs><g id="chat"><path class="cls-1" d="M45.41,6H8.59A5.61,5.61,0,0,0,3,11.59V33.41A5.61,5.61,0,0,0,8.59,39H16l0,9A12.07,12.07,0,0,0,27.6,39H45.41A5.61,5.61,0,0,0,51,33.41V11.59A5.61,5.61,0,0,0,45.41,6ZM48,33.41A2.59,2.59,0,0,1,45.41,36H25a9,9,0,0,1-6,8.48L19,36H8.59A2.59,2.59,0,0,1,6,33.41V11.59A2.59,2.59,0,0,1,8.59,9H45.41A2.59,2.59,0,0,1,48,11.59Z"/><circle class="cls-1" cx="15" cy="22" r="4"/><circle class="cls-1" cx="27" cy="22" r="4"/><circle class="cls-1" cx="39" cy="22" r="4"/></g></svg>