<svg xmlns="http://www.w3.org/2000/svg" viewBox="0 0 54 54"><defs><style>.a{fill:#6e6e6e;}</style></defs><path class="a" d="M10,3V51H32.6a6,6,0,0,0,4.28-1.79l5.39-5.48A6,6,0,0,0,44,39.49V3Zm3.09,3.09H40.91V36a3,3,0,0,1-3,3H32v5.91a3,3,0,0,1-3,3H13.09ZM35,46.68V42h4.64Z"/><rect class="a" x="16" y="13.97" width="5" height="11"/><rect class="a" x="24.5" y="10.97" width="5" height="14"/><rect class="a" x="33" y="16.97" width="5" height="8"/><rect class="a" x="16" y="26.97" width="22" height="3"/></svg>