<svg xmlns="http://www.w3.org/2000/svg" viewBox="0 0 54 54"><defs><style>.a{fill:#6e6e6e;}</style></defs><path class="a" d="M17.59,30A2.58,2.58,0,1,0,15,27.46,2.57,2.57,0,0,0,17.59,30Z"/><path class="a" d="M18.76,31.26H16.41a2.48,2.48,0,0,0-2.47,2.48V37h7.31V33.74A2.49,2.49,0,0,0,18.76,31.26Z"/><path class="a" d="M30.41,33.09a2.58,2.58,0,1,0-2.58-2.57A2.57,2.57,0,0,0,30.41,33.09Z"/><path class="a" d="M31.58,34.31H29.23a2.48,2.48,0,0,0-2.47,2.48V40h7.3V36.79A2.49,2.49,0,0,0,31.58,34.31Z"/><path class="a" d="M23.29,27.19a2.58,2.58,0,1,0-2.57-2.57A2.58,2.58,0,0,0,23.29,27.19Z"/><path class="a" d="M26.94,34.12V30.89a2.49,2.49,0,0,0-2.48-2.48H22.11a2.48,2.48,0,0,0-2.46,2.39,3.08,3.08,0,0,1,2.21,2.94v.38Z"/><path class="a" d="M3,45.94H45v-30H3Zm3-27H42v24H6Z"/><path class="a" d="M30,10V9.94a3,3,0,0,0-3-3H18a3,3,0,0,0-3,3V10H9v2.91H48V40h3V10Z"/></svg>