<svg xmlns="http://www.w3.org/2000/svg" viewBox="0 0 54 54"><defs><style>.a{fill:#6e6e6e;}</style></defs><path class="a" d="M28,11V9.94a3,3,0,0,0-3-3H14a3,3,0,0,0-3,3V11H3V46H51V11ZM48,43H6V13.94H48Z"/><path class="a" d="M27,17a11.5,11.5,0,1,0,11.5,11.5A11.5,11.5,0,0,0,27,17Zm.82,8.48c.8,0,1.63-.1,2.45-.2.06.75.11,1.55.13,2.4H27.82Zm0-1.63V19.34a8.27,8.27,0,0,1,1.42.25,28.48,28.48,0,0,1,.84,4C29.33,23.72,28.56,23.78,27.82,23.82Zm-1.64,0c-.72,0-1.48-.1-2.24-.19a27.44,27.44,0,0,1,.84-4,9.31,9.31,0,0,1,1.4-.24Zm0,1.64v2.2H23.63c0-.86.06-1.66.13-2.41C24.57,25.34,25.4,25.42,26.18,25.45ZM22,27.65H17.87a9.22,9.22,0,0,1,.93-3.26c.83.18,2,.42,3.33.63C22.06,25.83,22,26.71,22,27.65Zm0,1.64q0,1.5.15,2.79c-1.3.2-2.45.44-3.27.62a9.17,9.17,0,0,1-1-3.41Zm1.63,0h2.56v2.37c-.79,0-1.61.1-2.42.19C23.69,31.06,23.64,30.2,23.62,29.29Zm2.56,4V37.6a8.79,8.79,0,0,1-1.45-.25A28.54,28.54,0,0,1,24,33.48C24.69,33.39,25.45,33.32,26.18,33.29Zm1.64,0c.73,0,1.5.1,2.27.2a27.2,27.2,0,0,1-.79,3.84,9,9,0,0,1-1.48.26Zm0-1.64V29.29h2.59c0,.92-.07,1.78-.14,2.58C29.45,31.77,28.62,31.69,27.82,31.66ZM32,29.29h4.09a9.22,9.22,0,0,1-1,3.42c-.82-.18-2-.41-3.24-.61C32,31.24,32,30.3,32,29.29Zm0-1.64c0-.93-.08-1.81-.15-2.63,1.32-.2,2.49-.44,3.31-.63a9,9,0,0,1,.93,3.26Zm2.24-4.73c-.71.15-1.6.32-2.58.48a29,29,0,0,0-.58-3.11A9.15,9.15,0,0,1,34.28,22.92ZM22.89,20.28a31.56,31.56,0,0,0-.57,3.11c-1-.16-1.87-.33-2.6-.48A9.37,9.37,0,0,1,22.89,20.28ZM19.83,34.17c.7-.15,1.56-.31,2.5-.46.16,1.17.35,2.16.53,2.94A9.34,9.34,0,0,1,19.83,34.17Zm11.35,2.45a28,28,0,0,0,.53-2.89c.91.15,1.76.31,2.46.45A9.18,9.18,0,0,1,31.18,36.62Z"/></svg>