<svg xmlns="http://www.w3.org/2000/svg" viewBox="0 0 54 54"><defs><style>.a{fill:#6e6e6e;}</style></defs><path class="a" d="M4.5,49.5V4.5h45v45Zm14.71-22a7.71,7.71,0,0,0-7.71,7.7v12.3h31V35.22a7.71,7.71,0,0,0-7.7-7.7ZM27,5.55A10.5,10.5,0,1,0,37.5,16,10.5,10.5,0,0,0,27,5.55Z"/><path class="a" d="M48,6V48H44V35.22A9.21,9.21,0,0,0,34.8,26H33.67a12,12,0,0,0-.11-20H48M20.44,6a12,12,0,0,0-.11,20H19.21A9.21,9.21,0,0,0,10,35.22V48H6V6H20.44M51,3H3V51H51V3ZM27,25.05a9,9,0,1,1,9-9,9,9,0,0,1-9,9ZM13,46V35.22A6.2,6.2,0,0,1,19.21,29H34.8a6.2,6.2,0,0,1,6.2,6.2V46Z"/></svg>