<svg id="icons" xmlns="http://www.w3.org/2000/svg" viewBox="0 0 54 54"><defs><style>.cls-1{fill:#6e6e6e;}</style></defs><g id="roles2"><path class="cls-1" d="M19,10a5,5,0,1,1-5,5,5,5,0,0,1,5-5m0-5A10,10,0,1,0,29,15,10,10,0,0,0,19,5Z"/><path class="cls-1" d="M30,44v0H8V36a3,3,0,0,1,3-3H22.86L26,28H11a8,8,0,0,0-8,8V49H35V44Z"/><path class="cls-1" d="M48.35,5.68a5.4,5.4,0,0,0-7.22,1.87L40.25,9l-1.33,2.21L27,31.1,27.13,41l9.05-4.78L48.09,16.33l1.32-2.21.88-1.47A5,5,0,0,0,48.35,5.68ZM34.26,34.3l-1.66.88-2.91-1.62,0-1.79L41.21,12.5l4.59,2.55Zm8.28-24,.88-1.48A2.71,2.71,0,0,1,47,7.89a2.5,2.5,0,0,1,1,3.48l-.88,1.48Z"/></g></svg>