<svg xmlns="http://www.w3.org/2000/svg" viewBox="0 0 54 54"><defs><style>.a{fill:#6e6e6e;}</style></defs><path class="a" d="M18.68,37.5V31.66L14.35,37.5Zm18-21.06a2.83,2.83,0,0,0,2.83-2.82V5.82a2.83,2.83,0,0,0-5.65,0v7.8A2.82,2.82,0,0,0,36.73,16.44Zm-19.46,0a2.82,2.82,0,0,0,2.82-2.82V5.82a2.82,2.82,0,0,0-5.64,0v7.8A2.82,2.82,0,0,0,17.27,16.44ZM43,12.05v1.89a6.3,6.3,0,0,1-12.6,0V12.05H23.57v1.89a6.3,6.3,0,0,1-12.6,0V12.05H3V51H51V12.05ZM25.36,41.2a3.35,3.35,0,0,1-1.87.46h-.31v2a2.76,2.76,0,0,1-.6,1.93,2.13,2.13,0,0,1-1.62.7h0a2.12,2.12,0,0,1-1.64-.71,2.79,2.79,0,0,1-.61-1.92v-2H12.3A3.38,3.38,0,0,1,10,40.93a2.63,2.63,0,0,1-.83-2,1.94,1.94,0,0,1,.13-.71,3.6,3.6,0,0,1,.34-.68c.13-.2.28-.41.42-.59s.31-.41.51-.68l7.29-9.76A13.23,13.23,0,0,1,19.08,25a2.08,2.08,0,0,1,1.48-.57,2.49,2.49,0,0,1,2,.78,3.26,3.26,0,0,1,.66,2.14V37.51h.06a4.62,4.62,0,0,1,1.92.33,1.77,1.77,0,0,1,.95,1.75A1.83,1.83,0,0,1,25.36,41.2Zm16.35,4.13A2.3,2.3,0,0,1,40,46H29.8a2.71,2.71,0,0,1-1.95-.72,2.36,2.36,0,0,1-.74-1.72A4.06,4.06,0,0,1,27.53,42a5.32,5.32,0,0,1,.92-1.44q1.83-1.9,3.33-3.27a21.23,21.23,0,0,1,2.15-1.83,11.55,11.55,0,0,0,1.8-1.53,6.26,6.26,0,0,0,1.05-1.51A3.46,3.46,0,0,0,37.12,31a2.44,2.44,0,0,0-.34-1.31,2.41,2.41,0,0,0-.94-.88,3,3,0,0,0-1.32-.33,2.72,2.72,0,0,0-2.4,1.35,7.69,7.69,0,0,0-.4,1,5.19,5.19,0,0,1-.82,1.58,2,2,0,0,1-1.6.69,2.11,2.11,0,0,1-1.52-.61,2.24,2.24,0,0,1-.61-1.62,5.64,5.64,0,0,1,.47-2.18A6.06,6.06,0,0,1,29,26.62a6.83,6.83,0,0,1,2.32-1.47,8.85,8.85,0,0,1,3.25-.56,9.35,9.35,0,0,1,3.81.71A6.19,6.19,0,0,1,42,30.88,6.37,6.37,0,0,1,41,34.26a10.22,10.22,0,0,1-1.82,2.31c-.6.54-1.59,1.37-3,2.5a22.87,22.87,0,0,0-2.78,2.57h6.12a3.14,3.14,0,0,1,2,.55,2,2,0,0,1,.77,1.62A2.15,2.15,0,0,1,41.71,45.33Z"/></svg>