<svg xmlns="http://www.w3.org/2000/svg" viewBox="0 0 54 54"><defs><style>.a{fill:#6e6e6e;}</style></defs><rect class="a" x="17.93" y="6.97" width="18.09" height="5"/><polygon class="a" points="40.93 6.97 40.93 11.97 46 11.97 46 45.97 8 45.97 8 11.97 13.02 11.97 13.02 6.97 3 6.97 3 50.97 51 50.97 51 6.97 40.93 6.97"/><path class="a" d="M35.47,16A2.62,2.62,0,0,0,38,13.24V5.69a2.51,2.51,0,1,0-5,0v7.55A2.63,2.63,0,0,0,35.47,16Z"/><path class="a" d="M18.52,16A2.63,2.63,0,0,0,21,13.24V5.69A2.63,2.63,0,0,0,18.52,3,2.62,2.62,0,0,0,16,5.69v7.55A2.62,2.62,0,0,0,18.52,16Z"/><path class="a" d="M20.45,36H14a1.92,1.92,0,0,1-2-2,2.77,2.77,0,0,1,.49-1.71l8-11.46A1.87,1.87,0,0,1,22.14,20c1.39,0,1.93.84,1.93,2.09V32.64h1.3a1.67,1.67,0,0,1,0,3.31h-1.3v3c0,1.22-.46,2-1.81,2s-1.81-.81-1.81-2Zm0-10.82H20.4l-5,7.51h5Z"/><path class="a" d="M40.29,36.94A1.59,1.59,0,0,1,42,38.77c0,1.3-.72,1.82-1.91,1.82h-9.7a2,2,0,0,1-2.12-2.14c0-2.06,1.63-4.36,4.86-6.65,3.6-2.55,4.84-3.07,4.84-5.42a2.72,2.72,0,0,0-2.72-2.93c-1.65,0-2.76.75-3.33,3.07-.26,1.08-.6,1.63-1.63,1.63a1.71,1.71,0,0,1-1.89-1.94c0-3.54,3.1-6.24,6.9-6.24,4.14,0,6.6,3.05,6.6,5.71,0,3.86-1.58,5.37-4.32,7.11-2.92,1.86-4.71,3.05-5,4.15Z"/></svg>