<svg id="icons" xmlns="http://www.w3.org/2000/svg" viewBox="0 0 54 54"><defs><style>.cls-1{fill:#6e6e6e;}</style></defs><g id="spiral"><path class="cls-1" d="M3,27A24,24,0,1,0,27,3,24,24,0,0,0,3,27ZM44.57,16.35a20.42,20.42,0,0,1-8.48,27A16.06,16.06,0,0,1,14.31,37a12.49,12.49,0,0,1,4.93-17,9.67,9.67,0,0,1,13.12,3.81A7.33,7.33,0,0,1,33,29.47a7.41,7.41,0,0,1-3.55,4.42,5.59,5.59,0,0,1-7.58-2.21,4.13,4.13,0,0,1,1.63-5.61,3,3,0,0,1,4,1.17,1.67,1.67,0,1,0,2.93-1.61,6.33,6.33,0,0,0-8.58-2.49,7.49,7.49,0,0,0-2.95,10.15,8.94,8.94,0,0,0,12.12,3.52,10.73,10.73,0,0,0,4.24-14.58A13,13,0,0,0,17.63,17.1a15.84,15.84,0,0,0-6.25,21.51,19.26,19.26,0,0,0,5.8,6.46A20.56,20.56,0,1,1,44.57,16.35Z"/></g></svg>