<svg id="icons" xmlns="http://www.w3.org/2000/svg" viewBox="0 0 54 54"><defs><style>.cls-1{fill:#6e6e6e;}</style></defs><g id="staple"><path class="cls-1" d="M43.22,9.22a14.61,14.61,0,0,0-20.58,0L6.5,25.27l2.89,2.86,16.13-16a10.51,10.51,0,0,1,14.83,0,10.4,10.4,0,0,1,0,14.75l-16.14,16a7.24,7.24,0,0,1-10.18,0,7.16,7.16,0,0,1,0-10.13l14.13-14h0a3.93,3.93,0,0,1,5.54,0,3.88,3.88,0,0,1,0,5.5l-14.13,14,2.87,2.85,14.14-14a7.9,7.9,0,0,0,0-11.23,8,8,0,0,0-11.24,0h0L11.15,29.89a11.16,11.16,0,0,0,0,15.85,11.34,11.34,0,0,0,15.94,0l16.14-16A14.39,14.39,0,0,0,43.22,9.22Z"/></g></svg>