<?xml version="1.0" encoding="UTF-8" standalone="no"?>
<!DOCTYPE svg PUBLIC "-//W3C//DTD SVG 1.1//EN" "http://www.w3.org/Graphics/SVG/1.1/DTD/svg11.dtd">
<svg width="100%" height="100%" viewBox="0 0 16 16" version="1.1" xmlns="http://www.w3.org/2000/svg" xmlns:xlink="http://www.w3.org/1999/xlink" xml:space="preserve" xmlns:serif="http://www.serif.com/" style="fill-rule:evenodd;clip-rule:evenodd;stroke-linejoin:round;stroke-miterlimit:2;">
    <g transform="matrix(0.984138,0,0,0.979787,-0.364677,0.68148)">
        <path d="M1.53,0.555L5.922,0.555L5.922,4.947L1.53,4.947L1.53,0.555ZM9.948,1.278L9.948,4.196L7.032,4.196L7.032,1.278L9.948,1.278M10.687,0.539L6.293,0.539L6.293,4.932L10.687,4.932L10.687,0.539ZM14.73,1.278L14.73,4.196L11.814,4.196L11.814,1.278L14.73,1.278M15.468,0.539L11.076,0.539L11.076,4.932L15.468,4.932L15.468,0.539ZM5.185,6.063L5.185,8.977L2.27,8.977L2.27,6.063L5.185,6.063M5.922,5.323L1.53,5.323L1.53,9.717L5.922,9.717L5.922,5.323ZM6.293,5.309L10.687,5.309L10.687,9.703L6.293,9.703L6.293,5.309ZM11.077,5.309L15.469,5.309L15.469,9.703L11.077,9.703L11.077,5.309ZM1.53,10.007L5.922,10.007L5.922,14.4L1.53,14.4L1.53,10.007ZM6.293,9.991L10.687,9.991L10.687,14.385L6.293,14.385L6.293,9.991ZM14.73,10.731L14.73,13.647L11.814,13.647L11.814,10.731L14.73,10.731M15.468,9.991L11.076,9.991L11.076,14.385L15.468,14.385L15.468,9.991Z" style="fill:#6e6e6e;fill-rule:nonzero;"/>
    </g>
</svg>
