<svg width="16" height="16" xmlns="http://www.w3.org/2000/svg" viewBox="0 0 16 16" shape-rendering="geometricPrecision" fill="#cb1800"><defs><mask id="a"><rect fill="#fff" width="100%" height="100%"/><path d="M16.451 1.534a1.141 1.141 0 00-.288-1.066l-.58-.581a1.116 1.116 0 00-1.065-.29 1.127 1.127 0 00-.962-.551h-.819c-.41 0-.77.223-.964.554-.38-.106-.813.038-1.062.288l-.576.579a1.116 1.116 0 00-.292 1.067c-.329.194-.55.553-.55.962v.821c0 .408.221.766.548.96l-.035.285c.002.263.14.595.325.781l.58.581c.248.248.68.393 1.062.287.194.332.555.555.963.555h.82c.298 0 .588-.121.796-.333l.158-.216.3.036c.26-.004.588-.144.771-.328l.57-.572c.215-.21.337-.503.335-.803l-.042-.271c.333-.193.556-.552.556-.964v-.821c0-.408-.221-.766-.549-.96z"/></mask></defs><path d="M15.884 2.379h-.177v-.003a.523.523 0 01-.5-.325.531.531 0 01.122-.586l.126-.126a.12.12 0 000-.165l-.579-.58a.117.117 0 00-.166 0l-.125.125A.525.525 0 0114 .841a.532.532 0 01-.326-.501l-.001-.177a.117.117 0 00-.117-.117h-.819a.117.117 0 00-.116.117v.178a.53.53 0 01-.911.379l-.126-.126a.118.118 0 00-.165 0l-.578.581a.116.116 0 000 .164l.123.127a.532.532 0 01.124.586.523.523 0 01-.499.325l-.178.003a.117.117 0 00-.117.117v.821c0 .063.052.116.117.116h.178l-.002.002a.524.524 0 01.501.325.53.53 0 01-.123.585v.001l-.125.127a.117.117 0 000 .163l.579.58a.116.116 0 00.165 0l.127-.124a.53.53 0 01.585-.123c.207.088.331.29.326.502l.002.177h-.002a.117.117 0 00.116.117h.82a.117.117 0 00.117-.117h-.001l.001-.177a.529.529 0 01.911-.379l.124.126a.116.116 0 00.165 0l.58-.58a.114.114 0 000-.163l-.125-.129a.53.53 0 01.378-.911l.177-.004A.117.117 0 0016 3.315v-.821a.117.117 0 00-.116-.115zM13.146 3.91a1.002 1.002 0 01-1.001-1.004c0-.555.448-1.005 1.001-1.005a1.004 1.004 0 010 2.009z"/><g mask="url(#a)"><path d="M8 12.965A8.905 8.905 0 01.12 8.219l-.116-.218.116-.219A8.903 8.903 0 018 3.035a8.907 8.907 0 017.88 4.747l.117.219-.117.219A8.908 8.908 0 018 12.965zM1.065 8.001A7.97 7.97 0 008 12.032a7.974 7.974 0 006.935-4.031A7.974 7.974 0 008 3.968a7.969 7.969 0 00-6.935 4.033zm6.936-3.013c-.292 0-.568.054-.835.132.355.253.602.648.602 1.118 0 .772-.625 1.397-1.397 1.397-.511 0-.939-.287-1.182-.696-.125.33-.202.685-.202 1.06a3.012 3.012 0 103.014-3.011z"/></g></svg>