<svg width="16" height="16" xmlns="http://www.w3.org/2000/svg" viewBox="0 0 16 16" shape-rendering="geometricPrecision" fill="#6e6e6e"><defs><mask id="a"><rect fill="#fff" width="100%" height="100%"/><path d="M12.997.858a4.809 4.809 0 00-4.253 2.563 4.81 4.81 0 008.506 0A4.812 4.812 0 0012.997.858z" fill="#000"/></mask></defs><path d="M12.997 1.611a3.394 3.394 0 00-3.003 1.81 3.397 3.397 0 006.006 0 3.398 3.398 0 00-3.003-1.81zm-.001 3.396a1.587 1.587 0 110-3.174 1.587 1.587 0 010 3.174z" fill="#cb1800"/><g mask="url(#a)"><path d="M4.463 15.971l1.491-1.274-1.676-.668zm-.393-3.783l3.557-8.867 3.289 1.32-3.557 8.866zM10.815.121a1.772 1.772 0 00-2.3.976l-.529 1.317 3.291 1.321.531-1.321h-.002a1.771 1.771 0 00-.991-2.293z"/></g></svg>