<svg width="16" height="16" xmlns="http://www.w3.org/2000/svg" viewBox="0 0 16 16" shape-rendering="geometricPrecision" fill="#00962d"><defs><mask id="a"><rect fill="#fff" width="100%" height="100%"/><path d="M12.997.858a4.809 4.809 0 00-4.253 2.563 4.81 4.81 0 008.506 0A4.812 4.812 0 0012.997.858z" fill="#000"/></mask></defs><path d="M12.997 1.611a3.394 3.394 0 00-3.003 1.81 3.397 3.397 0 006.006 0 3.398 3.398 0 00-3.003-1.81zm-.001 3.396a1.587 1.587 0 110-3.174 1.587 1.587 0 010 3.174z" fill="#cb1800"/><g mask="url(#a)"><path d="M6.655 8.121c0 .521-.208.992-.54 1.345h3.925a1.956 1.956 0 01-.54-1.345c0-.668.337-1.259.849-1.613a1.524 1.524 0 00-1.173-.561H6.974c-.472 0-.889.221-1.169.56.513.354.85.944.85 1.614z"/><circle cx="8.078" cy="3.606" r="1.587"/><circle cx="4.691" cy="8.121" r="1.588"/><path d="M5.79 10.462H3.587a1.53 1.53 0 00-1.525 1.53v1.988H7.32v-1.988c0-.841-.689-1.53-1.53-1.53z"/><circle cx="11.464" cy="8.121" r="1.588"/><path d="M12.562 10.462H10.36a1.53 1.53 0 00-1.525 1.53v1.988h5.258v-1.988c0-.841-.689-1.53-1.531-1.53z"/></g></svg>