<svg width="16" height="16" xmlns="http://www.w3.org/2000/svg" shape-rendering="geometricPrecision" fill="#ffad00"><defs><mask id="a"><rect fill="#fff" width="100%" height="100%"/><path fill="#000" d="M14.5 1.716L13-.371l-1.501 2.087-1.982-2.76-.836.011 1.888 6.811h4.86l1.884-6.792-.841-.013z"/></mask></defs><path fill="#FCC70A" d="M14.858 5.028H11.14L9.999.914l.749 1.043.751 1.045.75-1.045L13 .914l.75 1.043.749 1.045.751-1.045L16 .914z"/><g mask="url(#a)"><path d="M4.275.072v7.41h7.37V.072zm3.707.88c.96-.04.96 1.42 0 1.38-.88-.038-.88-1.342 0-1.38zM6.596 3.039h2.066v2.617h.68v.686H6.594v-.686h.68V3.552h-.678zM-.002 8.83V16H16V8.84zm1.088 1.008l13.826.006v5.151H1.086z"/><path d="M2.964 11v1h10v-.999zm0 2v1h10v-.999z"/></g></svg>