<svg width="16" height="16" xmlns="http://www.w3.org/2000/svg" viewBox="0 0 16 16" shape-rendering="geometricPrecision"><defs><mask id="a"><rect fill="#fff" width="100%" height="100%"/><path d="M12.997.858a4.809 4.809 0 00-4.253 2.563 4.81 4.81 0 008.506 0A4.812 4.812 0 0012.997.858z"/></mask></defs><path d="M12.997 1.611a3.394 3.394 0 00-3.003 1.81 3.397 3.397 0 006.006 0 3.398 3.398 0 00-3.003-1.81zm-.001 3.396a1.587 1.587 0 110-3.174 1.587 1.587 0 010 3.174z" fill="#cb1800"/><path mask="url(#a)" d="M15.579 2.998a.702.702 0 00-.064.003c-1.004.116-2.668.598-3.658 2.451l-2.94 5.5-1.872-1.871.316-.581a.16.16 0 01.11-.081l1.209-.238a.161.161 0 00.116-.224l-.858-1.902a.161.161 0 01.123-.225l2.11-.326a.16.16 0 00.123-.224l-.91-2.058a.161.161 0 01.121-.225l2.23-.362a.162.162 0 00.129-.205L11.435.981a.158.158 0 01-.004-.075L11.544.3c.029-.154-.156-.254-.27-.146l-.458.437a.168.168 0 00-.03.04l-.094.174a.165.165 0 00-.013.123l.275.931a.161.161 0 01-.129.205l-2.342.38a.16.16 0 00-.122.223l.907 2.052a.16.16 0 01-.123.224l-2.117.327a.162.162 0 00-.122.226l.873 1.937a.16.16 0 01-.116.224l-.658.13a.16.16 0 00-.11.081l-.374.689-3.072-3.072c-.795-.795-2.095-.795-2.89 0s-.795 2.095 0 2.89l6.92 6.92a2.05 2.05 0 002.89 0 2.04 2.04 0 00.497-2.044l5.114-9.566a.466.466 0 00-.401-.687zm-5.123 9.514c-.03-.035-.054-.073-.087-.107l-.928-.928 3.042-5.69c.685-1.281 1.739-1.802 2.637-2l-4.664 8.725z"/></svg>