<svg width="16" height="16" xmlns="http://www.w3.org/2000/svg" viewBox="0 0 16 16" shape-rendering="geometricPrecision"><defs><mask id="a"><rect fill="#fff" width="100%" height="100%"/><path d="M12.997.858a4.809 4.809 0 00-4.253 2.563 4.81 4.81 0 008.506 0A4.812 4.812 0 0012.997.858z"/></mask></defs><path d="M12.997 1.611a3.394 3.394 0 00-3.003 1.81 3.397 3.397 0 006.006 0 3.398 3.398 0 00-3.003-1.81zm-.001 3.396a1.587 1.587 0 110-3.174 1.587 1.587 0 010 3.174z" fill="#cb1800"/><path mask="url(#a)" d="M7.999.97a6.99 6.99 0 00-2.429.44 1.517 1.517 0 00-.912-.309 1.53 1.53 0 00-1.502 1.81A7.014 7.014 0 00.97 8.003 7.03 7.03 0 107.999.97zm5.589 6.66h-.889a1.528 1.528 0 00-1.131-1.027A3.823 3.823 0 008.5 4.211V2.418a5.61 5.61 0 015.088 5.212zm-3.786 0H8.5V4.988a3.056 3.056 0 012.242 1.674 1.523 1.523 0 00-.94.968zm-2.302 0H4.975A3.053 3.053 0 017.5 4.988V7.63zm0 1v2.382A3.06 3.06 0 015.004 8.63H7.5zm1 0h1.322c.146.393.445.712.829.876A3.055 3.055 0 018.5 11.013V8.63zm-4.456-4.6A1.526 1.526 0 006.18 2.702a5.55 5.55 0 011.32-.284v1.793A3.815 3.815 0 004.198 7.63H2.412a5.601 5.601 0 011.632-3.6zM2.43 8.63h1.793a3.82 3.82 0 003.276 3.159v1.793A5.613 5.613 0 012.43 8.63zm6.07 4.952v-1.793a3.826 3.826 0 002.979-2.184 1.524 1.524 0 001.201-.975h.89a5.614 5.614 0 01-5.07 4.952z"/></svg>