<svg width="16" height="16" xmlns="http://www.w3.org/2000/svg" shape-rendering="geometricPrecision" fill="#00962d"><defs><mask id="a"><rect fill="#fff" width="100%" height="100%"/><path d="M13.848-1.1L12.051.695l.286.287A4.455 4.455 0 009.23 5.236v.987h2.626v-.988c0-.491.191-.954.538-1.302l.03-.03 1.425 1.421 3.212-3.213L13.848-1.1z" fill="#000"/></mask></defs><path d="M13.848-.04l-.736.735.821.821h-.234l-.156.008A3.722 3.722 0 009.98 5.235v.237h1.126v-.237c0-.691.27-1.343.759-1.833a2.579 2.579 0 011.833-.759h.3l-.886.887.735.734L16 2.111 13.848-.04z" fill="#cb1800"/><g mask="url(#a)"><path d="M4.275.072v7.41h7.37V.072zm3.707.88c.96-.04.96 1.42 0 1.38-.88-.038-.88-1.342 0-1.38zM6.596 3.039h2.066v2.617h.68v.686H6.594v-.686h.68V3.552h-.678zM-.002 8.83V16H16V8.84zm1.088 1.008l13.826.006v5.151H1.086z"/><path d="M2.964 11v1h10v-.999zm0 2v1h10v-.999z"/></g></svg>