<?xml version="1.0" encoding="UTF-8"?>
<svg width="16" height="16" fill="#24437c" shape-rendering="geometricPrecision" version="1.1" viewBox="0 0 16 16" xmlns="http://www.w3.org/2000/svg" xmlns:cc="http://creativecommons.org/ns#" xmlns:dc="http://purl.org/dc/elements/1.1/" xmlns:rdf="http://www.w3.org/1999/02/22-rdf-syntax-ns#">
 <metadata>
  <rdf:RDF>
   <cc:Work rdf:about="">
    <dc:format>image/svg+xml</dc:format>
    <dc:type rdf:resource="http://purl.org/dc/dcmitype/StillImage"/>
    <dc:title/>
   </cc:Work>
  </rdf:RDF>
 </metadata>
 <path d="m10.021 0.823 3.437 3.165h-3.437z"/>
 <path d="m2.02 16v-16h7.021v4.905h4.941v11.095zm10.98-9.97h-5v-5h-4.917v14h9.917z"/>
 <path d="m10.313 11.067c0.843 0.67 1.525 0.392 1.426 0.264-0.302-0.391-0.896-0.391-1.426-0.264zm1.093-0.377c-0.844-0.286-1.966-2e-3 -1.923 0.034-0.567-0.279-1.33-0.685-1.749-2.018-0.703-2.234 0-2.955 0.046-1.558l0.142 0.948s0.485-1.184 0.172-2.047c-0.274-0.752-1.063-0.639-1.11 0.751-0.026 0.766 0.159 1.918 0.244 2.097 0 0-0.73 2.149-1.813 3.84-1.051 1.642-1.115 1.088-0.86 0.541 0.303-0.65 0.817-0.991 0.989-1.263 0 0-0.798 0.062-1.418 1.127-0.392 0.673-0.439 2.345 1.233 0.532 0.332-0.36 0.803-1.116 1.018-1.566 0 0 0.973-0.425 3.294-0.875 0 0 0.626 0.457 1.438 0.645 1.009 0.232 2.046-0.594 0.297-1.188zm-4.749 0.708 0.845-1.941c0.56 1.19 1.353 1.433 1.353 1.433-0.344 0.044-2.198 0.508-2.198 0.508z" clip-rule="evenodd" fill-rule="evenodd"/>
</svg>
