<?xml version="1.0" encoding="UTF-8"?>
<svg width="16" height="16" fill="#24437c" shape-rendering="geometricPrecision" version="1.1" viewBox="0 0 16 16" xmlns="http://www.w3.org/2000/svg" xmlns:cc="http://creativecommons.org/ns#" xmlns:dc="http://purl.org/dc/elements/1.1/" xmlns:rdf="http://www.w3.org/1999/02/22-rdf-syntax-ns#">
 <metadata>
  <rdf:RDF>
   <cc:Work rdf:about="">
    <dc:format>image/svg+xml</dc:format>
    <dc:type rdf:resource="http://purl.org/dc/dcmitype/StillImage"/>
    <dc:title/>
   </cc:Work>
  </rdf:RDF>
 </metadata>
 <path d="m10.021 0.823 3.437 3.165h-3.437z"/>
 <path d="m2.02 16v-16h7.021v4.905h4.941v11.095zm10.98-9.97h-5v-5h-4.917v14h9.917z"/>
 <path d="m6.499 14.03a1.5 1.5 0 0 0 1.5-1.5v-3.5s0.22-0.498 0.95 0.182c0.941 0.874 2.051 0.161 2.051 0.161s-1.364-0.33-1.644-1.218c-0.356-1.125-1.357-1.125-1.357-1.125h-1v4.092a1.479 1.479 0 0 0-0.5-0.092 1.5 1.5 0 1 0 0 3z"/>
</svg>
