<svg id="icons" xmlns="http://www.w3.org/2000/svg" viewBox="0 0 54 54"><defs><style>.cls-1{fill:#28497c;}</style></defs><g id="block-imagemap"><rect class="cls-1" x="26.99" y="17.9" width="6" height="3"/><rect class="cls-1" x="18" y="17.9" width="6" height="3"/><rect class="cls-1" x="35.99" y="17.9" width="6" height="3"/><path class="cls-1" d="M51,17.9H48v-6H36v-3H33v3H6v6H3v3H6v21H33v3h3v-3H48v-21h3ZM45,35.05l-8.71-6.33-1.5,1.18H33v1.4l-3.33,2.61L19.9,25,9,35.09V20.9h6v-3H9v-3H33v3h3v-3h9v3h0v3h0Z"/><rect class="cls-1" x="32.99" y="20.9" width="3" height="6"/></g></svg>