<svg id="icons" xmlns="http://www.w3.org/2000/svg" viewBox="0 0 54 54"><defs><style>.cls-1{fill:#28497c;}</style></defs><g id="block-accordion"><path class="cls-1" d="M18,7.5v39H48V7.5Zm27,36H21v-9H45Zm0-12H21v-9H45Zm-24-12v-9H45v9Z"/><polygon class="cls-1" points="12 10.5 9 10.5 9 13.5 6 13.5 6 16.5 9 16.5 9 19.5 12 19.5 12 16.5 15 16.5 15 13.5 12 13.5 12 10.5"/><polygon class="cls-1" points="12 22.49 9 22.49 9 25.49 6 25.49 6 28.49 9 28.49 9 31.49 12 31.49 12 28.49 15 28.49 15 25.49 12 25.49 12 22.49"/><polygon class="cls-1" points="12 34.49 9 34.49 9 37.49 6 37.49 6 40.48 9 40.48 9 43.48 12 43.48 12 40.48 15 40.48 15 37.49 12 37.49 12 34.49"/></g></svg>