<svg xmlns="http://www.w3.org/2000/svg" viewBox="0 0 14 12" fill="#24437c"><defs><style>.cls-1{fill:#fff;}</style></defs><g id="Ebene_2" data-name="Ebene 2"><g id="icons"><g id="block-tabs"><path class="cls-1" d="M.56.56v12h14V.56Zm6,1h3v2h-3Zm7,10h-12v-10h4v3h8Zm0-8h-3v-2h3Z" transform="translate(-0.56 -0.56)"/><path d="M14.56.56H.56v12h14V.56Zm-4,3v-2h3v2Zm-4,0v-2h3v2Zm-5,8v-10h4v3h8v7Z" transform="translate(-0.56 -0.56)"/><rect class="cls-1" x="2" y="6" width="10" height="1"/><polygon points="12 6 2 6 2 7 12 7 12 6 12 6"/><rect class="cls-1" x="2" y="8" width="10" height="1"/><polygon points="12 8 2 8 2 9 12 9 12 8 12 8"/></g></g></g></svg>
