<svg xmlns="http://www.w3.org/2000/svg" viewBox="0 0 54 54"><defs><style>.a{fill:#28497c;}</style></defs><path class="a" d="M48,4.8A6,6,0,0,0,39.88,7l-1,1.72L37.4,11.27,35,15.43V6H3V50H35V39.24l12.72-22,1.49-2.58,1-1.72A5.94,5.94,0,0,0,48,4.8ZM6,47V9H32V20.62L24,34.47,24.13,46,32,41.69V47Zm26.15-8.76-1.87,1L27,37.35l0-2.1L40,12.76l5.16,3ZM47.62,11.44l-1,1.72-5.16-3,1-1.71a3,3,0,0,1,5.16,3Z"/><rect class="a" x="9" y="11.97" width="20" height="4"/><rect class="a" x="9" y="18.97" width="20" height="4"/><rect class="a" x="9" y="25.97" width="13" height="4"/></svg>