<svg xmlns="http://www.w3.org/2000/svg" viewBox="-3 -1 16 16" fill="#24437c"><g id="Ebene_2" data-name="Ebene 2"><g id="docs"><g id="file-sound"><polygon points="2.86 4.63 2 4.63 2 6.34 2.86 6.34 4.14 7.2 4.57 7.2 4.57 3.77 4.14 3.77 2.86 4.63"/><path d="M5.75,3.48,5.18,4a2,2,0,0,1,0,2.85l.57.56A2.82,2.82,0,0,0,5.75,3.48Z"/><path d="M6.76,2.46,6.2,3a3.44,3.44,0,0,1,0,4.87l.56.56A4.26,4.26,0,0,0,6.76,2.46Z"/><path d="M0,0V14H6.2a2,2,0,0,0,1.43-.6l1.79-1.82A2,2,0,0,0,10,10.17V0ZM1,1H9V9a1,1,0,0,1-1,1H6v2a1,1,0,0,1-1,1H1ZM7,12.57V11H8.55Z"/></g></g></g></svg>
