<svg xmlns="http://www.w3.org/2000/svg" viewBox="0 0 54 54"><defs><style>.a,.b{fill:#28497c;}.b{fill-rule:evenodd;}</style></defs><path class="a" d="M10,3V51H32.6a6,6,0,0,0,4.28-1.79l5.39-5.48A6,6,0,0,0,44,39.49V3Zm3.09,3.09H40.91V36a3,3,0,0,1-3,3H32v5.91a3,3,0,0,1-3,3H13.09ZM35,46.68V42h4.64Z"/><path class="b" d="M32.7,24.13c2.19,1.74,4,1,3.71.69C35.63,23.8,34.08,23.8,32.7,24.13Zm2.85-1a8.49,8.49,0,0,0-5,.09A7.88,7.88,0,0,1,26,18c-1.83-5.82,0-7.69.12-4.06l.37,2.47s1.27-3.08.45-5.33c-.71-2-2.77-1.66-2.89,2a20.45,20.45,0,0,0,.64,5.46,53.31,53.31,0,0,1-4.72,10c-2.74,4.27-2.91,2.83-2.24,1.41.79-1.7,2.12-2.58,2.57-3.29,0,0-2.08.16-3.69,2.93-1,1.76-1.14,6.11,3.21,1.39a21,21,0,0,0,2.65-4.08A45.49,45.49,0,0,1,31,24.56a11.5,11.5,0,0,0,3.74,1.68C37.4,26.85,40.1,24.69,35.55,23.15ZM23.18,25l2.2-5c1.46,3.1,3.52,3.73,3.52,3.73C28,23.78,23.18,25,23.18,25Z"/></svg>