<svg xmlns="http://www.w3.org/2000/svg" viewBox="0 0 54 54"><defs><style>.a{fill:#28497c;}</style></defs><path class="a" d="M10,3V51H32.6a6,6,0,0,0,4.28-1.79l5.39-5.48A6,6,0,0,0,44,39.49V3Zm3.09,3.09H40.91V36a3,3,0,0,1-3,3H32v5.91a3,3,0,0,1-3,3H13.09ZM35,46.68V42h4.64Z"/><polygon class="a" points="20.57 17.46 18 17.46 18 22.61 20.57 22.61 24.43 25.18 25.71 25.18 25.71 14.89 24.43 14.89 20.57 17.46"/><path class="a" d="M29.24,14l-1.69,1.68a6.06,6.06,0,0,1,0,8.56l1.69,1.68A8.43,8.43,0,0,0,29.24,14Z"/><path class="a" d="M32.27,11l-1.69,1.69a10.31,10.31,0,0,1,0,14.62L32.27,29A12.73,12.73,0,0,0,32.27,11Z"/></svg>