<svg xmlns="http://www.w3.org/2000/svg" viewBox="-3 -1 16 16" fill="#24437c"><g id="Ebene_2" data-name="Ebene 2"><g id="docs"><g id="file-video"><path d="M0,0V14H6.2a2,2,0,0,0,1.43-.6l1.79-1.82A2,2,0,0,0,10,10.17V0ZM1,1H9V9a1,1,0,0,1-1,1H6v2a1,1,0,0,1-1,1H1ZM7,12.57V11H8.55Z"/><path d="M7.62,3.48,6.5,4.23V3.57A.46.46,0,0,0,6,3.11H2.46A.46.46,0,0,0,2,3.57V6.4a.47.47,0,0,0,.46.46H6A.47.47,0,0,0,6.5,6.4V5.73l1.12.75H8v-3ZM6.08,6.4a0,0,0,0,1,0,0H2.46a0,0,0,0,1,0,0V3.57a0,0,0,0,1,0,0H6a0,0,0,0,1,0,0Z"/><polygon points="3.5 6.11 5.19 4.98 3.5 3.86 3.5 6.11"/></g></g></g></svg>
