<svg xmlns="http://www.w3.org/2000/svg" viewBox="0 0 11.96 16" fill="#24437c"><g id="Ebene_2" data-name="Ebene 2"><g id="docs"><g id="file-audio"><polygon points="8 15.18 11.44 12.01 8 12.01 8 15.18"/><path d="M0,0V16H7V11.09H12V0ZM11,10H6v5H1.06V1H11Z"/><polygon points="3.13 4.35 1.99 4.35 1.99 6.62 3.13 6.62 4.83 7.76 5.4 7.76 5.4 3.21 4.83 3.21 3.13 4.35"/><path d="M7,2.82l-.74.75a2.68,2.68,0,0,1,0,3.78L7,8.09A3.72,3.72,0,0,0,7,2.82Z"/><path d="M8.3,1.48l-.75.74a4.57,4.57,0,0,1,0,6.47l.75.74A5.63,5.63,0,0,0,8.3,1.48Z"/></g></g></g></svg>
