<svg xmlns="http://www.w3.org/2000/svg" viewBox="-3 -1 16 16" fill="#24437c"><g id="Ebene_2" data-name="Ebene 2"><g id="docs"><g id="file-office"><path d="M7.94,5a.79.79,0,0,0-.09-1.12A.8.8,0,0,0,6.73,4h0l-.41.49,1.2,1L7.94,5ZM2.84,9.69l.82-.32L3,8.84ZM3.22,8l1.21,1L7.24,5.82,6,4.78Z"/><rect x="2" y="2" width="3" height="1"/><rect x="2" y="4" width="3" height="1"/><path d="M0,0V14H6.2a2,2,0,0,0,1.43-.6l1.79-1.82A2,2,0,0,0,10,10.17V0ZM1,1H9V9a1,1,0,0,1-1,1H6v2a1,1,0,0,1-1,1H1ZM7,12.57V11H8.55Z"/></g></g></g></svg>
