<svg xmlns="http://www.w3.org/2000/svg" viewBox="0 0 54 54"><defs><style>.cls-1{fill:#28497c;}</style></defs><g id="docs"><g id="file-archive"><rect class="cls-1" x="27" y="17.97" width="3" height="3"/><rect class="cls-1" x="27" y="23.97" width="3" height="3"/><rect class="cls-1" x="24" y="26.97" width="3" height="3"/><rect class="cls-1" x="27" y="29.97" width="3" height="3"/><rect class="cls-1" x="24" y="32.97" width="3" height="3"/><rect class="cls-1" x="24" y="38.97" width="3" height="3"/><path class="cls-1" d="M12,6V48H30.6a6,6,0,0,0,4.28-1.79l5.39-5.48A6,6,0,0,0,42,36.49V6Zm12,6.68A1.42,1.42,0,0,1,25.24,12h.2a1.42,1.42,0,0,1,.51.18,1.44,1.44,0,1,1-2,.5Zm9,31V39h4.64ZM38.91,33a3,3,0,0,1-3,3H30v5.91a3,3,0,0,1-3,3H15.09V9.06h8.84v2.06a2.65,2.65,0,0,0-.69.56h0l-3.5,4h0a3.81,3.81,0,0,0-.37.5,3.56,3.56,0,0,0,1.23,4.88,3.49,3.49,0,0,0,3.4.07V24h3V21H24.4a3.55,3.55,0,0,0,1.08-1.1,3.67,3.67,0,0,0,.27-.57h0L26.26,18H27V16c.12-.3.24-.63.4-1H30V9.06h8.91Z"/></g></g></svg>