<svg xmlns="http://www.w3.org/2000/svg" viewBox="0 -1 16 16" fill="#24437c"><g id="Ebene_2" data-name="Ebene 2"><g id="folder"><g id="folder-edit-full"><g id="Edit"><polygon points="5.64 11.11 6.21 10.62 5.57 10.36 5.64 11.11"/><rect x="4.96" y="7.51" width="3.68" height="1.37" transform="translate(-3.34 11.46) rotate(-68.14)"/><path d="M8.09,5a.69.69,0,0,0-.89.38L7,5.88l1.27.51.21-.51h0A.7.7,0,0,0,8.09,5Z"/></g><path d="M0,13H14V3H0ZM1,4H13v8H1Z"/><path d="M9,1V1A1,1,0,0,0,8,0H5A1,1,0,0,0,4,1V1H2V2H15v9h1V1Z"/></g></g></g></svg>
