<svg xmlns="http://www.w3.org/2000/svg" viewBox="0 -1 16 16" fill="#24437c"><g id="Ebene_2" data-name="Ebene 2"><g id="folder"><g id="folder-plugin-market-full"><path d="M8.56,7.71a.91.91,0,0,1,.82.53V6.52H7.49a.92.92,0,0,0-.41-1.74.93.93,0,0,0-.94.91.94.94,0,0,0,.5.83h-2v4.76H6a.92.92,0,0,1-.5-.83.91.91,0,0,1,.93-.91.93.93,0,0,1,.92.93.91.91,0,0,1-.5.81H9.38V9a.92.92,0,0,1-1.76-.4A.93.93,0,0,1,8.56,7.71Z"/><path d="M0,13H14V3H0ZM1,4H13v8H1Z"/><path d="M9,1V1A1,1,0,0,0,8,0H5A1,1,0,0,0,4,1V1H2V2H15v9h1V1Z"/></g></g></g></svg>
