<svg xmlns="http://www.w3.org/2000/svg" viewBox="0 0 54 54"><defs><style>.a{fill:#28497c;}</style></defs><path class="a" d="M3,45.94H45v-30H3Zm3-27H42v24H6Z"/><path class="a" d="M30,10V9.94a3,3,0,0,0-3-3H18a3,3,0,0,0-3,3V10H9v2.91H48V40h3V10Z"/><path class="a" d="M27.65,35.48a.74.74,0,0,0-.37.1,5.25,5.25,0,1,1-3.4-9.78,5.1,5.1,0,0,1,.87-.07,5.33,5.33,0,0,1,1.33.17.63.63,0,0,0,.19,0,.74.74,0,0,0,.74-.84L26.63,22H15V40H28.87l-.47-3.84A.75.75,0,0,0,27.65,35.48ZM16.12,38.84V23.09h9.51l.2,1.61a6.47,6.47,0,0,0-1.08-.09,7.42,7.42,0,0,0-1.05.08A6.38,6.38,0,1,0,27.35,36.8l.25,2Z"/><path class="a" d="M27.75,22l.62,5a.75.75,0,0,1-1.2.68,4,4,0,0,0-2.82-.76,4.12,4.12,0,0,0,.4,8.23,4.09,4.09,0,0,0,3.17-1.49.75.75,0,0,1,1.33.37c.33,2.61.75,6,.75,6h3V22Z"/></svg>