<svg xmlns="http://www.w3.org/2000/svg" fill="#24437c" shape-rendering="geometricPrecision" viewBox="0 0 16 16" height="16" width="16"><path d="M8.182 3.179l-.815-1.923h-3.78l-.817 1.923h-1.121l.001.949 13.327-.009.018 9.283.933-.978v-9.245z"/><path d="M.072 4.756h14.279v9.244h-14.279z"/><path d="M7.27 6.304a3.132 3.132 0 0 0 0 6.265 3.132 3.132 0 1 0 0-6.265zm.223 2.311c.22-.008.446-.029.667-.055.019.203.031.422.037.654h-.703zm0-.446v-1.22c.133.012.262.036.389.068.06.2.155.58.228 1.1-.206.025-.415.044-.617.052zm-.446 0c-.197-.009-.405-.028-.611-.053.073-.526.169-.904.229-1.1a2.46 2.46 0 0 1 .382-.066zm0 .446v.599h-.696c.006-.234.017-.453.036-.656.222.027.446.048.66.057zm-1.142.599h-1.123a2.487 2.487 0 0 1 .254-.89c.225.049.548.114.908.172a10.964 10.964 0 0 0-.039.718zm-.001.446c.005.272.019.526.041.761-.352.056-.667.119-.89.169a2.483 2.483 0 0 1-.273-.929zm.446 0h.697v.645c-.217.009-.441.028-.659.054a9.883 9.883 0 0 1-.037-.699zm.697 1.091v1.173a2.513 2.513 0 0 1-.395-.069c-.06-.209-.147-.573-.214-1.053.204-.025.41-.043.609-.051zm.446 0c.2.009.409.029.618.054a7.458 7.458 0 0 1-.213 1.046 2.479 2.479 0 0 1-.405.072zm0-.446v-.646h.704c-.005.252-.018.487-.037.703a8.281 8.281 0 0 0-.667-.057zm1.15-.646h1.114a2.484 2.484 0 0 1-.274.931 16.64 16.64 0 0 0-.88-.166c.021-.235.035-.49.04-.765zm-.001-.446a10.588 10.588 0 0 0-.04-.716 15.217 15.217 0 0 0 .902-.172 2.495 2.495 0 0 1 .253.888h-1.115zm.611-1.29c-.195.041-.438.088-.703.131a8.811 8.811 0 0 0-.157-.846c.339.172.632.417.86.716zm-3.102-.718c-.053.217-.11.502-.157.846a17.005 17.005 0 0 1-.707-.13 2.513 2.513 0 0 1 .864-.716zm-.835 3.784l.681-.126c.045.319.096.588.147.8a2.502 2.502 0 0 1-.827-.674zm3.093.668c.05-.209.1-.473.144-.788l.669.123a2.509 2.509 0 0 1-.813.666z" fill="#fff" shape-rendering="geometricPrecision"/></svg>