<svg xmlns="http://www.w3.org/2000/svg" viewBox="0 -1 16 16" fill="#24437c"><g id="Ebene_2" data-name="Ebene 2"><g id="folder"><g id="folder-group-full"><g id="group2"><path d="M4.86,7.7A.86.86,0,1,0,4,6.84.85.85,0,0,0,4.86,7.7Z"/><path d="M5.26,8.11H4.47a.83.83,0,0,0-.82.83V10H6.08V8.94A.83.83,0,0,0,5.26,8.11Z"/><path d="M9.14,8.72a.86.86,0,1,0-.86-.86A.86.86,0,0,0,9.14,8.72Z"/><path d="M9.53,9.12H8.74a.83.83,0,0,0-.82.83V11h2.43V10A.83.83,0,0,0,9.53,9.12Z"/><path d="M6.76,6.75a.86.86,0,1,0-.85-.86A.85.85,0,0,0,6.76,6.75Z"/><path d="M8,9.06V8a.83.83,0,0,0-.83-.82H6.37A.82.82,0,0,0,5.55,8a1,1,0,0,1,.74,1v.12Z"/></g><path d="M0,13H14V3H0ZM1,4H13v8H1Z"/><path d="M9,1V1A1,1,0,0,0,8,0H5A1,1,0,0,0,4,1V1H2V2H15v9h1V1Z"/></g></g></g></svg>
