<svg xmlns="http://www.w3.org/2000/svg" viewBox="0 0 54 54"><defs><style>.cls-1{fill:#28497c;}</style></defs><g id="folder"><g id="folder-topic-full"><path class="cls-1" d="M26.37,23.15V22H21.52v1.12H16.78V40H31.22V23.15ZM29.3,38.24H18.7V25h2.82v.42h4.85V25H29.3Z"/><rect class="cls-1" x="20.39" y="29.83" width="7.22" height="2.27"/><rect class="cls-1" x="20.39" y="33.21" width="7.22" height="2.36"/><path class="cls-1" d="M3,45.94H45v-30H3Zm3-27H42v24H6Z"/><path class="cls-1" d="M30,10V9.94a3,3,0,0,0-3-3H18a3,3,0,0,0-3,3V10H9v2.91H48V40h3V10Z"/></g></g></svg>