<svg xmlns="http://www.w3.org/2000/svg" fill="#24437c" shape-rendering="geometricPrecision" viewBox="0 0 16 16" height="16" width="16"><path d="M13.125 5.495v8h-12v-8h12m1-1h-14v10h14v-10z"/><path d="M7.175 2.995l-.299-1.49h-4l-.3 1.49h-1.201v1h13.5v9.5l1-1v-9.5z"/><path d="M10.624 1.274a7.03 7.03 0 0 0 0 14.06 7.03 7.03 0 1 0 0-14.06zm.501 5.186c.493-.019 1-.064 1.496-.124.042.456.069.946.082 1.468h-1.578zm0-1.001v-2.737c.299.027.589.08.872.152.134.448.348 1.302.512 2.468-.462.056-.931.098-1.384.117zm-1-.001c-.443-.02-.908-.063-1.371-.12.163-1.18.379-2.028.514-2.468a5.52 5.52 0 0 1 .857-.148zm0 1.001v1.345h-1.562c.013-.525.039-1.017.08-1.472.498.061 1.001.107 1.482.127zm-2.562 1.345h-2.52a5.582 5.582 0 0 1 .569-1.997c.505.11 1.231.256 2.038.385a24.607 24.607 0 0 0-.087 1.612zm-.002 1c.012.611.043 1.181.092 1.707-.791.125-1.497.268-1.998.379a5.572 5.572 0 0 1-.612-2.086zm1 0h1.564v1.447c-.487.019-.989.063-1.48.121a22.181 22.181 0 0 1-.084-1.568zm1.564 2.449v2.633a5.64 5.64 0 0 1-.886-.155c-.135-.47-.33-1.286-.481-2.363.457-.055.92-.096 1.367-.115zm1 .001c.448.02.919.064 1.387.122a16.738 16.738 0 0 1-.479 2.348 5.564 5.564 0 0 1-.908.162zm0-1.001v-1.449h1.581c-.011.566-.04 1.092-.083 1.578a18.585 18.585 0 0 0-1.498-.129zm2.582-1.449h2.5a5.576 5.576 0 0 1-.614 2.09 37.347 37.347 0 0 0-1.976-.372c.047-.527.079-1.099.09-1.718zm-.003-1a23.764 23.764 0 0 0-.09-1.606 34.153 34.153 0 0 0 2.025-.386 5.6 5.6 0 0 1 .568 1.993h-2.503zm1.372-2.895c-.438.092-.982.198-1.577.293a19.775 19.775 0 0 0-.353-1.899c.76.385 1.418.935 1.93 1.606zm-6.961-1.612c-.12.487-.246 1.127-.352 1.899a38.166 38.166 0 0 1-1.586-.292 5.64 5.64 0 0 1 1.938-1.607zm-1.875 8.492c.43-.09.957-.191 1.528-.282.1.716.216 1.319.329 1.795a5.615 5.615 0 0 1-1.857-1.513zm6.942 1.499c.112-.469.225-1.061.323-1.769.557.09 1.075.188 1.501.275a5.631 5.631 0 0 1-1.824 1.494z" transform="matrix(.446 0 0 .446 2.538 5.791)" fill="#24437c" shape-rendering="geometricPrecision"/></svg>