<svg xmlns="http://www.w3.org/2000/svg" fill="#24437c" shape-rendering="geometricPrecision" viewBox="0 0 16 16" height="16" width="16"><path d="M7.394 4.755l-.816-1.923h-3.78l-.816 1.923H.861V14h14.278V4.755z"/><path d="M8.173 6.377a3.135 3.135 0 000 6.27 3.135 3.135 0 100-6.27zm.223 2.313c.22-.009.446-.029.667-.056.019.204.031.422.037.655h-.704zm0-.447v-1.22c.133.011.263.035.389.067.06.2.155.58.228 1.1a7.945 7.945 0 01-.617.053zm-.446 0a8.02 8.02 0 01-.611-.054c.072-.526.169-.904.229-1.1a2.462 2.462 0 01.382-.067zm0 .446v.6h-.697c.006-.234.018-.454.036-.657.222.028.446.048.661.057zm-1.143.6H5.683a2.49 2.49 0 01.254-.89c.225.048.55.114.91.171a10.975 10.975 0 00-.04.719zm0 .446c.005.273.019.527.04.761-.352.056-.667.12-.89.17a2.485 2.485 0 01-.274-.931zm.445 0h.698v.645a8.508 8.508 0 00-.66.054 9.893 9.893 0 01-.038-.699zm.698 1.092v1.175a2.515 2.515 0 01-.395-.07 7.928 7.928 0 01-.215-1.053 8.01 8.01 0 01.61-.052zm.446 0c.2.01.41.03.619.055A7.465 7.465 0 018.8 11.93a2.482 2.482 0 01-.405.073zm0-.446v-.646h.705c-.005.252-.018.487-.037.704a8.289 8.289 0 00-.668-.058zm1.152-.646h1.115a2.487 2.487 0 01-.274.932 16.657 16.657 0 00-.882-.166c.021-.235.036-.49.04-.766zm-.002-.446a10.599 10.599 0 00-.04-.716 15.232 15.232 0 00.903-.172 2.498 2.498 0 01.254.888H9.546zm.612-1.291a14.79 14.79 0 01-.703.13 8.82 8.82 0 00-.158-.846c.34.171.633.417.861.716zm-3.104-.72c-.054.218-.11.504-.157.848a17.022 17.022 0 01-.708-.13 2.515 2.515 0 01.865-.717zm-.837 3.788c.192-.04.427-.085.682-.125.044.319.096.588.147.8a2.504 2.504 0 01-.829-.675zm3.096.669c.05-.21.1-.473.144-.79.249.041.48.085.67.124a2.511 2.511 0 01-.814.666z" fill="#fff"/></svg>