<svg xmlns="http://www.w3.org/2000/svg" viewBox="0 0 54 54"><defs><style>.a{fill:#28497c;}</style></defs><path class="a" d="M3,45.94H45v-30H3Zm3-27H42v24H6Z"/><path class="a" d="M30,10V9.94a3,3,0,0,0-3-3H18a3,3,0,0,0-3,3V10H9v2.91H48V40h3V10Z"/><path class="a" d="M28.68,22.31a2.71,2.71,0,0,0-3.62.94l-.44.73L24,25.09,18,35,18.06,40l4.53-2.39,5.95-9.94.66-1.11.44-.73A2.5,2.5,0,0,0,28.68,22.31ZM21.62,36.63l-.83.44-1.45-.81v-.9l5.77-9.64L27.4,27Zm4.14-12,.45-.74a1.33,1.33,0,0,1,1.8-.46,1.25,1.25,0,0,1,.49,1.74l-.44.74Z"/></svg>