<?xml version="1.0" encoding="UTF-8"?>
<svg width="16" height="16" fill="#24437c" shape-rendering="geometricPrecision" version="1.1" viewBox="0 0 16 16" xmlns="http://www.w3.org/2000/svg" xmlns:cc="http://creativecommons.org/ns#" xmlns:dc="http://purl.org/dc/elements/1.1/" xmlns:rdf="http://www.w3.org/1999/02/22-rdf-syntax-ns#">
 <metadata>
  <rdf:RDF>
   <cc:Work rdf:about="">
    <dc:format>image/svg+xml</dc:format>
    <dc:type rdf:resource="http://purl.org/dc/dcmitype/StillImage"/>
    <dc:title/>
   </cc:Work>
  </rdf:RDF>
 </metadata>
 <path d="m4.0332 0c-1.376 3e-3 -2.4965 0.61833-2.5195 1.9863-3e-3 0.025-3e-3 0.52916 0 0.53516v0.0039062c0 0.04 0.0077656 0.076188 0.0097656 0.11719h-0.0078125v10.826c-1e-6 1.3972 1.1321 2.5296 2.5293 2.5312h8.3848l-0.03711-1.6895-0.009766-11.344h-8.3496c-0.496 0-1.6797-0.049469-1.6797-0.98047v-0.091797c0.051-0.885 1.1837-1.0527 1.6797-1.0527h9.5937v12.279h0.86328l-0.011718-13.121h-10.445zm3.5566 4.334c1.8553 0 2.6973 1.0253 2.6973 2.1914 0 1.0679-0.65905 1.7704-1.1934 2.3594-0.51888 0.57638-0.73082 1.1248-0.7168 1.7559v0.25195h-1.8672l-0.013672-0.36523c-0.042773-0.71521 0.19635-1.446 0.82812-2.1914 0.44946-0.54833 0.81445-0.99585 0.81445-1.4727 0-0.49294-0.3228-0.815-1.0254-0.84375-0.46349 0-1.026 0.1682-1.3906 0.41992l-0.47852-1.5293c0.51958-0.2959 1.3486-0.57617 2.3457-0.57617zm-0.19727 7.2324c0.75939 0 1.2528 0.52061 1.2676 1.2793 0 0.72994-0.50624 1.2773-1.2656 1.2773h-0.015625c-0.72994 0-1.2363-0.54741-1.2363-1.2773 0-0.75868 0.52076-1.2793 1.25-1.2793z"/>
</svg>
