<svg width="16" height="16" fill="#24437c" shape-rendering="geometricPrecision" viewBox="0 0 16 16" xmlns="http://www.w3.org/2000/svg"><path d="M4.033 0c-1.376.003-2.496.618-2.52 1.986a15.9 15.9 0 000 .535v.004c0 .04.008.077.01.118h-.007v10.826a2.532 2.532 0 002.529 2.53h8.385l-.037-1.689-.01-11.344h-8.35c-.496 0-1.68-.05-1.68-.98v-.092C2.406 1.009 3.538.841 4.034.841h9.594v12.28h.863L14.48-.002H4.034zM7.59 4.334c1.855 0 2.697 1.025 2.697 2.191 0 1.068-.659 1.77-1.193 2.36-.52.576-.731 1.125-.717 1.756v.252H6.51l-.014-.366c-.043-.715.196-1.446.828-2.191.45-.548.815-.996.815-1.473 0-.493-.323-.815-1.026-.843-.463 0-1.026.168-1.39.42l-.479-1.53c.52-.296 1.349-.576 2.346-.576zm-.197 7.232c.759 0 1.252.521 1.267 1.28 0 .73-.506 1.277-1.265 1.277h-.016c-.73 0-1.236-.547-1.236-1.277 0-.759.52-1.28 1.25-1.28z"/></svg>