<svg id="icons" xmlns="http://www.w3.org/2000/svg" viewBox="0 0 54 54"><defs><style>.cls-1{fill:#28497c;}</style></defs><g id="news"><path class="cls-1" d="M3,6V48l13.7,0a3.05,3.05,0,0,0,.6-.06l31.3-6.45A3,3,0,0,0,51,38.52V6ZM23.66,42.24,38.46,31l7,6.59ZM47,34.11,38.42,26l-4.07,3H9v4H28.92L23.5,37H9v4h9.07L14,44l0,0H7V10H47Z"/><rect class="cls-1" x="9" y="12.97" width="12" height="12"/><rect class="cls-1" x="24" y="12.97" width="21" height="4"/><rect class="cls-1" x="24" y="20.97" width="21" height="4"/></g></svg>