<svg viewBox="0 0 100 100" xmlns="http://www.w3.org/2000/svg" fill-rule="evenodd" clip-rule="evenodd" stroke-linejoin="round" stroke-miterlimit="2"><path d="M37.46 40.06a1 1 0 00-1-1h-9.75a1 1 0 00-1 1v18.89a1 1 0 001 1h9.75a1 1 0 001-1V40.06z" fill="#24437c"/><path d="M55.74 73L41.38 61.26c-.7.001-1.283-.56-1.31-1.26V39.06c.005-.715.595-1.3 1.31-1.3L55.74 24.7c.715 0 1.305.585 1.31 1.3v45.7a1.316 1.316 0 01-1.31 1.3zM61 61.26a1.344 1.344 0 01-.78-.26 1.326 1.326 0 01-.26-1.83 20.744 20.744 0 003.65-11A14.503 14.503 0 0060 38.68a1.31 1.31 0 01-.336-.876c0-.718.592-1.31 1.31-1.31.324 0 .636.12.876.336a16.925 16.925 0 014.3 11.37A22.938 22.938 0 0162 60.73c-.235.32-.603.515-1 .53z" fill="#24437c" fill-rule="nonzero"/><path d="M65.53 65.83a1.26 1.26 0 01-.83-.31 1.29 1.29 0 01-.17-1.83c.06-.08 6.23-7.58 6.23-14.84s-6.09-13.37-6.15-13.44a1.304 1.304 0 01-.38-.92c0-.716.589-1.305 1.305-1.305.347 0 .68.139.925.385.28.28 6.91 7 6.91 15.28S66.81 65 66.54 65.36c-.25.299-.62.471-1.01.47z" fill="#24437c" fill-rule="nonzero"/><path d="M69.45 69.74a1.302 1.302 0 01-.92-2.22c.07-.08 7.47-7.63 7.47-18.67a23.818 23.818 0 00-7.37-17.27 1.312 1.312 0 01-.392-.934c0-.719.592-1.31 1.31-1.31.274 0 .54.085.762.244a26.123 26.123 0 018.3 19.28 31.007 31.007 0 01-8.22 20.51 1.27 1.27 0 01-.94.37z" fill="#24437c" fill-rule="nonzero"/><path d="M49.9 88c-14.13 0-29.35-1.1-30.66-1.19-9.871.011-18.026-8.05-18.13-17.92C1.05 68 .5 59.11.5 49.3S1 32 1.11 31.09c.141-9.853 8.296-17.877 18.15-17.86C20.82 13.15 41.57 12 49.8 12s29.37 1.11 30.94 1.19c9.867-.023 18.03 8.023 18.15 17.89.08.94.61 7.4.61 18.62S99 68 98.89 68.91c-.136 9.848-8.281 17.872-18.13 17.86C79.45 86.86 64 88 49.9 88zM19.33 18.09C12.087 18.046 6.082 23.948 6 31.19v.19c0 .08-.6 7.8-.6 17.92 0 10.12.6 19.26.6 19.35v.16c.082 7.254 6.106 13.161 13.36 13.1h.18c.16 0 15.88 1.19 30.39 1.19s30.43-1.17 30.59-1.19h.18c7.231.028 13.218-5.869 13.3-13.1v-.2c0-.08.6-7.23.6-18.91s-.59-18.22-.6-18.29v-.22c-.082-7.254-6.106-13.161-13.36-13.1h-.13c-.22 0-22.5-1.19-30.74-1.19-8.24 0-30.12 1.18-30.34 1.19h-.1z" fill="#24437c" fill-rule="nonzero"/></svg>