<svg viewBox="0 0 100 100" xmlns="http://www.w3.org/2000/svg" fill-rule="evenodd" clip-rule="evenodd" stroke-linejoin="round" stroke-miterlimit="2"><path d="M94.6 6.17H61.91v-.45C61.856 3.079 59.641.95 57 1H42.53l-.091-.001c-2.605 0-4.761 2.116-4.809 4.721v.45H5.4C2.763 6.126.554 8.253.5 10.89V77c.054 2.637 2.263 4.764 4.9 4.72h23l-10 14.14a1.999 1.999 0 00.55 2.82c.352.227.761.348 1.18.35a2.144 2.144 0 001.74-.88l11.65-16.46h33l11.17 16.4a2.17 2.17 0 002.91.58 2.003 2.003 0 00.61-2.8l-9.69-14.18H94.6c2.626.045 4.83-2.065 4.9-4.69V10.89c-.054-2.637-2.263-4.764-4.9-4.72zm-52.77-.45a.693.693 0 01.7-.67H57a.703.703 0 01.71.67v5.39a.714.714 0 01-.71.68H42.53a.703.703 0 01-.7-.68V5.72zM95.3 77a.703.703 0 01-.7.68H5.4a.703.703 0 01-.7-.68V10.89a.693.693 0 01.7-.67h32.23v.89c.048 2.605 2.204 4.721 4.809 4.721l.091-.001H57c2.641.05 4.856-2.079 4.91-4.72v-.89H94.6a.693.693 0 01.7.67V77z" fill="#24437c" fill-rule="nonzero"/><path d="M78.15 37.92l-4.35-13.1-13.63 3.68a2.006 2.006 0 00-1.45 2.5 2.12 2.12 0 002.59 1.4l6.55-1.76-15.78 27.04-23-14.63L20.37 53a1.998 1.998 0 00.26 2.85 2.16 2.16 0 003-.25l6.27-7.16 23.67 15 18.24-31.32 2.34 7a2.104 2.104 0 002 1.41c.217.002.434-.032.64-.1a2.004 2.004 0 001.36-2.51z" fill="#24437c" fill-rule="nonzero"/></svg>