<svg viewBox="0 0 100 100" xmlns="http://www.w3.org/2000/svg" fill-rule="evenodd" clip-rule="evenodd" stroke-linejoin="round" stroke-miterlimit="2"><path d="M49.9 88c-14.13 0-29.35-1.1-30.66-1.19-9.871.011-18.026-8.05-18.13-17.92C1.05 68 .5 59.11.5 49.3S1 32 1.11 31.09c.141-9.853 8.296-17.877 18.15-17.86C20.82 13.15 41.57 12 49.8 12s29.37 1.11 30.94 1.19c9.867-.023 18.03 8.023 18.15 17.89.08.94.61 7.4.61 18.62S99 68 98.89 68.91c-.136 9.848-8.281 17.872-18.13 17.86C79.45 86.86 64 88 49.9 88zM19.33 18.09C12.087 18.046 6.082 23.948 6 31.19v.19c0 .08-.6 7.8-.6 17.92 0 10.12.6 19.26.6 19.35v.16c.082 7.254 6.106 13.161 13.36 13.1h.18c.16 0 15.88 1.19 30.39 1.19s30.43-1.17 30.59-1.19h.18c7.231.028 13.218-5.869 13.3-13.1v-.2c0-.08.6-7.23.6-18.91s-.59-18.22-.6-18.29v-.22c-.082-7.254-6.106-13.161-13.36-13.1h-.13c-.22 0-22.5-1.19-30.74-1.19-8.24 0-30.12 1.18-30.34 1.19h-.1z" fill="#24437c" fill-rule="nonzero"/><path d="M36.94 70.65h-.01a2.12 2.12 0 01-2.11-2.11V31.52l-.001-.065a2.13 2.13 0 012.12-2.12c.373 0 .739.099 1.061.285l31.56 17.61a2.132 2.132 0 01.08 3.67L38.06 70.33a2.16 2.16 0 01-1.12.32z" fill="#24437c" fill-rule="nonzero"/></svg>