<svg viewBox="0 0 100 100" xmlns="http://www.w3.org/2000/svg" fill-rule="evenodd" clip-rule="evenodd" stroke-linejoin="round" stroke-miterlimit="2"><path d="M97.54 31.73H87.32V13.66c0-1.097-.903-2-2-2h-2.71V6.59c0-1.097-.903-2-2-2H13.86c-1.097 0-2 .903-2 2v36.93h-9.4c-1.097 0-2 .903-2 2v47.89c0 1.097.903 2 2 2h95.08c1.097 0 2-.903 2-2V33.7a2.009 2.009 0 00-2-1.97zm-14.15 0H59.82a2.001 2.001 0 00-1.39.58L47.22 43.52H22.11V15.63h61.28v16.1zM15.82 8.55h62.86v3.15H20.14c-1.097 0-2 .903-2 2v29.82h-2.32V8.55zm79.75 82.9H4.43v-44H48c.519 0 1.017-.209 1.38-.58l11.26-11.21h34.93v55.79z" fill="#24437c" fill-rule="nonzero"/><path fill="#24437c" d="M31.14 21.13H72v3.93H31.14zM31.14 28.98h14.14v3.93H31.14z"/></svg>