<svg viewBox="0 0 100 100" xmlns="http://www.w3.org/2000/svg" fill-rule="evenodd" clip-rule="evenodd" stroke-miterlimit="10"><path d="M94.8 66.7V22.5c0-3.5-2.8-6.3-6.3-6.3h-77c-3.5 0-6.3 2.8-6.3 6.3v44.2c-2.7.7-4.7 3.1-4.7 6.1v4.7c0 3.5 2.8 6.3 6.3 6.3h86.4c3.5 0 6.3-2.8 6.3-6.3v-4.7c0-2.9-2-5.4-4.7-6.1zM8.4 22.5c0-1.7 1.4-3.1 3.1-3.1h77c1.7 0 3.1 1.4 3.1 3.1v44H8.4v-44zm88 55c0 1.7-1.4 3.1-3.1 3.1H6.8c-1.7 0-3.1-1.4-3.1-3.1v-4.7c0-1.7 1.4-3.1 3.1-3.1h86.4c1.7 0 3.1 1.4 3.1 3.1v4.7h.1z" fill="#24437c" fill-rule="nonzero"/><path d="M58.6 77.5H41.4c-.9 0-1.6-.7-1.6-1.6 0-.9.7-1.6 1.6-1.6h17.3c.9 0 1.6.7 1.6 1.6 0 .9-.8 1.6-1.7 1.6z" fill="#24437c" fill-rule="nonzero"/><path d="M15.4 28h28.1M15.4 33.5h25.3M15.4 39.8H28M15.4 44.5h14.7" fill="none" stroke="#24437c"/><circle cx="74.9" cy="30.3" r="7" fill="#24437c" transform="rotate(-80.514 74.904 30.259)"/><path d="M89 62.7V45.8s0-5.6-7-5.6h-2.8l-5.6 7-3.1-6.6s-6.8-.4-8.2 3.8c-1.4 4.2-2.8 5.6-2.8 5.6h-9.9l-12.7-8.5 11.3 10v4.1h14.1l4.2-7v14.1H89z" fill="#24437c" fill-rule="nonzero"/></svg>