<svg xmlns="http://www.w3.org/2000/svg" viewBox="0 0 54 54"><defs><style>.cls-1{fill:#28497c;}</style></defs><g id="messagebox"><g id="question-circle"><path class="cls-1" d="M26.72,34.54a3.74,3.74,0,0,0-3.87,3.94,3.76,3.76,0,0,0,3.83,4h0a3.79,3.79,0,0,0,3.92-4A3.75,3.75,0,0,0,26.72,34.54Zm.61-22.41a15.07,15.07,0,0,0-7.26,1.79l1.48,4.74a8.21,8.21,0,0,1,4.31-1.3C28,17.44,29,18.44,29,20s-1.13,2.88-2.53,4.57a9.42,9.42,0,0,0-2.56,6.79l0,1.13h5.79v-.78A7.43,7.43,0,0,1,32,26.23c1.65-1.83,3.69-4,3.69-7.31C35.68,15.31,33.07,12.13,27.33,12.13ZM27,8A19,19,0,1,1,8,27,19,19,0,0,1,27,8m0-5A24,24,0,1,0,51,27,24,24,0,0,0,27,3Z"/></g></g></svg>