<?xml version="1.0" encoding="UTF-8" standalone="no"?>
<!DOCTYPE svg PUBLIC "-//W3C//DTD SVG 1.1//EN" "http://www.w3.org/Graphics/SVG/1.1/DTD/svg11.dtd">
<svg width="100%" height="100%" viewBox="0 0 16 16" version="1.1" xmlns="http://www.w3.org/2000/svg" xmlns:xlink="http://www.w3.org/1999/xlink" xml:space="preserve" xmlns:serif="http://www.serif.com/" style="fill-rule:evenodd;clip-rule:evenodd;stroke-linejoin:round;stroke-miterlimit:2;">
    <g transform="matrix(0.873931,0,0,0.873931,1.00855,1.44508)">
        <path d="M2.138,11.963C2.757,11.963 3.266,11.454 3.266,10.834C3.266,10.215 2.757,9.706 2.138,9.706C1.519,9.706 1.01,10.215 1.01,10.834C1.01,11.454 1.519,11.963 2.138,11.963ZM3.187,12.499L1.085,12.499C0.486,12.499 0,12.989 0,13.587L0,15.001L4.276,15.001L4.276,13.587C4.276,12.989 3.786,12.499 3.187,12.499ZM13.862,11.963C13.862,11.963 13.863,11.963 13.863,11.963C14.482,11.963 14.992,11.453 14.992,10.834C14.992,10.215 14.483,9.706 13.864,9.705C13.864,9.705 13.863,9.705 13.863,9.705C13.244,9.705 12.734,10.215 12.734,10.834C12.734,11.453 13.243,11.962 13.862,11.963ZM14.911,12.499L12.81,12.499C12.214,12.501 11.725,12.991 11.724,13.587L11.724,15.001L16,15.001L16,13.587C16,12.989 15.509,12.499 14.911,12.499ZM8.018,2.257C8.637,2.257 9.147,1.748 9.147,1.129C9.147,0.509 8.637,0 8.018,0C7.399,0 6.89,0.509 6.89,1.129C6.89,1.748 7.399,2.257 8.018,2.257ZM9.067,2.794L6.965,2.794C6.366,2.794 5.88,3.283 5.88,3.882L5.88,5.295L10.156,5.295L10.156,3.882C10.156,3.283 9.666,2.794 9.067,2.794ZM8.528,6.989L8.528,5.985L7.508,5.985L7.508,6.989L1.984,6.989L1.984,8.973L3.041,8.973L3.041,8.001L13.013,8.001L13.013,8.973L13.958,8.973L13.958,6.989L8.528,6.989Z" style="fill:#28497c;fill-rule:nonzero;"/>
    </g>
</svg>
