<svg xmlns="http://www.w3.org/2000/svg" viewBox="0 0 16 16"><path d="M12 5c0-2.2-1.8-4-4-4-1.7 0-3.1 1.1-3.7 2.5v.1c0 .1-.1.2-.1.2 0 .5.4.8.8.8.3 0 .6-.2.8-.5.4-1.1 1.5-1.8 2.8-1.5.8.4 1.4 1 1.6 1.8.4 1.5-.7 2.8-2.1 2.9H6.3C5 7.3 4 8.3 4 9.6V14c0 .5.4 1 1 1h6c.5 0 1-.4 1-1V5zm-4 8.7c-.4 0-.7-.3-.7-.7 0-.4.3-.7.7-.7.4 0 .7.3.7.7 0 .4-.3.7-.7.7zm1-2.8c-.3.3-.4.6-.4.9v.1h-1v-.2c0-.4.1-.8.4-1.2.2-.3.4-.5.4-.8 0-.3-.2-.4-.6-.5-.3 0-.6.1-.8.2l-.1-.7c.3-.2.7-.3 1.3-.3 1 0 1.5.6 1.5 1.2-.1.6-.5.9-.7 1.3z" fill="#24437c"/></svg>