<svg xmlns="http://www.w3.org/2000/svg" viewBox="0 0 54 54"><defs><style>.a{fill:#28497c;}</style></defs><rect class="a" x="17.93" y="8.97" width="18.09" height="5"/><polygon class="a" points="40.93 8.97 40.93 13.97 46 13.97 46 42.97 8 42.97 8 13.97 13.02 13.97 13.02 8.97 3 8.97 3 47.97 51 47.97 51 8.97 40.93 8.97"/><path class="a" d="M35.47,17a2.39,2.39,0,0,0,2.46-2.31V8.28a2.46,2.46,0,0,0-4.91,0v6.38A2.38,2.38,0,0,0,35.47,17Z"/><path class="a" d="M18.52,17A2.39,2.39,0,0,0,21,14.66V8.28a2.46,2.46,0,0,0-4.91,0v6.38A2.38,2.38,0,0,0,18.52,17Z"/><path class="a" d="M20.27,34H14.33a1.66,1.66,0,0,1-1.8-1.63A2.09,2.09,0,0,1,13,31l7.29-9.35A1.8,1.8,0,0,1,21.81,21a1.54,1.54,0,0,1,1.77,1.7v8.65h1.19a1.35,1.35,0,0,1,0,2.69H23.58v2.44a1.45,1.45,0,0,1-1.65,1.66,1.46,1.46,0,0,1-1.66-1.66Zm0-8.83h-.05l-4.57,6.14h4.62Z"/><path class="a" d="M38.44,34.82A1.38,1.38,0,0,1,40,36.31c0,1.07-.66,1.49-1.75,1.49H29.37a1.75,1.75,0,0,1-1.94-1.75c0-1.68,1.49-3.55,4.45-5.42,3.29-2.08,4.43-2.51,4.43-4.43a2.35,2.35,0,0,0-2.49-2.39c-1.52,0-2.53.62-3.05,2.51-.24.88-.55,1.33-1.5,1.33s-1.72-.41-1.72-1.59c0-2.89,2.84-5.09,6.32-5.09,3.79,0,6,2.49,6,4.66,0,3.15-1.45,4.38-4,5.8-2.67,1.52-4.31,2.49-4.62,3.39Z"/></svg>