<?xml version="1.0" encoding="UTF-8" standalone="no"?>
<!DOCTYPE svg PUBLIC "-//W3C//DTD SVG 1.1//EN" "http://www.w3.org/Graphics/SVG/1.1/DTD/svg11.dtd">
<svg width="100%" height="100%" viewBox="0 0 16 16" version="1.1" xmlns="http://www.w3.org/2000/svg" xmlns:xlink="http://www.w3.org/1999/xlink" xml:space="preserve" xmlns:serif="http://www.serif.com/" style="fill-rule:evenodd;clip-rule:evenodd;stroke-linejoin:round;stroke-miterlimit:2;">
    <g transform="matrix(0.922474,0,0,0.922474,0.630288,0.621721)">
        <path d="M14.182,12.821L8.715,7.353L7.881,6.52L5.496,8.905L6.33,9.738L12.631,16.039L13.464,15.205L15.016,13.653L14.182,12.821ZM8.668,10.635L6.921,8.887L7.864,7.944L9.611,9.691L8.668,10.635ZM3.108,8.848L2.601,10.205L1.244,10.711L2.601,11.218L3.108,12.575L3.615,11.218L4.972,10.711L3.615,10.205L3.108,8.848ZM4.938,5.26L5.653,3.345L7.567,2.63L5.653,1.915L4.938,0L4.222,1.915L2.308,2.63L4.222,3.345L4.938,5.26ZM10.584,6.142L11.054,4.885L12.31,4.416L11.054,3.946L10.584,2.69L10.115,3.946L8.859,4.416L10.115,4.885L10.584,6.142Z" style="fill:#28497c;fill-rule:nonzero;"/>
    </g>
</svg>
