<svg width="16" height="16" xmlns="http://www.w3.org/2000/svg" viewBox="0 0 16 16" shape-rendering="geometricPrecision" fill="#00962d"><defs><mask id="a"><rect fill="#fff" width="100%" height="100%"/><path d="M12.997.858a4.809 4.809 0 00-4.253 2.563 4.81 4.81 0 008.506 0A4.812 4.812 0 0012.997.858z" fill="#000"/></mask></defs><path d="M12.971 1.607c-1.315 0-2.454.74-3.029 1.825a3.425 3.425 0 006.058 0 3.43 3.43 0 00-3.029-1.825z" fill="#cb1800"/><g mask="url(#a)"><path d="M7.975 1.052A6.978 6.978 0 001 8.022h2.077a4.9 4.9 0 014.897-4.896 4.9 4.9 0 014.899 4.897 4.9 4.9 0 01-4.898 4.9V15a6.977 6.977 0 006.973-6.977 6.973 6.973 0 00-6.973-6.971zm2.62 6.971a2.62 2.62 0 00-2.621-2.617 2.618 2.618 0 000 5.239 2.623 2.623 0 002.621-2.622z"/></g></svg>