<svg width="16" height="16" xmlns="http://www.w3.org/2000/svg" viewBox="0 0 16 16" shape-rendering="geometricPrecision" fill="#00962d"><defs><mask id="a"><rect fill="#fff" width="100%" height="100%"/><path d="M12.997.858a4.809 4.809 0 00-4.253 2.563 4.81 4.81 0 008.506 0A4.812 4.812 0 0012.997.858z" fill="#000"/></mask></defs><path d="M12.971 1.607c-1.315 0-2.454.74-3.029 1.825a3.425 3.425 0 006.058 0 3.43 3.43 0 00-3.029-1.825z" fill="#cb1800"/><g mask="url(#a)"><path d="M8 5.2a2.8 2.8 0 01.024 5.598v1.401A4.2 4.2 0 008 3.801a4.2 4.2 0 00-4.201 4.201v.009h1.4l-.001-.009A2.803 2.803 0 018 5.2zM8 .998A7.002 7.002 0 00.999 8.002v.009H2.4v-.009a5.601 5.601 0 115.625 5.599v1.401A7.003 7.003 0 008 .998z"/><circle cx="4.599" cy="11.22" r="2.105"/></g></svg>