<svg width="16" height="16" xmlns="http://www.w3.org/2000/svg" viewBox="0 0 16 16" shape-rendering="geometricPrecision" fill="#6e6e6e"><defs><mask id="a"><rect fill="#fff" width="100%" height="100%"/><path d="M12.997.858a4.809 4.809 0 00-4.253 2.563 4.81 4.81 0 008.506 0A4.812 4.812 0 0012.997.858z" fill="#000"/></mask></defs><path d="M12.971 1.607c-1.315 0-2.454.74-3.029 1.825a3.425 3.425 0 006.058 0 3.43 3.43 0 00-3.029-1.825z" fill="#cb1800"/><g mask="url(#a)"><path d="M1.979 7.695a4.662 4.662 0 014.663-4.661h.001V1.056h-.001a6.644 6.644 0 00-6.641 6.64v.002h1.978v-.003zm6.332 4.157a2.492 2.492 0 100-4.986V9.36H5.814a2.498 2.498 0 002.497 2.492zm0-9.134v1.978a4.663 4.663 0 11-4.665 4.665H1.668a6.642 6.642 0 0013.281-.003 6.643 6.643 0 00-6.638-6.64z"/></g></svg>